<svg xmlns="http://www.w3.org/2000/svg" xmlns:xlink="http://www.w3.org/1999/xlink" viewBox="0 0 573.57 200.44"><defs><clipPath id="a"><rect x="-492.9" y="-396.92" width="1218.9" height="870.24" style="fill:none"/></clipPath></defs><title>Монтажная область 1</title><path d="M235.57,131.65a4.47,4.47,0,0,1-2.24,4.06,11,11,0,0,1-6.06,1.43c-.71,0-2.15,0-4.2,0,.09-2.86.19-6,.19-9.4,0-3.2-.1-6.06-.19-8.49h11.44l0,2.05q-4.93-.14-9.16-.14c0,1.43,0,3.29,0,5.58.81,0,1.57,0,2.29,0a14.87,14.87,0,0,1,5.25.76,4.3,4.3,0,0,1,2.67,4.25m-2.29.24c0-2.29-2-3.39-6-3.39a11.62,11.62,0,0,0-1.91.1c0,2.43,0,4.58.14,6.54a13.82,13.82,0,0,0,1.81.1,9.49,9.49,0,0,0,4.63-.81,2.75,2.75,0,0,0,1.33-2.53m15,5.2h-2.38c.14-1.67.19-3.67.19-6,0-1.86,0-3.63-.1-5.3H243.3c-.29,1-.57,2-.91,3s-.67,1.91-1,2.77a21.32,21.32,0,0,1-1.19,2.34,11.43,11.43,0,0,1-1.24,1.86,7.33,7.33,0,0,1-1.29,1.19,2.16,2.16,0,0,1-1.24.43l-.14-2.2a1.86,1.86,0,0,0,.81-.48,8.54,8.54,0,0,0,1-1.14,19.21,19.21,0,0,0,1-1.76c.38-.72.72-1.43,1.1-2.29s.67-1.67,1-2.58a27.28,27.28,0,0,0,.86-2.81h4.48l1.86-.29c-.14,1.91-.19,4.25-.19,7,0,2.19.1,4.29.19,6.3m13.54,0-2.15,0a5.85,5.85,0,0,1-.14-1.24h-.14a6.72,6.72,0,0,1-4.58,1.53,4.2,4.2,0,0,1-2.72-1,3.11,3.11,0,0,1-1.14-2.62,4,4,0,0,1,1.76-3.39c1.19-.86,3.43-1.29,6.63-1.34a3.84,3.84,0,0,0,0-.76,2.38,2.38,0,0,0-.91-2.24,5,5,0,0,0-2.72-.57,18.44,18.44,0,0,0-4.24.52l.24-1.86a15.93,15.93,0,0,1,4.72-.62,6,6,0,0,1,3.77,1,4,4,0,0,1,1.34,3.43c0,.43,0,1.24,0,2.34s0,1.91,0,2.29a25.13,25.13,0,0,0,.33,4.44m-2.38-2.67c0-1.38-.1-2.62-.1-3.72a13.91,13.91,0,0,0-3.91.38,2.62,2.62,0,0,0-2.24,2.58c0,1.24.86,1.91,2.62,1.91a5.41,5.41,0,0,0,3.62-1.14m14.11-10.35-.1,2.1c-1.57-.14-3.77-.24-6.63-.24,0,1.86.1,3.48.1,4.87,0,2.19,0,4.29.19,6.3h-2.43c.14-1.86.19-3.91.19-6.3,0-2.62,0-4.87-.19-6.73Zm14.26,6.11a7.42,7.42,0,0,1-2.05,5.49,6.6,6.6,0,0,1-4.72,2,6,6,0,0,1-4.39-1.76,6.31,6.31,0,0,1-1.81-4.91,7.32,7.32,0,0,1,2-5.49,6.56,6.56,0,0,1,4.77-2,5.93,5.93,0,0,1,4.34,1.77,6.51,6.51,0,0,1,1.86,5m-2.38.48a6.88,6.88,0,0,0-1.1-3.82,3.68,3.68,0,0,0-6.1-.1,6.76,6.76,0,0,0-1,3.67,6.88,6.88,0,0,0,1.1,3.82,3.68,3.68,0,0,0,6.1.1,6.48,6.48,0,0,0,1-3.67m15.12-6.58-.1,2c-1.48-.14-3-.19-4.39-.19,0,1.29,0,2.91,0,4.91,0,2.19.09,4.29.19,6.3h-2.48c.14-1.86.19-3.91.19-6.3,0-2,0-3.58-.1-4.91-1.43,0-2.91,0-4.43.19l.1-2Zm12.83,9.16a3.22,3.22,0,0,1-1.57,2.91,8.32,8.32,0,0,1-4.48,1c-1,0-2.58,0-4.72,0,.14-1.29.19-3.39.19-6.3a36.8,36.8,0,0,0-.48-6.73h1.43q2-.14,4.15-.14,4.86,0,4.86,3a3,3,0,0,1-2,3v.14a2.92,2.92,0,0,1,2.62,3.15m-2.24.14a1.87,1.87,0,0,0-1.29-1.91,8,8,0,0,0-2.48-.29,23.09,23.09,0,0,0-2.58.1c0,1.62,0,3,0,4.05a26.13,26.13,0,0,0,3,.14c2.24,0,3.34-.72,3.34-2.1m-.48-5.87c0-1.29-1-1.91-2.81-1.91-.91,0-2,0-3.15.1,0,1.34.09,2.62.09,3.86,1.14,0,2.1,0,2.91,0a3.34,3.34,0,0,0,2.19-.62,1.66,1.66,0,0,0,.76-1.48m18.07,2.67a7.39,7.39,0,0,1-2,5.49,6.6,6.6,0,0,1-4.72,2,6,6,0,0,1-4.39-1.76,6.33,6.33,0,0,1-1.86-4.91,7.16,7.16,0,0,1,2-5.49,6.46,6.46,0,0,1,4.72-2,6,6,0,0,1,4.39,1.77,6.48,6.48,0,0,1,1.81,5m-2.34.48a6.88,6.88,0,0,0-1.1-3.82,3.68,3.68,0,0,0-6.1-.1,6.39,6.39,0,0,0-1,3.67,6.86,6.86,0,0,0,1,3.82,3.52,3.52,0,0,0,3.1,1.67,3.38,3.38,0,0,0,3-1.58,6.53,6.53,0,0,0,1.1-3.67M344,130a8.32,8.32,0,0,1-1.72,5.2,5.56,5.56,0,0,1-4.72,2.19q-2.5,0-3.29-.86h-.14c0,2.53,0,4.77.09,6.77h-2.58q.29-3.65.29-9a56.44,56.44,0,0,0-.67-10.21l2.43-.33.19,1.34H334c.86-1,2.29-1.53,4.29-1.53a5,5,0,0,1,4.15,1.91A7,7,0,0,1,344,130m-2.48.33a5.6,5.6,0,0,0-1-3.48,3.54,3.54,0,0,0-3-1.43,4,4,0,0,0-3.53,1.48c.14,3.05.24,5.72.24,7.92a4.21,4.21,0,0,0,2.86.91,3.88,3.88,0,0,0,3.39-1.57,6.32,6.32,0,0,0,1.1-3.82M358,137.09h-2.43c.14-1.57.19-3.67.19-6.3q0-1.07.14-3.29h-.14c-.19.62-1.43,2.24-3.72,5s-3.29,4.1-3.29,4.63h-2c.14-1.86.19-3.91.19-6.3a37.44,37.44,0,0,0-.48-6.63l2.72-.38c-.1,1.72-.19,3.86-.19,6.49,0,.91,0,2.05,0,3.48h.14c.19-.57,1.43-2.24,3.72-5s3.2-4.1,3.2-4.63l2-.38c-.1,1.91-.19,4.25-.19,7,0,2.19.1,4.29.19,6.3m13.26-13-.1,2c-1.48-.14-3-.19-4.39-.19,0,1.29,0,2.91,0,4.91,0,2.19,0,4.29.19,6.3h-2.48c.1-1.86.19-3.91.19-6.3,0-2,0-3.58-.14-4.91-1.38,0-2.86,0-4.39.19l0-2Zm13.26,5c0,.38,0,.91,0,1.57l-9.39.19a4.67,4.67,0,0,0,1.53,3.34,5.16,5.16,0,0,0,3.72,1.34,14.41,14.41,0,0,0,3.91-.48L384,136.9a10.1,10.1,0,0,1-3.86.53,7.19,7.19,0,0,1-5.44-1.91,6.75,6.75,0,0,1-1.86-4.77,8,8,0,0,1,1.72-5.15,5.57,5.57,0,0,1,4.58-2.15,5,5,0,0,1,4,1.57,5.93,5.93,0,0,1,1.38,4m-2.29,0c0-2.58-1-3.86-3.19-3.86s-3.53,1.33-3.91,4Zm15.5,8h-2.39c.1-1.67.19-3.67.19-6q0-2.79-.14-5.3h-2.72a30.17,30.17,0,0,1-.91,3,20.94,20.94,0,0,1-1,2.77c-.38.86-.76,1.62-1.15,2.34a15.69,15.69,0,0,1-1.29,1.86A5.81,5.81,0,0,1,387,136.9a2.3,2.3,0,0,1-1.29.43l-.14-2.2a1.64,1.64,0,0,0,.81-.48,8.56,8.56,0,0,0,1-1.14c.33-.52.67-1.1,1-1.76s.72-1.43,1-2.29.67-1.67,1-2.58.57-1.86.81-2.81h4.53l1.81-.29q-.14,2.86-.14,7c0,2.19,0,4.29.19,6.3m13.69-4.39a3.72,3.72,0,0,1-1.72,3.29,7.12,7.12,0,0,1-4,1.14c-.72,0-2.29,0-4.72,0,.09-1.86.14-3.91.14-6.3a37.44,37.44,0,0,0-.48-6.63l2.67-.38c-.1,1.15-.14,2.91-.14,5.2a12,12,0,0,1,2.34-.24c3.91,0,5.87,1.34,5.87,4m-2.1.24c0-1.72-1.29-2.58-3.77-2.58a22.26,22.26,0,0,0-2.34.24c0,1.62,0,3.2,0,4.72,1,.1,1.76.14,2.53.14,2.34,0,3.53-.81,3.53-2.53m15.4,4.15h-2.43c.14-1.77.19-3.77.19-6.06h-6.53c0,2.05,0,4.05.19,6.06h-2.38c.14-1.86.19-3.91.19-6.3a37.44,37.44,0,0,0-.48-6.63l2.62-.38c0,.67-.1,2.48-.14,5.49h6.53a35.27,35.27,0,0,0-.48-5.1l2.67-.38c-.09,1.91-.19,4.25-.19,7,0,2.19.1,4.29.24,6.3m13.16-4.39a3.72,3.72,0,0,1-1.72,3.29,6.81,6.81,0,0,1-3.86,1.14c-.71,0-2.15,0-4.29,0,.1-1.86.14-3.91.14-6.3a37.44,37.44,0,0,0-.48-6.63l2.58-.38c-.1,1.15-.1,2.91-.1,5.2a6.22,6.22,0,0,1,1.86-.24c3.91,0,5.87,1.34,5.87,4m4.43,4.39h-2.38c.14-1.86.19-3.91.19-6.3a37.44,37.44,0,0,0-.48-6.63l2.62-.38q-.14,2.86-.14,7c0,2.19,0,4.29.19,6.3m-6.58-4.15q0-2.58-3.72-2.58a11,11,0,0,0-1.86.24c0,1.62,0,3.2,0,4.72a15.24,15.24,0,0,0,2.15.14c2.29,0,3.39-.81,3.39-2.53m21,4.15h-2.43c.14-1.57.19-3.67.19-6.3q0-1.07.14-3.29h-.14c-.19.62-1.43,2.24-3.72,5s-3.29,4.1-3.29,4.63h-2c.14-1.86.19-3.91.19-6.3a37.44,37.44,0,0,0-.48-6.63l2.72-.38c-.09,1.72-.14,3.86-.14,6.49,0,.91,0,2.05-.1,3.48h.14c.19-.57,1.43-2.24,3.72-5s3.2-4.1,3.2-4.63l2-.38c-.1,1.91-.19,4.25-.19,7,0,2.19.09,4.29.19,6.3m-1.19-18.89a4.13,4.13,0,0,1-1,2.72,3.87,3.87,0,0,1-3.24,1.24,4,4,0,0,1-3.34-1.24,4.18,4.18,0,0,1-1-2.72l2-.29c0,1.86.76,2.77,2.34,2.77a2.17,2.17,0,0,0,1.91-.72,4,4,0,0,0,.48-2.05Zm26.08,11.69c0,4.44-2.34,6.92-6.92,7.49,0,1.91,0,3.91.19,6h-2.48c.1-1.81.14-3.82.14-6a9.64,9.64,0,0,1-5.1-1.57c-1.19-1-1.81-2.58-1.81-4.82,0-4.53,2.34-7,6.91-7.44,0-2.05,0-3.77-.19-5.2l2.53-.43c-.14,1.43-.19,3.34-.19,5.63a8.66,8.66,0,0,1,5,1.53c1.29,1,1.91,2.58,1.91,4.82m-9.06-4.72a5,5,0,0,0-3.39,1.24c-.81.76-1.24,2.1-1.24,4.06a5.19,5.19,0,0,0,1.24,3.91,6,6,0,0,0,3.39,1.38Zm6.77,5.3a5.48,5.48,0,0,0-1.19-3.91,5.66,5.66,0,0,0-3.43-1.38v10.59c3.05-.33,4.63-2.1,4.63-5.3m17.6-.29a7.39,7.39,0,0,1-2,5.49,6.71,6.71,0,0,1-4.77,2,6.12,6.12,0,0,1-4.39-1.76,6.48,6.48,0,0,1-1.81-4.91,7.32,7.32,0,0,1,2-5.49,6.64,6.64,0,0,1,4.77-2,6,6,0,0,1,4.39,1.77,6.67,6.67,0,0,1,1.81,5m-2.38.48a6.84,6.84,0,0,0-1-3.82,3.51,3.51,0,0,0-3.1-1.67,3.43,3.43,0,0,0-3,1.57,6.38,6.38,0,0,0-1,3.67,6.85,6.85,0,0,0,1,3.82,3.52,3.52,0,0,0,3.1,1.67,3.43,3.43,0,0,0,3-1.58,6.48,6.48,0,0,0,1-3.67m16.17,6.44h-2.43c.14-1.77.19-3.77.19-6.06h-6.53c0,2.05,0,4.05.19,6.06h-2.38c.14-1.86.19-3.91.19-6.3a37.44,37.44,0,0,0-.48-6.63l2.62-.38c0,.67-.1,2.48-.14,5.49h6.53a35.28,35.28,0,0,0-.48-5.1l2.67-.38c-.1,1.91-.19,4.25-.19,7,0,2.19.1,4.29.24,6.3m16.5-1.77c0,.48-.14,1.57-.33,3.34a32.18,32.18,0,0,0-.33,4.1h-1.62c0-1.15,0-3.1,0-5.77-1.24,0-3,0-5.25,0-1.48,0-3,0-4.67,0a41,41,0,0,0-.62,5.77h-1.67v-3.48c0-1.53,0-2.82,0-4H514a55.51,55.51,0,0,1,4.77-11.26h4l1.81-.29q-.14,2.86-.14,7c0,1.14.09,2.62.24,4.53Zm-4.67,0c-.1-1.76-.14-3.29-.14-4.53,0-1.81,0-3.48-.1-5h-2.43c-.52,1-1.19,2.39-2,4.1a33.22,33.22,0,0,0-1.86,5.44Z"/><path d="M222.41,26s12.16,11,13.49,20.37C238,60.51,238,72.63,218.5,88c-6.82,5.39-21,16.51-24.75,24.33-14.83,30.44,12.45,42,12.45,42l-1.81-10,18,3.29s-25.66-8-10.21-33.4c4.05-6.68,13.92-19,19.65-24.38,13.88-13,16.21-28.67,11.49-45.61C240,32.13,225,23.82,225,23.82Z" style="fill-rule:evenodd"/><path d="M203.86,151.07c-3.39-2.15-8.77-6.44-11.3-13.31-2.67-7.16-1.76-15.46,2.72-24.67,3.62-7.44,17.6-18.46,24.27-23.71,20.22-15.93,20.12-29,18.07-43.23-1.14-8-9.25-16.7-12.64-20l.19-.14c3.34,2.05,13.83,9.26,16.5,18.75,5,17.89,1.38,32.2-11,43.85-5.58,5.25-15.64,17.75-19.93,24.71-5.1,8.45-6.49,16-4.05,22.47a20.68,20.68,0,0,0,6.1,8.35l-10.54-1.91Z" style="fill:#d45a4c;fill-rule:evenodd"/><path d="M252.36,28.07C253.5,20.63,246.3,4.7,240,.59c-1.34-.81-2.67-1.15-3.05,1.38-.24,1.81.62,5.25-.57,8.35-5.29,14-52.46,29.1-52.46,29.1l2.29,5s42.54-25.33,56.51-20c3.1,1.19,5.1,4.06,6.63,5.06,2.15,1.43,2.81.19,3.05-1.38" style="fill-rule:evenodd"/><path d="M186.12,40.43c2.24-.76,6.48-2.24,11.59-4.2-4.86,2.48-8.77,4.72-10.83,5.92Zm64.52-12.07c-.1,0-.24-.14-.43-.24a16.53,16.53,0,0,1-1.53-1.38,15.6,15.6,0,0,0-5.44-3.87A14.58,14.58,0,0,0,238,22c-5.05,0-11.49,1.72-18.17,4.2,8.68-4.68,16-10,18-15.32a16.75,16.75,0,0,0,.67-6.68,13.69,13.69,0,0,1,0-2,4.46,4.46,0,0,1,.1-.48l.43.24c5.87,3.77,12.73,19,11.68,25.86a5.17,5.17,0,0,1-.09.52" style="fill:#9a6b48;fill-rule:evenodd"/><path d="M186.93,45.25c.71-.29.57-2.1-.29-4s-2.15-3.24-2.86-3-.53,2.15.33,4.06,2.15,3.24,2.81,2.91" style="fill-rule:evenodd"/><path d="M238.91,2.5a.85.85,0,0,0,.14.19c.14.14.29.33.48.57.43.48,1,1.19,1.57,2.05s1.34,1.81,2.05,2.91,1.38,2.34,2,3.58c.29.62.62,1.19.91,1.86s.57,1.19.81,1.81a16.3,16.3,0,0,1,.67,1.76c.19.57.38,1.1.52,1.58s.24,1,.33,1.38.19.81.24,1.1c.1.57.14.91.14.91s-.1-.33-.24-.91c-.1-.29-.19-.62-.33-1s-.33-.81-.52-1.29-.43-1-.67-1.53a13.17,13.17,0,0,0-.86-1.62c-.29-.57-.67-1.14-1-1.72s-.71-1.15-1.1-1.72c-.76-1.1-1.57-2.2-2.39-3.15s-1.57-1.86-2.29-2.62-1.24-1.34-1.67-1.77c-.19-.19-.38-.33-.48-.43l-.19-.19Z" style="fill-rule:evenodd"/><path d="M49.74,40.71c-20.46,5.11-33-3.77-28,7,2.05,4.39,10.68,15.6,31.14,10.54s51.4-16.94,50.55-21.76-33.24-.91-53.69,4.2" style="fill-rule:evenodd"/><path d="M39.2,57.56C27.62,56,23.47,47.82,23,46.92a7.53,7.53,0,0,1-.91-2.82c.67-.48,3.53-.33,6.1-.19A67.17,67.17,0,0,0,50,42.38C65.67,38.52,89.7,35,99.19,36.28a8.79,8.79,0,0,1,2.58.62c-.86,1-4.2,4-17.5,9.3A261.06,261.06,0,0,1,52.56,56.55a36.31,36.31,0,0,1-13.35,1" style="fill:#d19c4f;fill-rule:evenodd"/><path d="M74.92,45.53a2.29,2.29,0,0,1-1-.38,4.09,4.09,0,0,1-.76-.48L69.2,46.2c-3.48,1.34-8.2,3-13,4.25-1.19.33-2.38.67-3.58,1s-2.34.52-3.48.72a47.38,47.38,0,0,1-6.2.81c-1,0-1.77,0-2.53,0a17.22,17.22,0,0,1-1.91-.19,11.71,11.71,0,0,1-1.24-.19,3.25,3.25,0,0,1-.43-.1,3.25,3.25,0,0,0,.43.1,8.85,8.85,0,0,0,1.19.29,16.78,16.78,0,0,0,2,.24c.72,0,1.57.1,2.53.1a53.91,53.91,0,0,0,6.29-.48l3.48-.57c1.19-.24,2.43-.48,3.62-.76,4.86-1.1,9.63-2.48,13.21-3.67s5.91-2,5.91-2l0-.19a1.91,1.91,0,0,1-.52,0" style="fill:#f2dc93;fill-rule:evenodd"/><path d="M64.48,37.57c11.21-6.3,47.3-18.13,59.42-7.78,3.34,2.82-2.29,12.88,1.57,14.41,14.88,6,30.61,26.62,30.61,26.62S124,97.58,126.56,89.38c2.38-7.63-.57-13.07-2.67-16.41C105.63,43.58,49.5,46.06,64.48,37.57" style="fill-rule:evenodd"/><path d="M127.23,88.85a20.59,20.59,0,0,0-3.1-17c-11-17.7-34.48-22.9-49-26.81-4.67-1.24-10.4-3.29-11.92-4.39a11.88,11.88,0,0,1,2-1.48c8.92-5.06,33.52-13.41,48.88-11.4q5.87.79,9,3.44c.86.76.38,3.53,0,5.77-.57,3.39-1.29,7.63,1.91,8.92,12.06,4.87,25,19.94,28.85,24.67-10.16,8.4-22.7,16.79-26.61,18.32" style="fill:#d19c4f;fill-rule:evenodd"/><path d="M72,38.71a3.37,3.37,0,0,1,.48-.24,14.84,14.84,0,0,1,1.33-.71c.57-.24,1.34-.57,2.15-1s1.76-.76,2.81-1.1c.52-.19,1-.38,1.62-.57s1.14-.38,1.76-.57c1.19-.43,2.43-.76,3.77-1.15.67-.19,1.34-.33,2.05-.52s1.34-.38,2-.52c1.43-.29,2.81-.62,4.29-.86s2.86-.48,4.29-.72c.72-.1,1.38-.14,2.1-.24s1.38-.14,2-.19c1.38-.1,2.67-.19,3.91-.19h1.86c.57,0,1.15,0,1.67,0s1.1,0,1.57.1,1,.1,1.43.19a20.62,20.62,0,0,1,2.24.33l2,.38s-.72,0-2-.19a16.8,16.8,0,0,0-2.29-.1,13.13,13.13,0,0,0-1.38,0h-1.57c-.52,0-1.1,0-1.67,0s-1.19.1-1.81.1c-1.24,0-2.53.24-3.86.33l-4.15.57c-1.38.19-2.81.43-4.24.72s-2.86.52-4.24.81-2.77.62-4.1,1-2.58.62-3.82,1l-3.39,1c-1,.33-2,.62-2.86.91s-1.57.52-2.15.76c-1.24.43-1.91.72-1.91.72" style="fill:#f2dc93;fill-rule:evenodd"/><path d="M67.39,43.19a2.12,2.12,0,0,1-1-.38,2,2,0,0,1-.67-.43c-.91.38-2.15.86-3.58,1.38C59,44.91,54.7,46.39,50.32,47.49c-1.1.29-2.19.57-3.24.81s-2.15.48-3.2.62a37.85,37.85,0,0,1-5.67.67c-.86,0-1.62,0-2.29,0a15.54,15.54,0,0,1-1.76-.19c-.48,0-.86-.14-1.14-.19a3.65,3.65,0,0,1-.38-.1l.38.14c.29,0,.62.14,1.14.24s1,.14,1.72.24,1.48.1,2.34.1a42.6,42.6,0,0,0,5.72-.38c1-.14,2.1-.29,3.24-.48s2.19-.43,3.29-.67a118.72,118.72,0,0,0,12-3.2c3.29-1,5.44-1.81,5.44-1.81l0-.14Z" style="fill-rule:evenodd"/><path d="M118.79,77.83c-8.87,4.72-10.16,3.86-8.82,6.39s4.82,7.44,13.69,2.67,21.55-14.12,20.22-16.65-16.21,2.82-25.08,7.59" style="fill-rule:evenodd"/><path d="M117,87.28c-2.38,0-4.2-1.24-5.58-3.82,0-.1,0-.14-.1-.19.43-.24,1.15-.57,1.86-.91,1.48-.67,3.53-1.62,6.39-3.15,7.87-4.2,18.55-8,22.46-8h.09c-1.72,2.67-10.73,9.69-19.22,14.22A13,13,0,0,1,117,87.28" style="fill:#9a6b48;fill-rule:evenodd"/><path d="M107.49,74.54c-11,5.87-12.35,5.25-11.16,7.44s4.43,6.44,15.45.52,27-16.75,25.89-18.94-19.17,5.11-30.18,11" style="fill-rule:evenodd"/><path d="M102.34,83.89a4.67,4.67,0,0,1-4.58-2.62c.52-.33,1.57-.81,2.67-1.34,1.81-.86,4.34-2.1,7.82-4,9.54-5.11,21.84-10.11,26.85-11-3.34,3.34-14,10.73-24.13,16.17-3.43,1.81-6.34,2.77-8.63,2.77" style="fill:#9a6b48;fill-rule:evenodd"/><path d="M91.94,70.63C79,77.55,77.3,76.54,79,79.69S85.13,88.95,98,82s31.62-20.18,29.9-23.33-23,5-36,11.93" style="fill-rule:evenodd"/><path d="M87.75,83.56c-4.34,0-6.25-2.62-7.34-4.63a2.45,2.45,0,0,1-.24-.57c.53-.33,1.91-1,3.34-1.67,2.15-1,5.1-2.43,9.2-4.63,10.78-5.73,27.61-12.4,33.24-12.4h.33c-1.86,3.39-15.74,13.88-29,20.94-3.67,2-6.91,3-9.54,3" style="fill:#9a6b48;fill-rule:evenodd"/><path d="M77.35,66.72c-14.54,8.59-16.45,7.63-14.69,11s6.48,9.83,21,1.24,35.67-24.67,33.9-28-25.7,7.2-40.25,15.79" style="fill-rule:evenodd"/><path d="M71.34,81.46a7.69,7.69,0,0,1-7.25-4.58,5.5,5.5,0,0,1-.29-.62,36.75,36.75,0,0,1,4-2.24c2.43-1.29,5.72-3.05,10.35-5.77C90.56,60.89,110.07,52.07,115.79,52c-2.29,4-18,16.6-32.86,25.38-4.58,2.67-8.49,4.05-11.59,4.05" style="fill:#9a6b48;fill-rule:evenodd"/><path d="M55.89,64.33c-15.64,7.73-17.6,6.54-15.83,10.16s6.63,10.64,22.27,3S100.77,54.84,99,51.26,71.53,56.65,55.89,64.33" style="fill-rule:evenodd"/><path d="M50.17,79.26c-5.34,0-7.49-3.15-8.68-5.49-.19-.43-.29-.67-.33-.81a27.49,27.49,0,0,1,4.34-2.05c2.58-1.14,6.15-2.67,11.11-5.1C69.53,59.42,89.8,52,96.57,52c.33,0,.57,0,.76,0-.76,1.29-3.86,4.53-12.21,10.16A207.77,207.77,0,0,1,61.62,76c-4.43,2.2-8.3,3.29-11.44,3.29" style="fill:#9a6b48;fill-rule:evenodd"/><path d="M37.58,56.36c-21.84,7.25-36.53.57-29.9,10,2.67,3.77,13.3,13.17,35.14,6S97.43,50.3,96,45.91,59.47,49.16,37.58,56.36" style="fill-rule:evenodd"/><path d="M27.81,73.3C15,73.3,9.59,66.19,9,65.38c-1.14-1.62-1.29-2.29-1.29-2.48.67-.52,3.86-.72,6.63-.91a89.7,89.7,0,0,0,23.75-4.06C54.84,52.4,80.79,46.25,91.32,46.25a9.9,9.9,0,0,1,2.86.29c-.81,1-4.2,4.15-18.17,10.73A329.83,329.83,0,0,1,42.35,70.72,46.62,46.62,0,0,1,27.81,73.3" style="fill:#9a6b48;fill-rule:evenodd"/><path d="M65.67,57.79a3.3,3.3,0,0,1-1.19-.24,2.64,2.64,0,0,1-.86-.33c-1,.48-2.43,1.15-4.1,1.91-3.72,1.62-8.68,3.72-13.78,5.53L41.92,66c-1.24.38-2.53.76-3.72,1.1a57,57,0,0,1-6.77,1.48,21.22,21.22,0,0,1-2.72.33,11.41,11.41,0,0,1-2.15.1,12.08,12.08,0,0,1-1.34,0,4.09,4.09,0,0,0-.52,0,4.09,4.09,0,0,1,.52,0,8.57,8.57,0,0,0,1.34.1c.62,0,1.34,0,2.15,0s1.76-.1,2.77-.24a64.19,64.19,0,0,0,6.87-1.24c1.24-.29,2.53-.57,3.82-1s2.58-.71,3.86-1.1c5.2-1.62,10.3-3.53,14.07-5s6.25-2.62,6.25-2.62l0-.14a2.7,2.7,0,0,1-.62,0" style="fill:#edc459;fill-rule:evenodd"/><path d="M83.79,59.85a.43.43,0,0,0-.24,0l-3.48,2.48c-2.81,2-6.58,4.53-10.49,6.87-2,1.15-4,2.29-5.91,3.24-1,.52-1.86,1-2.77,1.38s-1.72.76-2.53,1.05c-.43.14-.81.29-1.19.43a8.9,8.9,0,0,0-1,.33q-1,.29-1.72.43a7,7,0,0,1-1.19.14,2.18,2.18,0,0,1-.38,0h.38c.29,0,.67,0,1.19-.14s1.1-.19,1.76-.33l1.1-.29c.38-.14.76-.24,1.14-.38.86-.29,1.72-.57,2.62-1S63,73.3,63.9,72.87c2-.91,4-1.91,6.06-3,4.05-2.2,8-4.58,10.87-6.44s4.82-3.2,4.82-3.2l-.19-.29a2.85,2.85,0,0,1-1.67-.1" style="fill:#edc459;fill-rule:evenodd"/><path d="M98.24,63.14c-.53.48-1.67,1.43-3.2,2.67-.57.43-1.14.91-1.81,1.38s-1.34,1-2,1.53S89.75,69.77,89,70.29s-1.53,1.05-2.34,1.58-1.57,1-2.38,1.53-1.57.91-2.34,1.38-1.57.81-2.29,1.19l-2.05,1c-.67.29-1.24.48-1.81.72s-1,.33-1.38.48c-.81.19-1.24.33-1.24.33l1.24-.29a10.71,10.71,0,0,0,1.43-.38c.57-.19,1.19-.38,1.86-.62s1.38-.52,2.15-.86,1.53-.67,2.34-1.05,1.62-.81,2.43-1.24,1.67-.91,2.48-1.38,1.67-1,2.48-1.48,1.57-1,2.29-1.43,1.48-1,2.15-1.43,1.33-.91,1.91-1.34c2.34-1.62,3.86-2.82,3.86-2.82L99,63.28a2.24,2.24,0,0,1-.81-.14" style="fill:#edc459;fill-rule:evenodd"/><path d="M111.83,68.86c-.33.29-1,.81-1.72,1.43s-1.43,1.14-2.24,1.77-1.72,1.24-2.67,1.86c-.43.29-.91.57-1.38.86s-.91.52-1.38.81-.91.48-1.29.72-.86.38-1.19.57-.76.29-1.1.38a3.34,3.34,0,0,1-.81.29c-.48.14-.72.24-.72.24s.24,0,.72-.19c.24,0,.52-.1.86-.19s.72-.24,1.1-.38.81-.29,1.24-.48.91-.38,1.38-.62l1.43-.72c.48-.29,1-.52,1.48-.81,1-.57,1.91-1.15,2.76-1.72s1.72-1.1,2.39-1.58c1.38-1,2.29-1.67,2.29-1.67l-.33-.38a2.25,2.25,0,0,1-.81-.19" style="fill:#edc459;fill-rule:evenodd"/><path d="M119.94,74.06c-.33.24-.72.48-1.14.81-1,.76-2.48,1.72-4,2.62-.76.48-1.48.91-2.19,1.29-.38.19-.72.38-1,.57s-.67.29-1,.43-.57.24-.81.33a2.06,2.06,0,0,1-.67.19,3.25,3.25,0,0,1-.57.19s.24,0,.62-.1c.14,0,.38-.1.67-.19s.52-.14.86-.24.62-.24,1-.38l1-.43c.76-.33,1.57-.72,2.34-1.1,1.57-.76,3.1-1.62,4.24-2.29l1.29-.72a2.43,2.43,0,0,1-.71-1" style="fill:#edc459;fill-rule:evenodd"/><path d="M125.8,81.41h0a7.66,7.66,0,0,1-.86.48,4.74,4.74,0,0,1-.81.52l-.91.48c-.29.14-.53.29-.86.43s-.52.24-.81.33a7.89,7.89,0,0,1-.76.29l-1.57.48,1.67-.24a2.8,2.8,0,0,0,.81-.19c.29,0,.57-.14.86-.19a7.52,7.52,0,0,0,1-.33,7.68,7.68,0,0,0,1-.33,8.08,8.08,0,0,0,1-.38,7.51,7.51,0,0,0,.91-.38,2.67,2.67,0,0,1-.52-1" style="fill:#edc459;fill-rule:evenodd"/><path d="M53.46,51.69c11.59-7.25,49.93-22.61,64.23-14.5,4,2.24-1.24,12.26,3.2,13.22,16.93,3.77,36.29,20.94,36.29,20.94s-32.43,28.82-30.42,20.85c1.81-7.35-2-12-4.58-14.88C99.1,52.21,37.92,61.37,53.46,51.69" style="fill-rule:evenodd"/><path d="M127.47,91.62c1.53-8.11-3.15-13.21-5.2-15.41C108.4,61.13,82.17,59.13,65.86,57.32c-5.29-.62-11.73-1.81-13.54-2.62a15,15,0,0,1,2-1.62c9.2-5.77,35.34-16.55,52.31-16.55,4.39,0,7.82.72,10.25,2.1,1,.57.81,3.24.62,5.34-.24,3.2-.57,7.25,3.05,8C134.29,55,150,67.48,154.7,71.39c-10.25,9-23.13,18.37-27.23,20.23" style="fill:#9a6b48;fill-rule:evenodd"/><path d="M61.76,51.83l.48-.29c.33-.19.81-.48,1.43-.81S65,50,65.91,49.59s1.86-1,3-1.38c.52-.24,1.15-.48,1.72-.76s1.24-.48,1.86-.72c1.29-.52,2.62-1,4.05-1.53l2.15-.71c.71-.29,1.48-.52,2.24-.76,1.48-.43,3-.91,4.58-1.33l4.63-1.14c.76-.19,1.53-.33,2.29-.48s1.48-.33,2.19-.43c1.53-.24,2.91-.52,4.29-.67.72-.1,1.34-.14,2-.24l1.86-.14c.57,0,1.19-.1,1.72-.1s1,0,1.57,0c1,0,1.81,0,2.53,0l2.15.14s-.76,0-2.15.1a16.33,16.33,0,0,0-2.53.14l-1.53.14c-.57,0-1.1.14-1.72.19s-1.19.14-1.81.24-1.29.24-2,.33c-1.38.19-2.77.52-4.2.81s-3,.62-4.48,1-3.05.72-4.58,1.15-3.1.86-4.58,1.34-3,.86-4.39,1.34S74,47,72.73,47.49s-2.48.86-3.62,1.29-2.1.86-3,1.19-1.67.67-2.34,1c-1.29.57-2,.91-2,.91" style="fill:#edc459;fill-rule:evenodd"/><path d="M69.48,52.88,71,52.12l1.72-.86c.67-.33,1.38-.67,2.24-1a28,28,0,0,1,2.67-1.14c1-.38,2-.76,3.05-1.19s2.15-.71,3.29-1.1,2.24-.76,3.43-1,2.34-.67,3.43-1,2.34-.57,3.43-.81,2.15-.48,3.15-.67,2-.29,2.91-.43a11.89,11.89,0,0,1,1.29-.19,9.21,9.21,0,0,1,1.15-.1c.71-.1,1.38-.14,1.91-.19,1-.1,1.62-.1,1.62-.1s-.57.14-1.62.33c-.48.1-1.1.19-1.86.33s-1.53.29-2.39.52-1.81.43-2.81.62-2.05.52-3.15.81l-3.34.86c-1.15.33-2.29.62-3.43,1s-2.29.72-3.43,1.05-2.24.67-3.29,1-2.1.67-3.05,1-1.91.67-2.72,1-1.62.57-2.34.81-1.29.48-1.76.67c-1,.38-1.57.57-1.57.57" style="fill:#edc459;fill-rule:evenodd"/><path d="M77.11,54.17s.43-.24,1.19-.62c.33-.14.81-.38,1.34-.62s1.15-.52,1.77-.81,1.38-.57,2.15-.91,1.57-.62,2.43-.91,1.72-.62,2.62-.91,1.77-.62,2.72-.86S93.14,48,94,47.78s1.81-.48,2.72-.67c1.72-.43,3.39-.72,4.77-1a17.47,17.47,0,0,1,2-.29c.57-.1,1.1-.14,1.53-.19l1.29-.14s-.48.14-1.29.33l-1.43.38c-.57.14-1.19.29-1.91.48s-1.43.38-2.19.62-1.62.43-2.48.67-1.76.48-2.62.76-1.81.52-2.72.81-1.86.52-2.72.81-1.81.52-2.62.81-1.67.52-2.48.76-1.48.48-2.19.72-1.29.38-1.81.57-1,.38-1.43.48l-1.29.43" style="fill:#edc459;fill-rule:evenodd"/><path d="M84.46,55.65s1.33-.67,3.34-1.57c.53-.19,1-.48,1.62-.72s1.24-.43,1.86-.67,1.34-.48,2.05-.72l2-.71,2.15-.57c.71-.19,1.38-.33,2-.53a16.21,16.21,0,0,1,2-.43c.62-.14,1.19-.24,1.76-.33,2.15-.38,3.62-.52,3.62-.52s-1.38.48-3.48,1.15c-.52.14-1.1.29-1.72.48s-1.24.38-1.91.57-1.34.43-2,.62-1.38.43-2.1.62-1.38.43-2.1.67-1.34.43-2,.62-1.29.38-1.91.52-1.19.38-1.72.52c-2.1.67-3.53,1-3.53,1" style="fill:#edc459;fill-rule:evenodd"/><path d="M91,57.51s1.1-.57,2.81-1.34a13.48,13.48,0,0,1,1.38-.57A12,12,0,0,1,96.81,55c.52-.19,1.1-.38,1.67-.62s1.19-.38,1.76-.57,1.19-.33,1.81-.48,1.19-.33,1.72-.48,1.1-.29,1.67-.38,1-.19,1.48-.24c1.86-.33,3.1-.48,3.1-.48s-1.19.48-3,1c-.43.14-.91.33-1.43.48s-1,.33-1.57.52-1.14.33-1.72.52-1.19.33-1.76.52-1.19.38-1.76.53-1.14.38-1.72.52-1.1.33-1.62.48-1,.29-1.43.38c-1.81.52-3,.76-3,.76" style="fill:#edc459;fill-rule:evenodd"/><path d="M98.67,59s.91-.48,2.34-1.1c.71-.33,1.57-.67,2.48-1,.43-.14.91-.33,1.38-.48s1-.33,1.48-.48l1.48-.43c.48-.14,1-.24,1.48-.33a20.79,20.79,0,0,1,2.58-.52c1.53-.24,2.58-.33,2.58-.33s-1,.43-2.43,1c-.33.1-.76.24-1.14.38s-.86.29-1.34.43l-1.43.43c-.48.14-1,.29-1.43.48l-1.48.43c-.48.14-1,.24-1.43.38s-.91.24-1.34.38l-1.24.29a24.34,24.34,0,0,1-2.53.52" style="fill:#edc459;fill-rule:evenodd"/><path d="M104.49,61.18a21.26,21.26,0,0,1,2-1c.62-.29,1.33-.57,2.1-.86a11.86,11.86,0,0,1,1.19-.43c.43-.14.86-.29,1.29-.48a13,13,0,0,0,1.29-.33l1.24-.29c.81-.19,1.57-.33,2.24-.43C117.12,57.13,118,57,118,57a20.64,20.64,0,0,1-2.05.91c-.62.24-1.33.52-2.15.76a8.8,8.8,0,0,1-1.19.38c-.43.14-.86.24-1.24.38a12.79,12.79,0,0,1-1.29.38c-.43.14-.81.24-1.24.38-.76.19-1.53.38-2.19.52a16.58,16.58,0,0,1-2.19.43" style="fill:#edc459;fill-rule:evenodd"/><path d="M110.06,63.42a13.68,13.68,0,0,1,1.76-.91c.52-.24,1.15-.53,1.81-.76s1.38-.52,2.1-.81l2.19-.57c.71-.14,1.38-.29,2-.38,1.14-.19,2-.24,2-.24s-.71.38-1.76.86c-.52.19-1.19.48-1.86.72s-1.38.48-2.15.67-1.43.48-2.15.67-1.38.33-1.91.48a15,15,0,0,1-2,.29" style="fill:#edc459;fill-rule:evenodd"/><path d="M114.79,66s.67-.38,1.72-.91c.52-.24,1.1-.53,1.76-.76s1.38-.57,2.1-.81,1.43-.43,2.15-.62,1.34-.29,1.91-.43a18.8,18.8,0,0,1,1.91-.24s-.72.38-1.72.86c-.52.24-1.14.48-1.81.71s-1.38.52-2.1.72a21.28,21.28,0,0,1-2.1.67,12.33,12.33,0,0,1-1.91.48,11.76,11.76,0,0,1-1.91.33" style="fill:#edc459;fill-rule:evenodd"/><path d="M118.7,68.81a12.8,12.8,0,0,1,1.62-.91L122,67.1c.67-.24,1.34-.52,2-.76s1.38-.48,2.05-.72,1.34-.33,1.86-.48c1.1-.24,1.86-.33,1.86-.33a14.83,14.83,0,0,1-1.67,1,15.27,15.27,0,0,1-1.72.76c-.67.29-1.33.57-2,.81s-1.43.48-2.1.67a17.76,17.76,0,0,1-1.86.48c-1.1.24-1.81.33-1.81.33" style="fill:#edc459;fill-rule:evenodd"/><path d="M122.37,71.73a15.07,15.07,0,0,1,1.67-1,15.38,15.38,0,0,1,1.76-.86,20.38,20.38,0,0,1,2.05-.91c.72-.29,1.43-.52,2.1-.76s1.34-.43,1.86-.57a17.66,17.66,0,0,1,1.91-.38s-.62.43-1.62,1c-.53.24-1.15.53-1.81.86s-1.33.57-2.05.86-1.43.52-2.1.76-1.34.43-1.91.57a15.92,15.92,0,0,1-1.86.38" style="fill:#edc459;fill-rule:evenodd"/><path d="M126,74.73a13.54,13.54,0,0,1,1.57-1l1.72-.91c.62-.29,1.29-.62,2-.91s1.34-.57,2-.81,1.24-.48,1.76-.67a16.88,16.88,0,0,1,1.81-.48A13.41,13.41,0,0,1,135.29,71c-.48.29-1,.62-1.67,1s-1.29.67-2,1-1.38.52-2,.76-1.29.43-1.81.62c-1.1.29-1.86.43-1.86.43" style="fill:#edc459;fill-rule:evenodd"/><path d="M128.66,78.12s.67-.48,1.67-1a7.67,7.67,0,0,0,.86-.48l.91-.48c.67-.33,1.34-.71,2.05-1s1.38-.67,2.1-1c.29-.14.62-.29,1-.43s.57-.24.86-.38a13.26,13.26,0,0,1,1.86-.67s-.57.53-1.53,1.24c-.53.33-1,.72-1.72,1.1s-1.34.72-2,1.1-1.43.62-2.1.91-1.34.48-1.91.67c-1.14.33-2,.48-2,.48" style="fill:#edc459;fill-rule:evenodd"/><path d="M129.28,82.17l.62-.33c.24-.1.48-.19.76-.33s.62-.29,1-.48a12.11,12.11,0,0,0,1.14-.52c.43-.19.81-.43,1.29-.62s.86-.48,1.33-.67.91-.43,1.38-.72l1.38-.71,1.29-.72a10.38,10.38,0,0,0,1.24-.72c.38-.24.72-.43,1-.62a5,5,0,0,0,.91-.57,7.17,7.17,0,0,1,.71-.43l.62-.38a5.52,5.52,0,0,1-.48.52,6.2,6.2,0,0,1-.57.62,6.28,6.28,0,0,1-.81.76c-.29.24-.62.52-1,.81a13,13,0,0,1-1.19.81,15.14,15.14,0,0,1-1.29.86c-.43.24-.91.48-1.38.76s-1,.48-1.43.67-.91.43-1.38.62-.91.33-1.38.48a8.45,8.45,0,0,1-1.19.38c-.76.24-1.43.38-1.86.48s-.71,0-.71,0" style="fill:#edc459;fill-rule:evenodd"/><path d="M57.18,56.55A5.87,5.87,0,0,1,55.32,56c-1,.48-2.24,1.05-3.77,1.72-3.39,1.48-8,3.34-12.59,4.91-1.19.43-2.34.81-3.48,1.14s-2.34.67-3.43,1c-2.24.57-4.34,1-6.15,1.29-.91.14-1.76.24-2.53.29s-1.38.1-1.91.1-1,0-1.24,0a3.2,3.2,0,0,0-.48,0,3.2,3.2,0,0,1,.48,0c.29,0,.72.1,1.24.1s1.19,0,2,0,1.57-.1,2.48-.19a61,61,0,0,0,6.25-1c1.14-.24,2.34-.52,3.48-.86s2.38-.67,3.58-1c4.72-1.38,9.4-3.1,12.88-4.44S57.8,56.6,57.8,56.6l0-.14a2.43,2.43,0,0,1-.57.09" style="fill-rule:evenodd"/><path d="M79.69,59c-.1,0-.19,0-.29-.09-.86.57-2.1,1.33-3.62,2.24-2.91,1.77-6.87,4.1-10.92,6.15-2.05,1-4.1,2.05-6.1,2.91q-1.43.64-2.86,1.15c-.91.33-1.81.67-2.62.91-.38.1-.81.24-1.14.33s-.76.19-1.1.24c-.67.14-1.29.29-1.76.33s-.91.1-1.19.1h0c.29,0,.67,0,1.19,0A9.05,9.05,0,0,0,51,73c.38,0,.72-.14,1.1-.19l1.24-.29c.81-.24,1.72-.48,2.67-.81s1.91-.62,2.91-1c2-.76,4.15-1.62,6.25-2.62,4.2-1.91,8.25-4,11.3-5.68s5-2.86,5-2.86l-.19-.29A3.12,3.12,0,0,1,79.69,59" style="fill-rule:evenodd"/><path d="M94.61,62.09c-.53.43-1.62,1.34-3.05,2.48-.52.43-1.1.86-1.72,1.34s-1.24,1-1.91,1.43-1.38,1-2.1,1.53l-2.19,1.48-2.29,1.43c-.72.48-1.48.86-2.19,1.29s-1.48.76-2.15,1.14-1.38.62-2,.91-1.19.43-1.72.67-1,.33-1.34.43c-.76.24-1.19.33-1.19.33L72,76.26a9.65,9.65,0,0,0,1.38-.33c.52-.19,1.1-.33,1.76-.57s1.29-.52,2-.81,1.48-.67,2.24-1,1.53-.76,2.29-1.19,1.57-.86,2.34-1.29,1.57-.91,2.34-1.38,1.48-1,2.19-1.38,1.38-1,2-1.38,1.24-.86,1.77-1.24C94.57,64.09,96,63,96,63l-.67-.81a3.65,3.65,0,0,1-.71-.1" style="fill-rule:evenodd"/><path d="M149.79,74.73a.58.58,0,0,1-.1-.14c0-.1-.14-.19-.24-.33s-.57-.72-1-1.29l-.86-.86c-.33-.33-.67-.67-1-1a25.61,25.61,0,0,0-2.58-2.29q-.72-.64-1.57-1.29c-.53-.38-1.1-.86-1.67-1.29s-1.19-.86-1.86-1.29-1.24-.91-1.91-1.34-1.38-.86-2.05-1.34L132.72,61c-.72-.43-1.48-.86-2.19-1.29s-1.48-.86-2.24-1.24c-1.53-.81-3-1.67-4.53-2.39s-3-1.53-4.43-2.2-2.86-1.34-4.2-2a4.2,4.2,0,0,1-2.34-3.43,19.93,19.93,0,0,1,.29-3.53,4.68,4.68,0,0,0-.19-2.62,2.48,2.48,0,0,0-1.33-1.1A3.18,3.18,0,0,0,111,41a3.18,3.18,0,0,1,.57.19,2.44,2.44,0,0,1,1.38,1,5,5,0,0,1,.29,2.72,13.62,13.62,0,0,0-.14,3.48,3.43,3.43,0,0,0,.62,1.77,4.28,4.28,0,0,0,1.57,1.34c1.34.62,2.81,1.24,4.24,1.86s3,1.34,4.53,2.05,3.05,1.53,4.63,2.29c.76.38,1.53.76,2.24,1.19s1.53.81,2.29,1.19l2.15,1.29c.76.38,1.43.81,2.15,1.24l2,1.29c.67.43,1.29.86,1.91,1.29s1.19.86,1.76,1.24,1.1.81,1.62,1.24q1.5,1.22,2.72,2.29c.38.33.76.67,1.1,1l.91.91c.52.52.91,1,1.19,1.34a1.41,1.41,0,0,0,.33.38.58.58,0,0,0,.09.14Z" style="fill-rule:evenodd"/><path d="M108.49,67.15c-.53.43-1.34,1.15-2.48,2.05l-3.1,2.43c-1.19.86-2.48,1.76-3.77,2.58-.62.48-1.29.86-2,1.29s-1.29.76-1.91,1.14-1.24.67-1.86,1-1.19.57-1.72.81-1,.38-1.48.57a8,8,0,0,1-1.14.38c-.67.19-1,.33-1,.33l1-.24c.33-.1.76-.19,1.19-.33s1-.29,1.53-.48,1.14-.43,1.76-.72,1.29-.52,2-.86,1.34-.67,2-1,1.38-.72,2.05-1.1c1.38-.81,2.72-1.62,4-2.39s2.38-1.57,3.34-2.24c1.91-1.38,3.2-2.34,3.2-2.34l-.48-.52a3.33,3.33,0,0,1-1.1-.29" style="fill-rule:evenodd"/><path d="M117.65,72.68c-.38.29-.91.67-1.53,1.1-1.34,1-3.2,2.2-5.06,3.34-.91.57-1.86,1.14-2.76,1.62-.43.24-.91.48-1.34.67a6.71,6.71,0,0,1-1.19.57,7.89,7.89,0,0,1-1,.43,4.51,4.51,0,0,1-.86.29c-.48.14-.72.19-.72.19l.76-.14a2.84,2.84,0,0,0,.81-.19c.33-.1.71-.19,1.1-.33s.81-.29,1.24-.48.91-.33,1.38-.52c1-.43,2-.91,3-1.38,2-1,4-2.05,5.39-2.91s2.39-1.38,2.39-1.38l-.14-.19a2.13,2.13,0,0,1-1.43-.67" style="fill-rule:evenodd"/><path d="M124.13,78.93l-.33.24a10.14,10.14,0,0,1-.91.71c-.38.33-.91.62-1.38,1-.29.14-.57.33-.81.48a8.25,8.25,0,0,1-.86.52,4.93,4.93,0,0,0-.86.48,5.21,5.21,0,0,1-.91.38l-.81.38a4.91,4.91,0,0,1-.76.29l-1.57.48,1.67-.24a2.24,2.24,0,0,0,.76-.19c.29,0,.62-.14.91-.19a3248.19,3248.19,0,0,1,1.91-.67c.33-.1.67-.24,1-.33s.62-.29.91-.43c.57-.29,1.14-.52,1.57-.76a6.86,6.86,0,0,0,1.1-.62,2.73,2.73,0,0,1,.33-.19,2.8,2.8,0,0,1-.91-1.34" style="fill-rule:evenodd"/><path d="M22.51,150.64C31,141.52,35.87,132.27,33.43,130s-11.25,3.29-19.74,12.4S.34,160.8,2.82,163.09s11.25-3.34,19.69-12.45" style="fill-rule:evenodd"/><path d="M4.3,161.42c-.19-1.62,2.43-8.3,11-17.51s15-12.36,16.64-12.26c.19,1.62-2.43,8.3-11,17.51S6,161.51,4.3,161.42" style="fill:#d45a4c;fill-rule:evenodd"/><path d="M20.32,132.55c8.49-9.16,13.35-18.37,10.92-20.66S20,115.24,11.5,124.35-1.81,142.72.63,145s11.25-3.29,19.69-12.4" style="fill-rule:evenodd"/><path d="M2.15,143.34c-.19-1.62,2.43-8.3,11-17.51s15-12.36,16.59-12.26c.24,1.62-2.43,8.3-11,17.51s-15,12.36-16.59,12.26" style="fill:#d45a4c;fill-rule:evenodd"/><path d="M16.41,87C5,110.32,11.17,184.8,36.77,194.34,63.57,168,163.62,164.57,184.74,80c2.48-9.92-7.49-18.94-13.4-19.89-6.72-1-17.88,9.88-23.37,13.93C111.73,100.88,49.65,97.92,16.41,87" style="fill-rule:evenodd"/><path d="M36.3,191.76c-5.63-2.67-10.63-9.3-14.64-19.32-10.44-26.14-10.82-66.22-4.1-82.82,15.35,4.77,34.72,7.49,53.6,7.49,31.81,0,59.56-7.59,78.11-21.33,1.19-.86,2.58-2,4.2-3.29,4.91-4.1,12.4-10.26,16.93-10.26a2.5,2.5,0,0,1,.62,0c2.58.38,6.77,3.05,9.54,7.16a12.64,12.64,0,0,1,2.1,10.07c-6.29,25.19-20.22,45.28-42.58,61.31-19.46,13.93-42,22.57-61.85,30.2-17.64,6.78-33,12.69-41.92,20.75" style="fill:#d19c4f;fill-rule:evenodd"/><path d="M36.3,191.76c-5.63-2.67-10.63-9.3-14.64-19.32-10.44-26.14-10.82-66.22-4.1-82.82,15.35,4.77,34.72,7.49,53.6,7.49,31.81,0,59.56-7.59,78.11-21.33,1.19-.86,2.58-2,4.2-3.29,4.91-4.1,12.4-10.26,16.93-10.26a2.5,2.5,0,0,1,.62,0c2.58.38,6.77,3.05,9.54,7.16a12.64,12.64,0,0,1,2.1,10.07c-6.29,25.19-20.22,45.28-42.58,61.31-19.46,13.93-42,22.57-61.85,30.2-17.64,6.78-33,12.69-41.92,20.75" style="fill:#d19c4f;fill-rule:evenodd"/><path d="M62.86,94.77a200.67,200.67,0,0,1-30.38-3.63c-6.53,25.71-1.53,77.72,16,94.94,7.91-4.29,17.93-8.21,28.85-12.4-12.49-17.32-17.17-53.77-14.5-78.91" style="fill-rule:evenodd"/><path d="M48.93,183.41c-7.06-7.87-12.64-23-15.36-41.94-2.43-17.22-2.24-35.26.57-47.81a195.34,195.34,0,0,0,26.37,3.15c-2.15,24.38,2.24,57.87,13.54,75.81-9.87,3.82-18.17,7.16-25.13,10.78" style="fill:#d45a4c;fill-rule:evenodd"/><path d="M58,99.73a1.84,1.84,0,0,0-3.67,0,1.84,1.84,0,1,0,3.67,0" style="fill:#ebb375;fill-rule:evenodd"/><path d="M57.8,107.27A1.84,1.84,0,1,0,56,109.13a1.85,1.85,0,0,0,1.81-1.86" style="fill:#ebb375;fill-rule:evenodd"/><path d="M57.85,114.62A1.84,1.84,0,1,0,56,116.48a1.86,1.86,0,0,0,1.86-1.86" style="fill:#ebb375;fill-rule:evenodd"/><path d="M58.18,121.82a1.84,1.84,0,1,0-1.86,1.86,1.82,1.82,0,0,0,1.86-1.86" style="fill:#ebb375;fill-rule:evenodd"/><path d="M58.85,128.93A1.86,1.86,0,1,0,57,130.79a1.85,1.85,0,0,0,1.86-1.86" style="fill:#ebb375;fill-rule:evenodd"/><path d="M59.8,136a1.86,1.86,0,1,0-1.86,1.86A1.89,1.89,0,0,0,59.8,136" style="fill:#ebb375;fill-rule:evenodd"/><path d="M61.09,143a1.86,1.86,0,1,0-1.86,1.86A1.89,1.89,0,0,0,61.09,143" style="fill:#ebb375;fill-rule:evenodd"/><path d="M62.71,149.87a1.84,1.84,0,0,0-3.67,0,1.84,1.84,0,1,0,3.67,0" style="fill:#ebb375;fill-rule:evenodd"/><path d="M64.76,156.79a1.84,1.84,0,1,0-1.86,1.86,1.86,1.86,0,0,0,1.86-1.86" style="fill:#ebb375;fill-rule:evenodd"/><path d="M67.2,163.71a1.86,1.86,0,1,0-1.86,1.86,1.85,1.85,0,0,0,1.86-1.86" style="fill:#ebb375;fill-rule:evenodd"/><path d="M70,170.67a1.89,1.89,0,0,0-1.86-1.86,1.86,1.86,0,0,0,0,3.72A1.89,1.89,0,0,0,70,170.67" style="fill:#ebb375;fill-rule:evenodd"/><path d="M38.2,97.92a1.86,1.86,0,1,0-1.86,1.81,1.86,1.86,0,0,0,1.86-1.81" style="fill:#ebb375;fill-rule:evenodd"/><path d="M37.63,104.41a1.84,1.84,0,1,0-1.81,1.81,1.82,1.82,0,0,0,1.81-1.81" style="fill:#ebb375;fill-rule:evenodd"/><path d="M37.39,111.13a1.86,1.86,0,1,0-1.86,1.81,1.86,1.86,0,0,0,1.86-1.81" style="fill:#ebb375;fill-rule:evenodd"/><path d="M37.44,118.05a1.86,1.86,0,1,0-1.86,1.81,1.86,1.86,0,0,0,1.86-1.81" style="fill:#ebb375;fill-rule:evenodd"/><path d="M37.77,125.06a1.86,1.86,0,1,0-1.86,1.86,1.85,1.85,0,0,0,1.86-1.86" style="fill:#ebb375;fill-rule:evenodd"/><path d="M38.39,132.17A1.84,1.84,0,1,0,36.53,134a1.82,1.82,0,0,0,1.86-1.86" style="fill:#ebb375;fill-rule:evenodd"/><path d="M39.35,139.33a1.86,1.86,0,1,0-1.86,1.86,1.89,1.89,0,0,0,1.86-1.86" style="fill:#ebb375;fill-rule:evenodd"/><path d="M40.63,146.44a1.86,1.86,0,1,0-1.86,1.81,1.86,1.86,0,0,0,1.86-1.81" style="fill:#ebb375;fill-rule:evenodd"/><path d="M42.21,153.4a1.82,1.82,0,0,0-1.86-1.81,1.84,1.84,0,1,0,0,3.67,1.83,1.83,0,0,0,1.86-1.86" style="fill:#ebb375;fill-rule:evenodd"/><path d="M44.12,160.27a1.84,1.84,0,1,0-1.81,1.86,1.85,1.85,0,0,0,1.81-1.86" style="fill:#ebb375;fill-rule:evenodd"/><path d="M46.4,167a1.86,1.86,0,0,0-1.86-1.86,1.84,1.84,0,0,0,0,3.67A1.85,1.85,0,0,0,46.4,167" style="fill:#ebb375;fill-rule:evenodd"/><path d="M49,173.3a1.86,1.86,0,1,0-1.86,1.86A1.85,1.85,0,0,0,49,173.3" style="fill:#ebb375;fill-rule:evenodd"/><path d="M52,179.41a1.84,1.84,0,1,0-3.67,0,1.84,1.84,0,0,0,3.67,0" style="fill:#ebb375;fill-rule:evenodd"/><path d="M30,152.78c.14.43.24.86.38,1.19a6.76,6.76,0,0,1,.24.76,1.41,1.41,0,0,0,.19.38,8.72,8.72,0,0,0,.53,1.34c.09.24.14.43.24.62a3.73,3.73,0,0,0,.33.76c.1.24.19.48.29.67a3.45,3.45,0,0,0,.14.38,9.12,9.12,0,0,1,.33.91,5.73,5.73,0,0,0-.24-.91l-.67-2.43c0-.14-.1-.24-.14-.43-.1-.38-.24-.81-.38-1.29,0-.19-.1-.43-.14-.62-.1-.48-.19-1-.33-1.43,0-.29-.14-.52-.19-.81-.29-1.29-.62-2.67-.91-4.15a11.21,11.21,0,0,0-.24-1.33c-.1-.52-.19-1-.29-1.53-.19-1-.33-2.05-.48-3.05-.1-.62-.24-1.29-.33-1.91,0-.43-.1-.91-.19-1.38-.14-1.1-.24-2.24-.38-3.39-.1-.57-.19-1.14-.24-1.72a3.59,3.59,0,0,0,0-.72c0-.33,0-.72-.1-1.05-.09-1.19-.19-2.43-.33-3.62,0-1-.1-2.05-.14-3.05,0-.24,0-.43,0-.62,0-.62,0-1.24-.1-1.86,0,0,0-1.86,0-1.86,0-1.24,0-2.48-.1-3.72v-4.25c0-1,0-2.05.1-3.05v-1c0-.86,0-1.72.1-2.53.14-1.81.24-3.63.38-5.34,0-.43.1-.91.14-1.34.14-1.05.19-2.1.33-3.1s.29-2,.38-2.86c.09-.43,0-.52.14-1,.09,0-.91-.19-1.1-.19a2.45,2.45,0,0,1-.09.62c-.19,1-.38,1.91-.57,2.91-.1.48-.19,1-.24,1.43s-.19,1.1-.24,1.62c-.29,1.62-.43,3.29-.62,5,0,.62-.1,1.19-.14,1.77s-.1,1.34-.14,2-.1,1-.1,1.58-.09,1.19-.09,1.81a2.3,2.3,0,0,0,0,.57v1.24c0,1.24,0,2.48-.09,3.72s0,2.48.09,3.72c0,0,0,1.86,0,1.91,0,.62,0,1.24.09,1.86.1,1.24.19,2.48.24,3.72s.24,2.48.38,3.67v.14c0,.52.14,1.1.19,1.62s.14,1.19.24,1.77c0,.14,0,.29,0,.43.14,1,.29,2.05.43,3,.19,1.14.43,2.19.62,3.29a12.07,12.07,0,0,1,.24,1.29c.14.62.24,1.19.38,1.77s.33,1.29.48,1.91a5.58,5.58,0,0,0,.24,1,11,11,0,0,0,.33,1.34,12.75,12.75,0,0,0,.33,1.29c.29.86.52,1.67.81,2.38,0,.14,0,.19.1.24M21,162c.38,1,.71,1.91.91,2.48s.33.91.33.91-.1-.33-.24-.91-.38-1.48-.71-2.58c-.14-.57-.33-1.19-.48-1.86s-.33-1.43-.52-2.19c-.33-1.58-.72-3.34-1-5.25-.19-1-.33-2-.52-3.05s-.29-2.15-.48-3.24-.33-2.24-.48-3.43-.24-2.38-.33-3.63c-.1-.57-.14-1.19-.19-1.81s-.1-1.29-.14-1.91c-.1-1.24-.19-2.53-.29-3.82s-.1-2.58-.14-3.91c0-.67,0-1.29-.1-2v-2c0-1.29,0-2.62,0-3.91s0-2.62.1-3.91,0-2.58.14-3.82.1-2.53.19-3.77c.24-2.43.33-4.82.67-7.06.14-1.1.24-2.2.38-3.24s.33-2.05.48-3c.1-.48.14-1,.24-1.43s.19-.91.29-1.38c.14-.72.29-1.48.43-2.15L18.84,90c-.19.72-.43,1.43-.62,2.2S17.74,94,17.55,95s-.43,2-.67,3-.33,2.15-.52,3.29c-.38,2.24-.62,4.63-.91,7.11-.09,1.19-.14,2.48-.29,3.77,0,.62,0,1.24-.1,1.91s0,1.29-.1,2c0,1.29,0,2.62-.1,3.91v4l0,2c0,.67,0,1.33.1,2,0,1.34.1,2.62.19,4s.19,2.58.33,3.82c0,.67.1,1.29.14,1.91s.19,1.24.24,1.86c.14,1.24.33,2.43.48,3.63s.38,2.34.57,3.48.38,2.2.62,3.24.48,2.05.67,3c.1.48.24,1,.33,1.43a10.87,10.87,0,0,0,.33,1.34c.24.86.52,1.67.72,2.48s.43,1.48.62,2.15.52,1.29.72,1.86m2-70.8c-.1.38-.19.72-.29,1.1a3.08,3.08,0,0,1-.19.62c-.09.43-.19.86-.29,1.33,0,.19,0,.38-.1.57-.1.43-.19.81-.29,1.24s-.19,1-.29,1.53-.14,1-.19,1.43c0,.14,0,.29-.1.48s-.09.72-.14,1c-.24,1.57-.43,3.15-.62,4.82,0,.48-.09,1-.14,1.48V107c-.09.62-.09,1.29-.14,1.91s0,1-.09,1.53a.7.7,0,0,0,0,.33,14.33,14.33,0,0,1-.09,1.43v.57a9.54,9.54,0,0,0,0,1.19v.81c0,.91,0,1.86-.1,2.77v1.34c0,.76,0,1.53,0,2.29V123c0,.29,0,1.53.1,1.81v.24c0,.52,0,1,.09,1.62q.07,1.22.14,2.43c0,.38,0,.76,0,1.19.09.91.19,1.86.29,2.77v.14c0,.24,0,.43,0,.67L20.7,135c0,.19,0,.38,0,.57,0,.48.14.91.19,1.34,0,.14,0,.29,0,.38v.1c.14,1.1.29,2.2.48,3.29s.38,2.24.57,3.34a13.89,13.89,0,0,1,.24,1.38c.14.57.24,1.19.38,1.77s.33,1.33.48,2a6.94,6.94,0,0,0,.24,1c.1.48.19.91.29,1.38s.24.86.38,1.29c.24.86.48,1.67.76,2.43a.44.44,0,0,0,0,.24c.14.43.24.81.38,1.19a4.25,4.25,0,0,0,.24.71,1.53,1.53,0,0,0,.14.43c.19.48.33,1,.48,1.38a2.91,2.91,0,0,1,.24.57c.09.29.24.57.33.81a5.7,5.7,0,0,1,.24.67,1.72,1.72,0,0,1,.19.43c.19.52.33.86.33.86s-.1-.33-.24-.91-.38-1.43-.71-2.48c0-.14-.1-.29-.14-.48-.1-.43-.24-.86-.33-1.34a3,3,0,0,1-.14-.62,13.36,13.36,0,0,1-.33-1.48c-.09-.29-.14-.57-.24-.86q-.43-1.93-.86-4.29c-.09-.48-.19-.91-.24-1.38s-.19-1-.29-1.53c-.19-1.05-.33-2.1-.48-3.2-.1-.62-.19-1.29-.29-2a13.64,13.64,0,0,1-.19-1.38c-.14-1.14-.29-2.29-.38-3.48-.1-.57-.14-1.19-.24-1.81a3.6,3.6,0,0,0,0-.72,8.45,8.45,0,0,0-.09-1.1l-.29-3.72c0-1.14-.1-2.29-.14-3.48a2.92,2.92,0,0,1,0-.67c0-.38,0-.76,0-1.15a4.88,4.88,0,0,1,0-.81v-1.05a5.18,5.18,0,0,0,0-1c0-.91,0-1.81,0-2.72v-1.24c0-.81,0-1.62,0-2.43V113.8a2.7,2.7,0,0,1,0-.62,14.26,14.26,0,0,1,0-1.43c0-.62,0-1.24,0-1.81,0-.38,0-.72,0-1.1a2.92,2.92,0,0,1,0-.62c0-.67,0-1.38.1-2.1.14-1.53.24-3.05.38-4.53l.14-1.14L22.56,99a1.49,1.49,0,0,0,0-.48c.14-1,.29-1.91.38-2.82.09-.48.14-.91.24-1.38a11.31,11.31,0,0,1,.24-1.24c0-.14,0-.29,0-.43.1-.48.14-.81.24-1.29Z" style="fill:#f2dc93;fill-rule:evenodd"/><path d="M157.27,72.73a5,5,0,0,0-.48-.57l-.52-.67a4,4,0,0,0-.38-.57c-.09.1-.24.19-.33.29a.48.48,0,0,0-.24.19,5.51,5.51,0,0,0,.52.53,7.29,7.29,0,0,1,.62.57c.19.19.43.33.57.48a12.79,12.79,0,0,0,1.1.86,12.88,12.88,0,0,0-.86-1.1" style="fill:#f2dc93;fill-rule:evenodd"/><path d="M152.79,73.11a2,2,0,0,0,.19.48c.14.19.29.33.43.52s.38.43.52.62l.67.67a1.25,1.25,0,0,1,.24.29c.33.29.62.52.86.76a4.27,4.27,0,0,1,.48.43c.19.14.29.24.43.33.52.43.81.62.81.62s-.24-.29-.62-.71l-.29-.43c-.14-.14-.24-.29-.38-.43s-.19-.29-.33-.48-.33-.43-.48-.67-.19-.24-.29-.38c-.24-.33-.48-.62-.72-1a1.19,1.19,0,0,0-.19-.33,4.73,4.73,0,0,1-.52-.81h0a.17.17,0,0,0-.14,0c-.19.14-.43.29-.62.43" style="fill:#f2dc93;fill-rule:evenodd"/><path d="M155.41,80.27c-.14-.19-.29-.43-.48-.67-.38-.52-.81-1-1.24-1.67s-.86-1.29-1.33-2c-.38-.48-.72-1-1.1-1.62v0c-.24.14-.43.29-.67.43l-.43.33c.38.52.81,1,1.19,1.57.29.33.52.67.81,1s.57.62.81.91c.52.57,1,1,1.48,1.48a8,8,0,0,1,.67.57c.19.19.38.33.53.48.72.57,1.1.86,1.1.86s-.29-.38-.86-1.1a5.12,5.12,0,0,0-.48-.57M67.58,98.11l0-1c-.86,0-1.72,0-2.58,0a5.34,5.34,0,0,1-.09.86,1.46,1.46,0,0,1,0,.48c0,.33,0,.62,0,1-.09.91-.14,1.86-.24,2.82s0,1.91-.1,2.86c0,.1-.1,1.38,0,1.48v1.48c0,1,0,2,.09,3s.1,1.91.14,2.86v.1c0,.43,0,.91.1,1.34s.1.91.14,1.38v.33c.09.81.19,1.57.24,2.34s.29,1.76.38,2.62l.14,1c.09.48.14,1,.24,1.43s.19,1,.29,1.53l.14.72c.1.38.14.72.24,1.1a7.58,7.58,0,0,0,.24,1c.29.81.53,1.62.81,2.34,0,0,0,.1.09.19l.43,1.14c.1.24.19.48.29.67a3.44,3.44,0,0,0,.14.38c.24.48.43.91.62,1.29.1.19.14.38.24.57a5.72,5.72,0,0,1,.38.76c.1.19.24.38.33.57a2.89,2.89,0,0,0,.19.38c.29.52.43.81.43.81s0-.24-.19-.72l-.43-1.91a2.89,2.89,0,0,1-.09-.33c0-.29-.14-.62-.24-1,0-.14,0-.33-.1-.48-.09-.38-.14-.76-.24-1.15,0-.19,0-.43-.1-.62-.19-1-.43-2.1-.57-3.24,0-.33-.09-.67-.14-1a9.53,9.53,0,0,1-.19-1.14c-.09-.76-.19-1.58-.33-2.39,0-.48-.1-1-.14-1.48a7.91,7.91,0,0,1-.09-1c-.1-.86-.19-1.77-.24-2.62,0-.48-.1-.91-.14-1.38v-.52a5.26,5.26,0,0,1,0-.86c0-.91-.1-1.86-.14-2.77s0-1.57-.1-2.39v-.48c0-.48,0-1,0-1.43,0,0,0-1.33,0-1.43,0-1,0-1.91,0-2.86s0-1.86.1-2.82v-.43c0-.81.09-1.57.14-2.34,0-.24,0-.52,0-.76m2.34-1,0,.62c0,.14,0,.29,0,.43s0,.53,0,.81c-.09.86-.14,1.72-.19,2.62v.24c0,.33-.09,1.14,0,1.48a5.74,5.74,0,0,0,0,.91v3.58c0,.62,0,1.24.09,1.86,0,.33,0,.72,0,1.1v.1c0,.48,0,.91.1,1.34v.19c0,.43,0,.81.1,1.24a.61.61,0,0,0,0,.29,7.1,7.1,0,0,0,.1,1v.33a5.93,5.93,0,0,1,.09.91c0,.48.1,1,.19,1.43s.09.71.14,1l.14,1c0,.14,0,.29,0,.43,0,.33.09.62.14,1v.1a13.33,13.33,0,0,1,.24,1.34c0,.24.1.53.14.76s.1.43.14.67,0,.24.1.38,0,.24,0,.33l.14.72c0,.1,0,.19.1.29.09.33.19.62.29,1s.29.86.43,1.24c0,.1,0,.14.1.24l.29.72a.18.18,0,0,0,0,.14c0,.14.1.24.14.38l.29.72a1.72,1.72,0,0,0,.19.43.36.36,0,0,0,.09.19,3.26,3.26,0,0,0,.14.38c.14.29.24.52.38.76a1.69,1.69,0,0,0,.19.43s0,.14,0,.19a1.15,1.15,0,0,1,.19.33c.1.14.14.33.24.48s0,.14.09.24a4.19,4.19,0,0,1,.24.38.36.36,0,0,0,.1.19.37.37,0,0,1,.1.24s0,0,.1.1c.24.48.38.71.38.71s0-.19-.14-.62-.24-1-.43-1.86c0-.1,0-.19-.1-.29-.09-.33-.14-.67-.24-1a1.72,1.72,0,0,0-.09-.48c0-.33-.14-.71-.19-1.1a2.41,2.41,0,0,1-.09-.62c-.19-.91-.38-2-.57-3.1a7.2,7.2,0,0,0-.14-1l-.14-1.15c-.14-.72-.19-1.48-.29-2.29,0-.48-.14-1-.19-1.38a7.75,7.75,0,0,0-.1-1.05c0-.81-.14-1.67-.19-2.53a11.67,11.67,0,0,1-.1-1.34,1.78,1.78,0,0,1,0-.52c0-.24,0-.53,0-.76q-.07-1.29-.14-2.58V111c0-.57,0-1.19,0-1.81v-1.1a2.7,2.7,0,0,1,0-.62v-1.34a6.94,6.94,0,0,0,0-1c0-.52,0-1,0-1.57v-1.38a9.71,9.71,0,0,0,0-1.19.92.92,0,0,1,0-.38,11.56,11.56,0,0,1,0-1.29v-.48c0-.14,0-.24,0-.38v-.72l0-.71Zm8.25,30.49a2.72,2.72,0,0,1,.19.38q.29.72.57,1.29l.29.57a5.17,5.17,0,0,1,.38.72c.1.24.24.43.33.62a1.45,1.45,0,0,1,.19.38c.29.48.43.76.43.76s0-.24-.14-.62a15.41,15.41,0,0,0-.38-1.76c0-.1,0-.24-.09-.33,0-.29-.14-.62-.19-1a1.42,1.42,0,0,1-.09-.43c0-.33-.14-.72-.19-1l-.14-.57c-.14-1-.33-2-.48-3l-.14-1a10.31,10.31,0,0,0-.19-1.1c-.09-.71-.14-1.43-.24-2.19,0-.43-.1-.91-.14-1.38a5.83,5.83,0,0,1-.1-1c-.1-.81-.14-1.62-.19-2.48a10,10,0,0,1-.09-1.24,1.77,1.77,0,0,1,0-.52c0-.24,0-.48,0-.76,0-.86,0-1.72-.1-2.58s0-1.48,0-2.19a1.78,1.78,0,0,0,0-.48v-1.29c0-.1,0-1.24,0-1.34,0-.91,0-1.77,0-2.67s0-1.72.09-2.58v-.43c0-.48,0-.91,0-1.38-.91,0-1.86,0-2.81.1l-.14,1.43c0,.86-.1,1.76-.14,2.62a13.63,13.63,0,0,1,0,1.38v1.38c0,.91,0,1.81,0,2.72s.09,1.81.14,2.72v.1c0,.38,0,.81,0,1.19a11.65,11.65,0,0,1,.1,1.29.94.94,0,0,1,0,.33c0,.76.14,1.48.19,2.24s.24,1.62.33,2.38l.14,1c0,.43.14.86.19,1.29l.29,1.43c0,.24.1.48.1.67a9.07,9.07,0,0,1,.19,1c.1.33.14.67.24,1,.29.81.57,1.62.86,2.34,0,0,0,.14,0,.19a11.56,11.56,0,0,1,.48,1.14,5.76,5.76,0,0,1,.24.67m1.57-30.63,0,.62a3.88,3.88,0,0,1,0,.67,3,3,0,0,0,0,.67,13.31,13.31,0,0,0,0,1.38c0,.14,0,.29,0,.43a11.77,11.77,0,0,1,0,1.29v1.29c0,.81,0,1.62.1,2.43v.1c0,.43,0,.81,0,1.19s0,.91.1,1.34v.29c0,.33,0,.67.09,1a10,10,0,0,0,.1,1.24v.29c.1.62.14,1.29.24,1.91,0,.14,0,.33,0,.48,0,.33.09.71.14,1s0,.38.09.57,0,.57.1.86a9.45,9.45,0,0,1,.19,1.14c0,.14,0,.29.1.43s.09.53.14.76l.14.72a.43.43,0,0,0,0,.24,3.73,3.73,0,0,1,.1.71.29.29,0,0,1,0,.19c.1.24.14.48.24.72.19.62.43,1.19.62,1.72,0,.1,0,.14,0,.19a2.21,2.21,0,0,0,.14.33c0,.1,0,.14.09.19.1.24.14.48.24.67a1.65,1.65,0,0,1,.19.43.68.68,0,0,1,.1.29,1,1,0,0,1,.19.38c0,.14.14.24.19.38.14.33.29.62.43.91l.14.29a2.25,2.25,0,0,1,.14.33s.1.14.14.19l.29.57s0,.1,0,.14a4.32,4.32,0,0,0,.29.48s0,0,0,.1a1,1,0,0,0,.19.29v0c.29.48.43.76.43.76s0-.19-.14-.62-.19-1-.38-1.72c0-.1,0-.19,0-.29-.1-.29-.14-.57-.24-.91a1.38,1.38,0,0,0-.1-.43l-.14-1-.14-.57c-.14-.91-.33-1.86-.48-2.91,0-.29-.09-.62-.14-.91s-.1-.72-.14-1.05c-.1-.72-.14-1.43-.24-2.15l-.14-1.29a6.56,6.56,0,0,1-.09-1c0-.72-.14-1.48-.19-2.24v-.24c0-.29,0-.57-.09-.91v-.43a1.61,1.61,0,0,1,0-.48v-.19c0-.19,0-.43,0-.62,0-.57,0-1.19-.1-1.77V107c0-.38,0-.76,0-1.15v-1.1c0-.14,0-.33,0-.52a10.93,10.93,0,0,0,0-1.24,13.57,13.57,0,0,0,0-1.38v-1c0-.57,0-1.1,0-1.62,0-.24,0-.52,0-.76v-.38c0-.38,0-.72,0-1.1-1,.1-2,.14-3,.19m5-.29,0,.67a11,11,0,0,0,0,1.24v3.82c0,.86.1,1.72.1,2.53v.1c0,.38,0,.76.09,1.14a11.07,11.07,0,0,0,.1,1.19v.29c0,.67.14,1.38.19,2.05s.19,1.53.29,2.24c0,.33.1.62.14.91s.1.81.14,1.24a12.18,12.18,0,0,1,.24,1.29c0,.24.09.43.14.67a5,5,0,0,0,.19.91,5,5,0,0,0,.19.91q.43,1.22.86,2.29c0,.1,0,.14,0,.19.19.43.33.81.48,1.14s.19.48.29.67a2.74,2.74,0,0,1,.19.38c.19.48.43.91.62,1.29a5.19,5.19,0,0,0,.29.53,3.75,3.75,0,0,0,.38.76,6.18,6.18,0,0,0,.33.57,2.8,2.8,0,0,0,.19.38c.29.48.48.76.48.76l-.14-.57c-.09-.38-.19-1-.38-1.62,0-.1,0-.19,0-.29a5.07,5.07,0,0,1-.19-.91,1.11,1.11,0,0,1-.09-.38c0-.33-.14-.67-.19-1,0-.14,0-.33-.1-.52-.14-.86-.33-1.77-.48-2.77,0-.29-.1-.57-.14-.91l-.14-1c-.09-.67-.14-1.34-.24-2.05,0-.43-.09-.81-.14-1.24s0-.62-.09-.91c0-.72-.1-1.48-.19-2.24a9.43,9.43,0,0,0-.09-1.19v-.48c0-.19,0-.48,0-.72,0-.76,0-1.57-.1-2.38s0-1.34-.09-2V102c0-.14,0-1.15,0-1.24V98.3c0-.67,0-1.29.09-1.91-1,.1-2,.14-3.05.24m5-.43,0,.19v.33c0,.24,0,1,0,1.19v1.19c0,.76,0,1.53.1,2.29v.1c0,.38,0,.76,0,1.1s0,.81.1,1.24v.1a.36.36,0,0,0,0,.19,5.15,5.15,0,0,0,0,.86,9.42,9.42,0,0,1,.1,1.14c0,.1,0,.19,0,.29,0,.67.14,1.29.19,1.91,0,.33.09.67.14,1s.09.72.14,1.05a.43.43,0,0,1,0,.24c0,.19,0,.38.1.62s.1.48.14.76c0,.1,0,.19,0,.29s0,.29.1.38c0,.29.1.57.14.81a.17.17,0,0,0,0,.14c0,.14,0,.33,0,.48a1.4,1.4,0,0,1,.1.48.7.7,0,0,1,.1.33,6.76,6.76,0,0,1,.24.76c.19.52.38,1,.57,1.53,0,.1.1.14.1.19s.09.24.14.38,0,.1.09.14c.1.29.19.52.29.76a.83.83,0,0,1,.1.24,4.61,4.61,0,0,1,.24.52s0,0,0,.1a2.31,2.31,0,0,0,.14.33l.62,1.24a6.35,6.35,0,0,0,.29.57c.14.24.29.52.38.72s.29.43.38.62.14.24.19.33l.48.76s0-.19-.14-.52-.19-.91-.33-1.57c0-.1,0-.19-.1-.29s-.09-.52-.19-.86a1.47,1.47,0,0,0-.1-.38c0-.29-.09-.57-.14-.91s-.09-.33-.14-.53c-.14-.81-.29-1.72-.43-2.67l-.14-.86c0-.33-.1-.62-.14-1-.14-.67-.19-1.29-.29-2,0-.43-.1-.81-.14-1.24s0-.52-.1-.86c0-.67-.14-1.34-.19-2.05v-.24c0-.29,0-.52-.1-.81a1,1,0,0,0,0-.38v-.48c0-.1,0-.14,0-.19v-.52c0-.57-.1-1.1-.1-1.67a4.09,4.09,0,0,1,0-.76c0-.38,0-.71,0-1.1v-.38c0-.19,0-.38,0-.57v-.52c0-.24,0-.91,0-1.15a10.68,10.68,0,0,0,0-1.24V95.91l-3,.29m5-.52v.19c0,.81,0,1.57,0,2.38s.1,1.53.14,2.29v.1c0,.33,0,.72.1,1a9.45,9.45,0,0,1,.1,1.1c0,.1,0,.19,0,.29,0,.67.14,1.29.19,1.91s.19,1.38.29,2.1c0,.24.1.52.14.81s.14.76.19,1.15a10.48,10.48,0,0,1,.24,1.19c0,.19.09.43.14.62l.14.86a4.09,4.09,0,0,1,.19.81c.33.81.62,1.57,1,2.29,0,0,0,.14,0,.19a11.68,11.68,0,0,1,.48,1.15,3,3,0,0,1,.33.67c0,.1.14.24.19.33.19.48.43.91.62,1.29a5.29,5.29,0,0,1,.29.52l.43.72c.14.24.24.43.33.57s.19.29.24.38a6.81,6.81,0,0,1,.48.76s0-.19-.1-.52-.24-.86-.38-1.53a.37.37,0,0,0-.09-.24,5.09,5.09,0,0,0-.19-.81.89.89,0,0,0-.1-.38c0-.29-.1-.57-.14-.91a1.72,1.72,0,0,1-.1-.48c-.19-.81-.38-1.62-.52-2.58a5.26,5.26,0,0,0-.1-.81c0-.29-.14-.62-.19-.91-.1-.62-.14-1.24-.24-1.86,0-.38-.1-.76-.14-1.19,0-.24-.1-.52-.14-.81,0-.67-.14-1.38-.19-2.05a8.45,8.45,0,0,1-.09-1.1,1.31,1.31,0,0,1,0-.43c0-.19,0-.43,0-.62,0-.76-.09-1.48-.19-2.24s0-1.24-.1-1.86v-.33c0-.38,0-.76,0-1.14a9.34,9.34,0,0,0,0-1.15V95.25l-3.15.43m5.1-.76v.38c0,.52.1,1.1.14,1.62a5.14,5.14,0,0,0,0,.86v0c0,.38,0,.76.09,1.14v0c0,.33,0,.62.1,1v.19a.6.6,0,0,1,0,.29,1.61,1.61,0,0,1,0,.48.52.52,0,0,1,0,.24l.14,1.29c0,.14,0,.29.09.38,0,.62.19,1.24.29,1.81,0,.29.1.52.14.81a8,8,0,0,0,.19,1c.09.43.19.81.24,1.19l.14.57c0,.29.14.52.19.81a4.45,4.45,0,0,0,.19.76c.29.76.62,1.53.91,2.19,0,.1,0,.14.1.19s0,.14.1.19a5.17,5.17,0,0,0,.38.91l.14.29a1.2,1.2,0,0,0,.19.33,2.37,2.37,0,0,0,.14.33,2.92,2.92,0,0,1,.19.38c.19.33.33.62.52.91l.14.29.14.29c0,.1.1.14.14.24s.24.33.33.52,0,.1.1.14.19.33.29.48a.17.17,0,0,1,0,.1c.1.1.14.19.19.24s0,0,0,.1a7.15,7.15,0,0,0,.48.72s0-.19-.14-.52a11.09,11.09,0,0,0-.38-1.43,2.05,2.05,0,0,1,0-.24c0-.24-.14-.48-.19-.76a.88.88,0,0,1-.1-.33,5.48,5.48,0,0,1-.19-.86c0-.14-.1-.33-.14-.48-.14-.76-.33-1.53-.48-2.43a6,6,0,0,0-.19-.76c0-.29-.09-.57-.14-.91-.1-.57-.19-1.14-.29-1.76a8.8,8.8,0,0,1-.19-1.1c0-.24-.09-.52-.14-.76,0-.62-.14-1.29-.24-1.91v-.19a4.77,4.77,0,0,1-.09-.81.7.7,0,0,1,0-.33c0-.14,0-.29,0-.43a.17.17,0,0,0,0-.14,1.47,1.47,0,0,0,0-.48l-.14-1.57a3.43,3.43,0,0,0,0-.67c0-.33,0-.67,0-1a1,1,0,0,1,0-.38c0-.14,0-.29,0-.48v-.53a6.36,6.36,0,0,1,0-1s0,0,0-.1v-1a5.85,5.85,0,0,1,0-.91c-1,.19-2.05.38-3.1.52M105,94v.19c.1.72.14,1.43.24,2.1v.1a6.42,6.42,0,0,1,.1,1c0,.33.1.72.14,1.05a2,2,0,0,1,0,.24l.29,1.72c.1.67.19,1.29.33,1.91,0,.24.1.53.14.76s.14.67.24,1.05.14.72.24,1.1c0,.19.1.33.14.53s.14.52.19.76.14.53.19.76c.33.81.72,1.57,1,2.29,0,0,0,.1,0,.14l.57,1.14a3.91,3.91,0,0,0,.33.62,2.76,2.76,0,0,0,.19.38c.24.43.48.86.71,1.24a5.18,5.18,0,0,1,.29.52,6.19,6.19,0,0,1,.48.72,3.94,3.94,0,0,1,.38.57,1.46,1.46,0,0,1,.24.33c.33.48.52.72.52.72l-.14-.43c-.09-.33-.19-.81-.38-1.38,0-.1,0-.14,0-.24s-.14-.48-.24-.71,0-.24-.1-.33c0-.29-.14-.52-.19-.81s-.09-.29-.14-.48c-.14-.67-.38-1.43-.52-2.29l-.14-.72a5.51,5.51,0,0,1-.19-.86c-.14-.52-.24-1.1-.33-1.67a8,8,0,0,1-.19-1c0-.24-.1-.48-.14-.76l-.29-1.86c0-.33-.14-.67-.19-1a1.18,1.18,0,0,0,0-.38c0-.19,0-.38,0-.57-.1-.67-.19-1.34-.24-2s-.14-1.14-.19-1.72a.7.7,0,0,1,0-.33c0-.33,0-.67-.09-1a7.91,7.91,0,0,0-.1-1c0-.29,0-.57,0-.86-1,.19-2.05.43-3.05.62m5.2-1.14,0,.1a3.66,3.66,0,0,0,.1.71v0c0,.33.09.67.14,1,0,.1,0,.14,0,.19V95c0,.24.1.48.14.76v.1a.15.15,0,0,1,0,.1l.14.86s0,.14,0,.19l.14.72c0,.29.14.62.19.91s.14.62.24,1a4.55,4.55,0,0,0,.19.76l.14.72c0,.1,0,.19.09.29s.14.43.19.67a1.11,1.11,0,0,1,.1.38,2.31,2.31,0,0,1,.19.53v.1a2.33,2.33,0,0,1,.19.52.18.18,0,0,0,0,.14l.14.57a.15.15,0,0,1,0,.1c.1.19.14.38.24.57.29.67.62,1.29.91,1.86,0,0,0,.14.09.19a0,0,0,0,0,0,0s0,.1,0,.19c.19.29.33.62.52.91a.17.17,0,0,0,0,.1,2.61,2.61,0,0,1,.33.62,1.49,1.49,0,0,1,.24.33c.24.43.53.81.76,1.19.1.19.24.33.33.52s.33.48.48.67a4.37,4.37,0,0,1,.43.57c.1.1.19.24.29.33a5.9,5.9,0,0,0,.57.72,2.56,2.56,0,0,0-.19-.48,7.83,7.83,0,0,0-.38-1.14c0-.1,0-.14-.09-.24s0-.14,0-.19l-.14-.43a.68.68,0,0,1-.09-.29c0-.14-.1-.24-.14-.38a1.21,1.21,0,0,0-.1-.33l-.14-.43c0-.14-.09-.33-.14-.48-.14-.48-.29-1-.43-1.53a4.5,4.5,0,0,0-.19-.62c0-.1,0-.14,0-.24s-.1-.33-.14-.48,0-.19,0-.29c-.1-.29-.14-.57-.24-.86a.87.87,0,0,0-.09-.33c0-.29-.14-.62-.19-.91s-.09-.38-.14-.62-.14-.67-.24-1a2.39,2.39,0,0,1-.1-.57.36.36,0,0,1,0-.19c0-.24-.1-.43-.14-.67a.88.88,0,0,0-.1-.33,2.05,2.05,0,0,0-.09-.52,1.38,1.38,0,0,0-.1-.43c0-.33-.1-.67-.14-1a.53.53,0,0,1,0-.24.17.17,0,0,1,0-.14c0-.19,0-.43-.1-.62s-.1-.48-.14-.76V96c0-.29-.1-.57-.14-.91,0,0,0,0,0-.14s0-.57-.1-.72c0-.38-.1-.72-.14-1,0-.1,0-.24,0-.33s0-.29,0-.43l0-.29-3.1.71m5.2-1.29.19.91v.1a5.51,5.51,0,0,1,.19.86,6.3,6.3,0,0,1,.24.91c0,.1,0,.14,0,.24l.43,1.57c.14.57.33,1.1.48,1.67,0,.24.14.48.19.67a5.05,5.05,0,0,0,.33.91,8.16,8.16,0,0,0,.33,1,2,2,0,0,0,.19.48,4.15,4.15,0,0,0,.24.72c.09.19.14.43.24.62.43.81.81,1.53,1.24,2.19a.25.25,0,0,0,.1.19c.19.38.43.71.62,1a7,7,0,0,0,.43.62,1.66,1.66,0,0,0,.24.38,7,7,0,0,0,.81,1.15l.38.52c.14.24.33.43.48.67s.33.38.48.52.19.24.29.33c.38.43.57.67.57.67l-.14-.43c-.1-.29-.29-.67-.48-1.19,0,0,0-.1-.1-.19s-.19-.38-.29-.62a.68.68,0,0,0-.1-.29l-.29-.72-.14-.43c-.24-.57-.48-1.29-.72-2-.1-.19-.14-.43-.24-.62a3.55,3.55,0,0,0-.24-.76c-.14-.48-.29-1-.48-1.48a6.93,6.93,0,0,1-.24-1c-.1-.19-.14-.43-.24-.62-.14-.57-.29-1.14-.43-1.67a6.32,6.32,0,0,1-.24-.91,3,3,0,0,1-.1-.33c0-.19-.1-.33-.14-.53-.14-.57-.29-1.19-.43-1.76a14.23,14.23,0,0,0-.33-1.53c0-.1,0-.19,0-.33a5,5,0,0,1-.19-.91c-.1-.14-.1-.76-.19-.91l-.14-.57c-.91.29-1.86.57-2.81.81m5.2-1.53c0,.19.1.38.14.52v.1c0,.24.14.52.19.81l.29.86s0,.14,0,.19A13.34,13.34,0,0,0,121.7,94a15.38,15.38,0,0,0,.52,1.58c.1.24.14.43.24.67a6.19,6.19,0,0,0,.33.86c.09.29.24.62.33.91a3.28,3.28,0,0,1,.19.48c.09.24.19.43.29.67l.29.57q.64,1.15,1.29,2.15s0,.14.1.19c.24.33.48.72.71,1l.43.57a1.66,1.66,0,0,0,.24.38c.29.38.57.76.86,1.1s.29.33.38.48l.52.67a5.41,5.41,0,0,0,.53.52c.09.1.19.24.29.29.38.43.62.67.62.67a2.19,2.19,0,0,0-.19-.38c-.09-.24-.29-.62-.52-1.1a.36.36,0,0,0-.1-.19,2.92,2.92,0,0,0-.24-.57l-.14-.29c-.1-.19-.19-.43-.29-.62a3.44,3.44,0,0,0-.14-.38c-.24-.57-.53-1.19-.81-1.91,0-.19-.14-.38-.19-.57l-.29-.72c-.19-.48-.33-.91-.52-1.38a6.42,6.42,0,0,0-.33-.86c0-.24-.14-.43-.19-.62-.19-.52-.33-1-.52-1.57a7.27,7.27,0,0,1-.24-.81c0-.1-.1-.24-.14-.33s-.1-.33-.14-.48c-.14-.57-.33-1.14-.48-1.67l-.43-1.43c0-.1,0-.19,0-.29-.1-.29-.14-.57-.24-.86s-.09-.72-.19-.86a4.51,4.51,0,0,1-.19-.76c-.91.33-1.81.62-2.72.91m5.15-1.76.1.43,0,0a6.78,6.78,0,0,0,.24.76c.1.29.19.52.29.81,0,0,0,.14,0,.19.19.48.33,1,.52,1.38s.38,1,.57,1.48a3.32,3.32,0,0,1,.24.62c.14.29.24.53.38.81s.24.57.38.86.14.29.19.43.19.38.29.62.19.33.29.57c.48.72.91,1.43,1.38,2.1l.14.14c.24.33.48.71.71,1a3.07,3.07,0,0,0,.48.62,2,2,0,0,1,.24.33c.29.38.62.76.91,1.1.14.14.29.33.43.48s.38.43.57.62a4.38,4.38,0,0,0,.48.48l.33.33c.43.38.67.62.67.62a2.37,2.37,0,0,1-.19-.38c-.14-.19-.29-.57-.57-1,0,0,0-.1-.09-.19a5.16,5.16,0,0,1-.29-.53,1.07,1.07,0,0,1-.14-.24c-.1-.19-.19-.38-.29-.62a1.17,1.17,0,0,0-.19-.33c-.24-.52-.53-1.1-.81-1.77a5.27,5.27,0,0,1-.29-.52c-.1-.24-.19-.43-.29-.67s-.38-.86-.57-1.29a5.79,5.79,0,0,0-.33-.81c-.1-.19-.14-.38-.24-.57l-.57-1.43c-.09-.29-.19-.52-.29-.76s0-.19-.1-.29a3.16,3.16,0,0,1-.19-.48l-.57-1.57c-.14-.43-.29-.86-.43-1.34,0-.1-.09-.14-.09-.24-.1-.29-.19-.57-.29-.81s-.14-.67-.24-.81c-.14-.38-.24-.76-.38-1.14-.81.33-1.67.62-2.48,1m5.05-2,.14.33v0a.29.29,0,0,1,0,.19,0,0,0,0,1,0,0,4.68,4.68,0,0,1,.19.48.36.36,0,0,0,.1.24,4.93,4.93,0,0,0,.19.48s0,.14,0,.19,0,.1.1.14,0,.14,0,.19c.14.33.29.62.43.91a1.72,1.72,0,0,0,.19.43,7.37,7.37,0,0,0,.38.91,4.55,4.55,0,0,1,.24.52l.29.57a.36.36,0,0,1,.1.19c.1.19.19.33.29.52l.14.29c.09.14.14.29.24.43v0c.1.14.14.29.24.43a.17.17,0,0,1,0,.1c.1.14.14.29.24.43a.16.16,0,0,0,0,.1l.29.43A19.84,19.84,0,0,0,136,96.53s0,.1.1.14a1.48,1.48,0,0,1,.24.33.67.67,0,0,1,.14.19c.14.14.24.29.38.43a4.44,4.44,0,0,0,.43.57c.1.1.19.24.29.33l.19.19a2,2,0,0,1,.24.33,6.73,6.73,0,0,1,.57.62l.33.33.14.14.29.29a2.92,2.92,0,0,0,.38.38s.1.14.19.19a2.19,2.19,0,0,1,.33.33s.1.1.14.1l.24.24s0,0,.1,0c.43.38.62.57.62.57s0-.1-.19-.33-.29-.52-.53-.91c0,0-.09-.14-.14-.19a2.49,2.49,0,0,0-.29-.48c0-.1-.1-.14-.14-.24a3.55,3.55,0,0,0-.33-.57,2.43,2.43,0,0,1-.14-.33c-.29-.48-.62-1-.91-1.57-.1-.19-.19-.33-.29-.52l-.29-.57c-.19-.38-.43-.76-.62-1.19a.15.15,0,0,0,0-.1c-.1-.19-.19-.38-.29-.62,0,0,0-.1-.1-.14s-.1-.24-.14-.33-.1-.14-.1-.24c-.19-.33-.33-.72-.52-1a2.43,2.43,0,0,0-.14-.33c0-.1-.1-.24-.14-.33l-.14-.29s0-.1,0-.14l-.14-.29c0-.14-.14-.29-.19-.43s-.29-.62-.43-1-.14-.38-.19-.57l-.29-.57a.37.37,0,0,0-.09-.24,1.44,1.44,0,0,0-.19-.48.37.37,0,0,0-.09-.24c-.1-.19-.14-.43-.24-.67,0,0,0-.14-.1-.19a2,2,0,0,0-.19-.48,13.16,13.16,0,0,0-.48-1.24v-.1l0-.14c-.76.33-1.57.67-2.34,1m10.92,8.16c.29.33.52.67.81,1A5.51,5.51,0,0,0,143,96a2.07,2.07,0,0,0,.29.33c.33.38.67.72,1,1a4.27,4.27,0,0,0,.48.43c.19.19.43.38.62.57s.38.33.52.48.24.19.38.29a7.33,7.33,0,0,0,.72.57,1.18,1.18,0,0,1-.19-.29c-.14-.19-.33-.48-.62-.86,0,0,0-.1-.09-.14s-.19-.29-.33-.48-.1-.14-.14-.19a3.19,3.19,0,0,0-.33-.52c0-.1-.14-.19-.19-.29a13.65,13.65,0,0,1-.91-1.48,2.31,2.31,0,0,1-.29-.43,3.53,3.53,0,0,1-.33-.57c-.24-.33-.43-.72-.67-1.1-.14-.19-.24-.43-.38-.67s-.19-.33-.29-.48c-.24-.38-.43-.81-.67-1.24a2.9,2.9,0,0,1-.33-.67,1,1,0,0,1-.14-.24c-.1-.14-.14-.24-.24-.38-.19-.43-.43-.91-.67-1.34l-.57-1.14a.81.81,0,0,0-.1-.24c-.1-.19-.19-.43-.33-.67a2.91,2.91,0,0,0-.33-.67c-.19-.48-.38-1-.62-1.43s-.33-.81-.52-1.24c-.67.38-1.34.71-2,1,.14.29.29.62.43.91v0c.1.24.19.43.29.67a4.88,4.88,0,0,1,.33.71s0,.1.1.14c.19.43.38.81.57,1.19s.48.86.72,1.29c.09.19.14.33.24.52a5.3,5.3,0,0,1,.38.72,6.28,6.28,0,0,1,.48.71,1.67,1.67,0,0,0,.24.38c.1.14.19.33.29.48a1.7,1.7,0,0,0,.33.48,17.7,17.7,0,0,0,1.53,2.05s0,.1.1.14M140.06,81.7l.38.72a0,0,0,0,0,0,0s0,.1,0,.14.14.29.24.43l.29.57s.1.1.1.14l.57,1c.19.33.43.67.62,1,.1.14.19.33.29.48a7,7,0,0,1,.43.62s.09.14.14.19.24.33.29.48a.84.84,0,0,1,.24.33,1.7,1.7,0,0,1,.33.48,2.6,2.6,0,0,1,.33.43,20.5,20.5,0,0,0,1.53,1.81l.14.14.76.91.53.52a1.12,1.12,0,0,1,.33.33c.33.33.72.67,1,1a1.87,1.87,0,0,0,.48.38,3.43,3.43,0,0,0,.62.57,7.41,7.41,0,0,1,.57.48,2.64,2.64,0,0,1,.38.24c.48.38.76.57.76.57a1.21,1.21,0,0,1-.19-.29c-.14-.14-.33-.38-.62-.71,0,0-.1-.1-.1-.14a2.71,2.71,0,0,1-.33-.43l-.19-.19a2.6,2.6,0,0,0-.33-.43c0-.1-.14-.19-.19-.29-.29-.38-.62-.81-1-1.29a4.34,4.34,0,0,1-.33-.48A4.09,4.09,0,0,1,148,91c-.19-.29-.43-.62-.67-1s-.24-.38-.38-.57-.1-.14-.1-.19a.85.85,0,0,1-.19-.24A8.45,8.45,0,0,1,146,88c-.14-.19-.24-.38-.38-.57s-.09-.14-.14-.19l-.24-.38c-.19-.38-.43-.76-.67-1.15l-.57-1a.67.67,0,0,0-.14-.19c0-.14-.14-.24-.19-.38a1.1,1.1,0,0,1-.14-.24,4,4,0,0,1-.33-.62,10.2,10.2,0,0,1-.67-1.24l-.43-.72c0-.14-.14-.29-.19-.43l-.1-.19-1.72,1m4.86-1.53c.52.86,1.14,1.72,1.72,2.53l.91,1.19c.29.38.57.76.91,1.14.62.72,1.24,1.43,1.86,2.05.29.29.57.62.86.91a7.45,7.45,0,0,0,.91.81c.52.52,1.1,1,1.57,1.38a3.62,3.62,0,0,0,.67.52,6.08,6.08,0,0,1,.57.43c.76.48,1.19.76,1.19.76s-.38-.38-1-1a6.48,6.48,0,0,1-.52-.57,6.21,6.21,0,0,0-.57-.62c-.38-.48-.86-1-1.29-1.57s-1-1.19-1.53-1.86a25.09,25.09,0,0,1-1.62-2.15c-.57-.72-1.1-1.57-1.67-2.34s-1.15-1.62-1.67-2.48c-.19-.33-.43-.67-.62-1l-1.34.86c.19.33.43.67.62,1m2.38-3,.57.86a5.28,5.28,0,0,0,.62.81c.29.43.62.86.91,1.29s.48.57.72.81a7,7,0,0,0,.48.62,1,1,0,0,1,.19.24c.48.52.91,1,1.38,1.48l.67.67a7.38,7.38,0,0,1,.62.62,2.06,2.06,0,0,1,.33.29,10.25,10.25,0,0,0,.86.67s0,0,0,0a4.14,4.14,0,0,0,.48.38c.14.1.29.24.43.33.52.38.81.57.81.57s-.24-.29-.72-.81a2.66,2.66,0,0,0-.33-.43l-.24-.24a.58.58,0,0,0-.24-.24,5.13,5.13,0,0,0-.43-.52l-.57-.72c0-.1-.1-.14-.14-.24-.33-.38-.67-.81-1-1.24s-.52-.67-.76-1a7,7,0,0,0-.52-.72c-.43-.57-.81-1.19-1.29-1.81,0-.1-.09-.14-.09-.19-.38-.57-.81-1.14-1.15-1.77l-.38-.52-.1,0c-.38.29-.76.52-1.14.81" style="fill:#f2dc93;fill-rule:evenodd"/><path d="M174.34,101.83c-.33-.1-.71-.24-1.1-.38s-.81-.38-1.19-.57a2.87,2.87,0,0,0-.57-.24l-.48-.29c-.57-.33-1-.52-1-.52s.43.1,1,.29l.52.14.57.14c.43.1.86.14,1.29.24s.86.14,1.24.19h.14a10,10,0,0,1-.53,1M128,148.59l-.81-.24a17,17,0,0,0-1.67-.62,6.46,6.46,0,0,1-.86-.33c-.29-.14-.62-.24-.91-.38-.57-.29-1.19-.52-1.76-.81l-1.72-.86c-.57-.29-1.1-.67-1.62-1a15.32,15.32,0,0,1-1.48-.91,15.14,15.14,0,0,1-1.29-.86c-.81-.52-1.48-1-1.91-1.34s-.71-.52-.71-.52a7,7,0,0,0,.71.48c.52.29,1.14.72,2,1.19.43.24.91.48,1.38.76s1,.53,1.53.76,1.1.53,1.67.76l1.76.76c.57.24,1.19.43,1.81.62a6.19,6.19,0,0,0,.86.33c.29.1.57.14.86.24.57.14,1.14.33,1.67.48l1.48.29.67.14-1.67,1m27.47-20.85c-.38,0-.76,0-1.19,0-.24,0-.52,0-.81-.1a5.26,5.26,0,0,1-.81-.1c-.53-.1-1-.14-1.57-.29s-1.1-.24-1.62-.38a13.36,13.36,0,0,1-1.48-.43c-.52-.19-1-.33-1.38-.52s-.86-.33-1.24-.48a10.8,10.8,0,0,1-1-.43l-.76-.38a6.89,6.89,0,0,1-.67-.33l.67.29c.24.1.52.19.81.29s.67.24,1,.38.81.19,1.24.33.91.24,1.43.38a14.35,14.35,0,0,0,1.53.29c.52.1,1,.19,1.57.24a8.67,8.67,0,0,0,1.57.1,4.17,4.17,0,0,0,.76,0h.76c.48,0,1,0,1.38-.1l1.1-.14c-.43.48-.91.91-1.34,1.38M87.41,167.43a9.41,9.41,0,0,1-.86-.62c-.48-.33-1-.72-1.48-1.1s-1-.81-1.53-1.24L82,163.18c-.48-.48-1-.91-1.48-1.38a12.81,12.81,0,0,1-1.43-1.34c-.48-.43-.91-.86-1.34-1.29s-.76-.81-1.1-1.19A23.1,23.1,0,0,1,75,156.17c-.38-.43-.62-.67-.62-.67s.24.19.67.62,1,1,1.76,1.72c.38.33.81.67,1.24,1a16.26,16.26,0,0,0,1.38,1.19,19.13,19.13,0,0,0,1.53,1.24c.53.38,1,.81,1.57,1.24s1.1.76,1.62,1.14,1.1.76,1.62,1.1,1,.72,1.53,1,1,.57,1.38.86l.33.19ZM172,106.36a.67.67,0,0,1-.29-.1l-1.67-.43c-.57-.24-1.1-.43-1.57-.62a5.56,5.56,0,0,1-.72-.29c-.24-.14-.48-.24-.67-.33l-1.24-.62,1.33.38c.19,0,.43.14.67.19a3.67,3.67,0,0,0,.76.14,16.42,16.42,0,0,0,1.62.33l1.62.14a3.65,3.65,0,0,0,.71.1h0c-.19.38-.43.72-.62,1.1m-50.5,45.85-.72-.29c-.52-.24-1.1-.48-1.67-.72-.24-.14-.53-.24-.81-.38l-.86-.43c-.57-.29-1.19-.57-1.77-.91s-1.14-.67-1.67-1-1.1-.72-1.62-1-1-.67-1.43-1a14.72,14.72,0,0,1-1.29-.91,21.59,21.59,0,0,1-1.91-1.43l-.67-.52a7,7,0,0,0,.72.48,21.69,21.69,0,0,0,2,1.29l1.33.81c.48.29,1,.57,1.53.86s1,.57,1.62.86,1.19.52,1.77.81,1.19.53,1.76.76a6.85,6.85,0,0,1,.86.38l.86.29c.57.19,1.14.38,1.62.57s1,.29,1.48.43l.53.14c-.53.29-1.1.57-1.67.86M151,132c-.57,0-1.1,0-1.67-.1s-1.19-.14-1.76-.24-1.19-.24-1.77-.38-1.19-.33-1.76-.52-1.15-.38-1.67-.57a27,27,0,0,1-2.86-1.24c-.38-.14-.76-.38-1.1-.52s-.62-.33-.86-.43a3.36,3.36,0,0,0-.72-.38,6.44,6.44,0,0,1,.76.33c.24.1.53.19.86.33s.72.33,1.14.48c.86.29,1.86.62,2.91,1l1.67.43c.57.1,1.19.24,1.76.33s1.19.14,1.77.24,1.14,0,1.67.1,1.1,0,1.57,0,1,0,1.43-.1l.1,0c-.48.48-1,1-1.48,1.38m18.26-21.28a3.72,3.72,0,0,0-.67-.1c-.33-.1-.72-.14-1-.24a7.61,7.61,0,0,0-1-.24,8.35,8.35,0,0,0-1-.33c-.33-.1-.67-.24-1-.33a5,5,0,0,1-.91-.33,5.34,5.34,0,0,0-.76-.33c-.48-.19-.86-.43-1.14-.52a4.3,4.3,0,0,1-.43-.24l.48.14c.29.1.67.24,1.19.38.24,0,.52.14.81.19s.57.14.91.24a6.55,6.55,0,0,0,1,.14c.33,0,.67.14,1,.19a7.1,7.1,0,0,1,1,.1,6.47,6.47,0,0,0,1,0c.33,0,.62,0,.91,0h.43l-.76,1.19m-54.55,44.89-1.14-.53c-.53-.29-1-.57-1.57-.86l-.86-.43c-.24-.19-.53-.33-.81-.52-.57-.33-1.14-.62-1.72-1s-1.1-.72-1.67-1-1-.76-1.53-1.1-1-.72-1.43-1-.91-.72-1.29-1c-.76-.62-1.38-1.19-1.81-1.53s-.67-.62-.67-.62a5.76,5.76,0,0,0,.71.57c.48.33,1.1.81,1.91,1.38a15.41,15.41,0,0,1,1.34.86c.48.33,1,.62,1.53,1s1,.67,1.62,1,1.14.62,1.72.91,1.14.57,1.72.91c.29.14.57.24.86.38s.57.24.86.38c.57.24,1.1.48,1.62.71a13.52,13.52,0,0,1,1.48.52l.86.29-1.72.86m31.19-19.27h-.19c-.52-.1-1.14-.14-1.72-.24s-1.19-.24-1.86-.38-1.19-.29-1.81-.48-1.24-.38-1.81-.57-1.19-.48-1.72-.72a24.59,24.59,0,0,1-3-1.38,12.3,12.3,0,0,1-1.14-.62,7,7,0,0,1-.86-.48c-.48-.29-.76-.43-.76-.43l.81.38a7.2,7.2,0,0,0,.86.43c.38.14.76.33,1.19.52.86.33,1.91.76,3,1.1.57.19,1.14.38,1.76.57l1.81.43c.57.14,1.19.24,1.81.33s1.19.14,1.81.19,1.1,0,1.62.1a14.56,14.56,0,0,0,1.48,0h.24l-1.57,1.29M43.11,186.71c-.38-.43-.81-.81-1.24-1.29s-1-1-1.43-1.53-1-1.1-1.48-1.72-1-1.19-1.43-1.77-1-1.24-1.43-1.86a15.64,15.64,0,0,1-1.29-1.81c-.43-.57-.81-1.19-1.19-1.72s-.67-1.1-1-1.62a13.32,13.32,0,0,1-.76-1.34c-.24-.43-.43-.81-.57-1.1-.33-.62-.48-1-.48-1l.52.91c.19.29.38.62.62,1a10.76,10.76,0,0,0,.91,1.29c.29.52.67,1,1,1.57s.81,1,1.24,1.62,1,1.14,1.43,1.72,1,1.15,1.53,1.72,1,1.1,1.53,1.67,1.1,1.05,1.57,1.58,1,1,1.53,1.43.91.86,1.34,1.24l.19.14c-.38.24-.81.48-1.19.76M166.38,115a4.22,4.22,0,0,1-.76-.1,28.67,28.67,0,0,1-2.29-.43l-1.14-.29c-.38-.1-.76-.24-1.1-.33s-.67-.24-1-.33-.57-.24-.86-.38c-.57-.19-1-.43-1.29-.52l-.52-.24.52.14c.33.1.81.29,1.34.43.29,0,.62.14.91.19s.67.14,1,.24.71.14,1.1.19l1.1.14c.38,0,.76,0,1.15,0a8.94,8.94,0,0,0,1.1,0,6.49,6.49,0,0,0,1,0h.62c-.29.38-.62.81-.91,1.24M108,158.84a10,10,0,0,1-1-.52,11.47,11.47,0,0,1-1.43-.86,16,16,0,0,1-1.53-.91c-.53-.33-1-.72-1.57-1s-1-.72-1.53-1.05a16,16,0,0,1-1.43-1.1c-.48-.33-.91-.67-1.34-1s-.81-.67-1.15-1c-.71-.57-1.29-1.15-1.72-1.48a8.15,8.15,0,0,0-.62-.57l.67.52c.43.33,1,.81,1.81,1.34.38.24.76.52,1.24.86s.91.57,1.38.91,1,.62,1.53.91,1,.62,1.57,1l1.57.86c.52.29,1,.57,1.57.81s1,.48,1.53.72.91.38,1.34.57c.24.1.48.24.71.33-.52.24-1,.48-1.62.72m32.33-18.27a1.31,1.31,0,0,1-.43,0c-.57-.1-1.14-.19-1.76-.33s-1.24-.33-1.86-.48-1.24-.43-1.86-.67a14.78,14.78,0,0,1-1.86-.71c-.57-.24-1.14-.48-1.72-.76a33,33,0,0,1-3-1.57c-.43-.24-.81-.48-1.15-.67l-.91-.52c-.48-.33-.71-.53-.71-.53a7.79,7.79,0,0,0,.76.43c.29.14.57.33.91.48s.76.43,1.24.62a32.41,32.41,0,0,0,3.05,1.29c.52.24,1.14.43,1.72.67s1.24.38,1.86.52,1.24.33,1.86.48,1.24.24,1.81.33,1.19.14,1.72.19,1,.1,1.53.1H142c-.57.38-1.1.81-1.67,1.19M38,190.38l-.43-.43c-.48-.48-1-1-1.48-1.57-.29-.29-.57-.57-.86-.91s-.52-.62-.81-.91c-.53-.67-1.1-1.34-1.67-2L31,182.46c-.57-.72-1-1.48-1.57-2.2s-1-1.43-1.43-2.15-.86-1.43-1.24-2.1-.67-1.34-1-1.91a12.44,12.44,0,0,1-.76-1.67c-.24-.48-.38-1-.52-1.29A12,12,0,0,1,24,170s.19.38.52,1.1q.29.57.57,1.29c.24.52.57,1,.91,1.57s.67,1.24,1.1,1.86.86,1.34,1.34,2,1,1.34,1.57,2.05,1,1.38,1.67,2.05l1.72,2c.62.62,1.24,1.24,1.76,1.86l.86.86c.29.29.57.57.86.81.53.52,1,1,1.53,1.48a7.44,7.44,0,0,1,.62.57c-.38.29-.72.57-1.1.86m125.17-71.13c-.29,0-.57,0-.86-.1s-.43,0-.62,0a2.83,2.83,0,0,1-.62-.1c-.48,0-.91-.14-1.33-.19s-.86-.24-1.24-.33-.86-.24-1.24-.33-.76-.24-1.14-.38-.67-.24-1-.38a9.09,9.09,0,0,1-1.48-.62l-.52-.24a3.13,3.13,0,0,0,.57.19c.33.1.86.29,1.48.43l1,.29a7.11,7.11,0,0,0,1.14.19,8.91,8.91,0,0,0,1.19.24l1.29.14a10.52,10.52,0,0,1,1.24,0h1.24a9.3,9.3,0,0,1,1.14,0,4.15,4.15,0,0,1,.76-.1c-.38.43-.71.86-1.1,1.34m-62,42.65c-.38-.24-.81-.48-1.24-.76s-1-.62-1.43-1-1-.67-1.57-1L95.33,158c-.48-.38-1-.76-1.53-1.14s-1-.81-1.43-1.19-.91-.76-1.34-1.15-.76-.71-1.14-1c-.72-.62-1.29-1.24-1.67-1.62s-.62-.57-.62-.57l.67.52a19.32,19.32,0,0,0,1.81,1.48c.33.29.76.62,1.19,1s1,.67,1.43,1,1,.71,1.53,1,1,.72,1.57,1,1.1.67,1.62,1,1.1.62,1.62.91,1,.57,1.48.81,1,.53,1.38.72.62.29.86.43c-.52.24-1,.48-1.62.72m75.49-64.79-.43-.24c-.62-.33-1.19-.67-1.62-1s-.72-.43-.72-.43.33.1.81.19,1.15.29,1.81.43c.14,0,.33,0,.53.1Zm-42.3,47.57-.86-.19c-.57-.14-1.19-.33-1.81-.53a14.08,14.08,0,0,1-1.86-.62,7.9,7.9,0,0,0-1-.38c-.33-.14-.62-.24-1-.38l-1.86-.86c-.57-.29-1.15-.62-1.72-.91s-1.1-.62-1.62-.91-1-.62-1.38-.91a12,12,0,0,1-1.15-.76c-.33-.24-.67-.43-.91-.62l-.76-.52s.29.19.81.48c.24.19.57.33.91.57s.76.43,1.24.67l1.43.76,1.67.76c.57.24,1.15.52,1.77.76l1.86.72a3.63,3.63,0,0,0,1,.29c.33.14.67.19,1,.29.62.19,1.24.38,1.86.52s1.19.24,1.76.38,1.1.14,1.57.19c.24,0,.48,0,.67.1-.52.38-1.1.71-1.62,1.1m25.27-21.28h-1.34l-.76-.14c-.52,0-1.1-.1-1.62-.19s-1-.24-1.53-.33a14.15,14.15,0,0,1-1.53-.43c-.48-.14-.91-.29-1.34-.43s-.86-.33-1.19-.48c-.76-.29-1.33-.57-1.76-.76l-.67-.29a4.69,4.69,0,0,1,.71.24c.43.14,1,.38,1.81.57.38.1.76.19,1.19.33a11.73,11.73,0,0,0,1.38.29c.48.1,1,.24,1.48.29s1,.1,1.57.19,1,0,1.53,0h.76a3.66,3.66,0,0,0,.71,0,12.51,12.51,0,0,0,1.38-.1l.33,0-1.15,1.29M94.28,164.71,93,163.9c-.48-.33-1-.72-1.43-1.05l-3.05-2.34c-1-.86-2-1.72-2.91-2.53-.43-.38-.91-.76-1.29-1.14s-.76-.81-1.1-1.15l-2.29-2.29s1,.86,2.48,2.1c.33.33.76.67,1.14,1s.91.67,1.38,1c1,.72,2,1.48,3.05,2.29s2.15,1.34,3.2,2a12,12,0,0,0,1.43.91l1.38.76,1,.48Z" style="fill-rule:evenodd"/><polygon points="166.95 72.87 157.27 82.84 165.62 71.72 166.95 72.87" style="fill-rule:evenodd"/><polygon points="169.96 76.93 161.28 91.67 168.43 76.16 169.96 76.93" style="fill-rule:evenodd"/><polygon points="173.53 80.41 168.48 93.34 171.91 79.88 173.53 80.41" style="fill-rule:evenodd"/><polygon points="178.69 82.41 175.49 90.81 177.02 81.98 178.69 82.41" style="fill-rule:evenodd"/><path d="M217.5,27.55c-1.86-4.58-4.48-3-8-1.57s-6.44,2.1-4.58,6.63,6.15,7.11,9.58,5.73,4.77-6.25,3-10.78" style="fill-rule:evenodd"/><path d="M212.54,36.9c-2.29,0-4.72-2.05-5.91-5a3.07,3.07,0,0,1-.33-2.19c.24-.67,1.62-1.19,3.1-1.77.24-.1.52-.19.86-.33a4.19,4.19,0,0,1,.81-.33,9.39,9.39,0,0,1,3.05-1c.29,0,.91,0,1.67,1.86a8.69,8.69,0,0,1,.48,5.44,4.23,4.23,0,0,1-2.38,3,4.11,4.11,0,0,1-1.33.24" style="fill:#f2dc93;fill-rule:evenodd"/><path d="M165.14,66.1c-4,14.69,21.93,22.42,31.62,21.37,16.07-1.77,29.47-10.16,31.95-32.78.57-5.3-1.24-16.41-8.92-19.42-2.86-1.1-10,.38-11.92,2.77-5,6.2-1,15.51-.19,19.94-3.72-.24-8.44,2.77-10.92,6.39-4.48-3.62-27.13-14.79-31.62,1.72" style="fill-rule:evenodd"/><path d="M194.85,85.42c-7.25,0-20.65-3.82-25.89-10.69a8.68,8.68,0,0,1-1.72-8.06c1.29-4.82,4.48-7.16,9.68-7.16,7.39,0,16.07,4.63,18.46,6.58l1.81,1.48,1.34-2c2.1-3.05,5.91-5.44,8.73-5.44h.29l2.72.19-.48-2.67a32.66,32.66,0,0,0-.76-3.39c-1.19-4.58-2.77-10.78.52-14.89.81-1,4.48-2.29,7.63-2.29a6.73,6.73,0,0,1,1.81.19c6.39,2.48,8.06,12.4,7.58,17.13-2.1,18.85-11.92,28.91-30.09,30.87a15.84,15.84,0,0,1-1.62.09" style="fill:#d19c4f;fill-rule:evenodd"/><polygon points="166.24 69.29 177.87 76.92 165.38 70.82 166.24 69.29" style="fill-rule:evenodd"/><polygon points="166 63.9 182.07 69.72 165.52 65.57 166 63.9" style="fill-rule:evenodd"/><polygon points="168.81 60.47 182.59 62.37 168.67 62.18 168.81 60.47" style="fill-rule:evenodd"/><path d="M194.8,65.67l-3,10.21,1.53-11.16c.48.33,1,.62,1.43,1" style="fill:#f2dc93;fill-rule:evenodd"/><path d="M199.71,64.09l3.77,11.12-4.91-9.68q.57-.79,1.14-1.43" style="fill:#f2dc93;fill-rule:evenodd"/><path d="M202.53,61.8l4.77,10.11-6.1-9.21c.43-.33.91-.62,1.34-.91" style="fill:#f2dc93;fill-rule:evenodd"/><path d="M206.25,60.47,212,68.91l-7.44-8a9.56,9.56,0,0,1,1.67-.43" style="fill:#f2dc93;fill-rule:evenodd"/><polygon points="209.54 56.55 220.27 59.42 209.87 58.22 209.54 56.55" style="fill:#f2dc93;fill-rule:evenodd"/><path d="M191.56,63.71l-3.82,8L190.13,63l1.43.72" style="fill:#f2dc93;fill-rule:evenodd"/><path d="M187.79,62l-3.1,5.2,1.81-5.68c.43.14.86.29,1.29.48" style="fill:#f2dc93;fill-rule:evenodd"/><path d="M197.62,66.62l-.1,10.74-1.53-11,.29.24c.62.67,1,.91,1,.67a2.69,2.69,0,0,0,.38-.62" style="fill-rule:evenodd"/><path d="M209.82,58.75l6.2,8L209,60a1.73,1.73,0,0,0,.86-1.29" style="fill-rule:evenodd"/><polygon points="217.07 36.09 218.65 40.81 215.55 36.95 217.07 36.09" style="fill-rule:evenodd"/><polygon points="213.3 37.18 212.4 42 211.54 37.18 213.3 37.18" style="fill-rule:evenodd"/><path d="M228.75,51.59a22.92,22.92,0,0,0-3.67-11.88c-6.63,0-14.11,1.19-19.5,3.53-.72,4.39.72,9.16,1.62,12.6,5.53-2.86,14.11-4.29,21.55-4.25" style="fill-rule:evenodd"/><path d="M208.63,52.78a26.59,26.59,0,0,1-1-8,51.28,51.28,0,0,1,16.31-2.91,22.55,22.55,0,0,1,2.48,7.58,57.3,57.3,0,0,0-17.79,3.34" style="fill:#d45a4c;fill-rule:evenodd"/><path d="M212.21,48.3a1.84,1.84,0,1,0-1.81,1.86,1.85,1.85,0,0,0,1.81-1.86" style="fill:#ebb375;fill-rule:evenodd"/><path d="M218.17,46.77a1.86,1.86,0,0,0-1.86-1.86,1.83,1.83,0,0,0-1.86,1.86,1.86,1.86,0,0,0,1.86,1.86,1.89,1.89,0,0,0,1.86-1.86" style="fill:#ebb375;fill-rule:evenodd"/><path d="M224.27,45.53a1.85,1.85,0,0,0-1.86-1.81,1.84,1.84,0,0,0,0,3.67,1.86,1.86,0,0,0,1.86-1.86" style="fill:#ebb375;fill-rule:evenodd"/><path d="M177.4,34.32c-6.2-6-12.11-7.11-17.41-1.67s-4.53,14.74,1.67,20.71,15.5,6.49,20.74,1.05c3.67-3.77,5-4.58.76-13.55-.57-1.24-.38-4.77-1.33-5.92-.67-.86-3.62.19-4.43-.62" style="fill-rule:evenodd"/><path d="M173.11,56.55a15.06,15.06,0,0,1-10.3-4.34c-5.53-5.39-6.25-13.64-1.62-18.42,2-2.05,4-3.05,6.15-3.05,2.67,0,5.67,1.62,8.92,4.72a3.28,3.28,0,0,0,2.43.81c.33,0,.67,0,1,0s.57,0,.86,0h.14a17.62,17.62,0,0,1,.43,2.39,9.47,9.47,0,0,0,.62,3c3.53,7.58,3,8.16-.1,11.31l-.38.43a11.18,11.18,0,0,1-8.15,3.29" style="fill:#f2dc93;fill-rule:evenodd"/><path d="M158.18,30.07c6-9.45,18.88-3.72,10.92,9.45-1.38,2.24.86,15.17,9.82,10.21-1,8.45-8.44,9.16-12.06,11.07-3.39,1.81-5.05,12.12-14.21,10.16-2-.43-4.53-1.91-.76-4.44,2-1.29.76-3.29-1.05-5.25-17.74-19.51-1.72-31.92,7.34-31.2" style="fill-rule:evenodd"/><path d="M154.84,69.05a9.12,9.12,0,0,1-2.38-.38,4.38,4.38,0,0,0,2.29-2.34c1.14-2.77-1.34-5.54-2.29-6.54-6.72-7.39-9-14.27-6.49-19.89a13.53,13.53,0,0,1,11.45-7.68,2.3,2.3,0,0,1,.57,0l1.34.1.67-1.1c1.48-2.34,3.58-3.67,5.63-3.67a3.69,3.69,0,0,1,3.29,1.81c1.15,2.05.57,5.34-1.67,9-1.24,2.05-.67,6.92,1.19,10.26,1.57,2.77,4,4.34,6.72,4.34.14,0,.33,0,.53,0-1.53,2.67-4.24,3.72-6.92,4.72a19.88,19.88,0,0,0-2.86,1.19c-1.62.86-2.72,2.58-3.91,4.39-2.1,3.39-3.86,5.77-7.15,5.77" style="fill:#f3dc63;fill-rule:evenodd"/><path d="M178.92,45.25a3.24,3.24,0,1,0-6.49,0,3.24,3.24,0,1,0,6.49,0" style="fill:#d19c4f;fill-rule:evenodd"/><path d="M171.15,39.71a1.45,1.45,0,0,1,.33-.09,5.68,5.68,0,0,1,.76-.19,1.38,1.38,0,0,1,.43-.1l.43-.14a1.72,1.72,0,0,1,.43-.19c.1-.1.24-.1.33-.19a2.07,2.07,0,0,1,.33-.29,2.06,2.06,0,0,0,.29-.33l.57-.71c.33-.53.62-1,.62-1a2.29,2.29,0,0,1,.29,1.19,2.47,2.47,0,0,1-.19,1.24,4,4,0,0,1-.33.62,2.35,2.35,0,0,1-.62.57,2.07,2.07,0,0,1-.72.38,2.39,2.39,0,0,1-.76.14c-.24,0-.48,0-.67,0a2.4,2.4,0,0,1-.62-.24,1,1,0,0,1-.38-.24c-.14,0-.19-.14-.29-.19a.83.83,0,0,0-.24-.24" style="fill-rule:evenodd"/><path d="M165.52,35.08v-.33a3.67,3.67,0,0,0,0-.76,1.49,1.49,0,0,1,0-.48,1.35,1.35,0,0,1,0-.43,1.46,1.46,0,0,0,0-.48,2,2,0,0,0-.14-.38c0-.14-.1-.24-.14-.38a1.67,1.67,0,0,0-.24-.38,7.23,7.23,0,0,0-.52-.76c-.38-.43-.72-.86-.72-.81a2,2,0,0,1,1.19,0,3.44,3.44,0,0,1,1.14.52,2.75,2.75,0,0,1,.53.53,3.78,3.78,0,0,1,.38.76,2.21,2.21,0,0,1,.14.81,4.15,4.15,0,0,1-.1.76c-.09.19-.14.43-.24.62a1.88,1.88,0,0,1-.38.48.57.57,0,0,1-.33.33,1.26,1.26,0,0,1-.29.24,1.37,1.37,0,0,1-.29.14" style="fill-rule:evenodd"/><path d="M161.18,39.28a1.52,1.52,0,0,1,0-.33c0-.19.24-.48.29-.72l.14-.43c0-.19,0-.33.09-.48s0-.29.1-.43a1.29,1.29,0,0,1,0-.43c0-.1,0-.24,0-.38l-.14-.43c-.1-.29-.24-.62-.33-.91-.24-.52-.43-1-.43-1a2.31,2.31,0,0,1,1.1.38,2.5,2.5,0,0,1,1,.81,3.09,3.09,0,0,1,.38.67,4.55,4.55,0,0,1,.19.76,5.24,5.24,0,0,1-.1.86,4.44,4.44,0,0,1-.29.71,5,5,0,0,1-.43.53,3.39,3.39,0,0,1-.48.38,1,1,0,0,1-.43.24l-.33.14a.69.69,0,0,0-.29,0" style="fill-rule:evenodd"/><path d="M166.91,52a1.07,1.07,0,0,1,.24.19c.19.1.38.33.62.48a2.06,2.06,0,0,1,.33.29,2.71,2.71,0,0,1,.38.24c.14.1.29.14.43.24s.24.1.38.1a.91.91,0,0,0,.38.1,1.61,1.61,0,0,0,.48,0,5.71,5.71,0,0,0,.91,0l1.14-.1a2.91,2.91,0,0,1-.72,1,3,3,0,0,1-1.1.62,3.68,3.68,0,0,1-.76.1,2.52,2.52,0,0,1-.81-.1,2.2,2.2,0,0,1-.76-.33,5.79,5.79,0,0,1-.57-.52c-.14-.19-.24-.38-.38-.57s-.14-.38-.19-.57a1.78,1.78,0,0,1,0-.48v-.38a.69.69,0,0,1,0-.29" style="fill-rule:evenodd"/><g style="clip-path:url(#a)"><path d="M156.56,66.33s0-.14.09-.33.19-.43.29-.72l.14-.43a2.08,2.08,0,0,1,.1-.48c0-.14,0-.29,0-.43a1,1,0,0,0,0-.38,1.32,1.32,0,0,0,0-.43,1.41,1.41,0,0,0-.1-.43c-.1-.29-.24-.62-.33-.91-.24-.52-.48-1-.48-1a2.66,2.66,0,0,1,1.14.33,3,3,0,0,1,1,.81,3.06,3.06,0,0,1,.38.67,2.43,2.43,0,0,1,.14.81,2.27,2.27,0,0,1,0,.81,5.51,5.51,0,0,1-.29.72,5.94,5.94,0,0,1-.43.57,4,4,0,0,0-.48.38.86.86,0,0,1-.43.19,1.73,1.73,0,0,1-.33.14.83.83,0,0,1-.33.09" style="fill-rule:evenodd"/></g><path d="M156.32,36.85s-.1.29-.24.76-.33,1.1-.52,1.91c-.1.38-.14.81-.24,1.24,0,.24,0,.48,0,.72a2.91,2.91,0,0,0,0,.67v.71l.14.72a4.6,4.6,0,0,0,.38,1.38,8.77,8.77,0,0,0,.71,1.29,6.51,6.51,0,0,0,.91,1.1,16.39,16.39,0,0,0,2.05,1.72c1.34.86,2.38,1.38,2.38,1.38a8.31,8.31,0,0,1-2.81-.52,9.8,9.8,0,0,1-2.62-1.48,7.61,7.61,0,0,1-1.24-1.24,6.42,6.42,0,0,1-.91-1.57,4.88,4.88,0,0,1-.48-1.81,7.29,7.29,0,0,1,0-1.77c0-.29.09-.52.14-.81s.14-.52.24-.76c.19-.48.33-.91.53-1.29a9.14,9.14,0,0,1,.62-1c.19-.29.38-.53.52-.72a6.53,6.53,0,0,1,.53-.62" style="fill-rule:evenodd"/><path d="M152.7,37.42l-.43.86a5.66,5.66,0,0,0-.53,1c-.19.33-.33.81-.52,1.24a11.67,11.67,0,0,0-.43,1.53,9.16,9.16,0,0,0-.29,1.72v.86c0,.33,0,.62.1.91a8.76,8.76,0,0,0,.43,1.86,14.54,14.54,0,0,0,1.67,3.34c.38.48.71,1,1,1.43s.72.86,1,1.24c1.38,1.53,2.38,2.48,2.38,2.48a12.25,12.25,0,0,1-3-1.77,15.87,15.87,0,0,1-2.67-2.48c-.38-.57-.81-1.1-1.19-1.72a19.37,19.37,0,0,1-.91-2,17.71,17.71,0,0,1-.43-2.19,6.49,6.49,0,0,1,.1-2.15,8,8,0,0,1,.52-1.91,12.18,12.18,0,0,1,.76-1.57c.33-.43.57-.86.86-1.15s.57-.62.76-.86a5.35,5.35,0,0,1,.72-.62" style="fill-rule:evenodd"/><path d="M141.49,19.24c-9.16,6.06-14.93,13.36-13,16.27s10.87.38,20-5.73,14.92-13.31,13-16.27-10.87-.38-20,5.73M146.64,27c-6.77,4.53-12.68,7.44-13.3,6.58s4.43-5.25,11.21-9.73,12.68-7.44,13.26-6.58-4.39,5.25-11.16,9.73" style="fill-rule:evenodd"/><path d="M142.16,20.29c-8.54,5.68-14.21,12.21-12.68,14.55s9.78-.38,18.36-6.11S162,16.52,160.52,14.19s-9.78.38-18.36,6.11m4.86,7.3c-7.39,4.87-14.07,7.82-14.93,6.54s4.43-6.35,11.78-11.26S157.94,15,158.8,16.33,154.41,22.68,147,27.59" style="fill:#edc459;fill-rule:evenodd"/><path d="M168.1,162.09a13.3,13.3,0,0,1-2,7.39,12.2,12.2,0,0,1-5.48,4.77,13.15,13.15,0,0,1-2.19.81,11.94,11.94,0,0,1-2.62.29,13.13,13.13,0,0,1-1.34,0,11.09,11.09,0,0,1-1.34-.29c-.62-.14-1-.43-1-.81s.29-.67.81-.67a2,2,0,0,1,.72.19,3.11,3.11,0,0,0,1.24.19,5.21,5.21,0,0,0,4.58-2.29c1-1.53,1.57-3.91,1.57-7.06,0-3.91-.86-6.73-2.62-8.49s-4.39-2.67-7.92-2.67a1.26,1.26,0,0,0-1.38.86,15.49,15.49,0,0,0-.19,3.1v22.33c0,3.1,0,5.58.19,7.4s.38,2.91.72,3.29a2,2,0,0,0,1,.71,10.66,10.66,0,0,0,1.14.38l1,.14h.52a1.47,1.47,0,0,1,.62.14.36.36,0,0,1,.33.38c0,.19-.14.29-.33.43a3.5,3.5,0,0,1-1.24.19c-.24,0-.67,0-1.19-.1s-1.24,0-1.91,0-1.38,0-2-.1-1.24-.1-1.72-.1-1.1,0-1.86.1-1.53,0-2.34.1-1.48,0-2.1,0-1,.1-1.14.1a7.32,7.32,0,0,1-1.1-.1.54.54,0,0,1-.52-.57c0-.24.19-.38.52-.48s.76-.14,1.24-.19a8.86,8.86,0,0,0,1.48-.29,2.46,2.46,0,0,0,1.24-.81,3.29,3.29,0,0,0,.52-1.29c.1-.57.19-1.24.24-2a18.49,18.49,0,0,0,.09-2.34V156.41a8.87,8.87,0,0,0-.24-2.29,2.57,2.57,0,0,0-1.38-1.72A3.94,3.94,0,0,0,139,152c-.53,0-.81-.1-.81-.33s.24-.57.72-.57,1.38,0,2.48.14,2.15.1,3.15.1c.71,0,1.29,0,1.81,0l1.67-.14a21.22,21.22,0,0,1,2.14-.19c.81,0,2-.1,3.34-.1a23.28,23.28,0,0,1,5.1.57,15.75,15.75,0,0,1,4.72,1.86,10.74,10.74,0,0,1,3.43,3.43,9.83,9.83,0,0,1,1.38,5.39m364.27,29.72a.5.5,0,0,1,.24-.43l.52-.14h.67a2.67,2.67,0,0,0,.62,0,7,7,0,0,0,2.1-.86,20.77,20.77,0,0,0,2.1-1.72c.72-.67,1.38-1.43,2.1-2.24s1.43-1.57,2.1-2.43l8.63-10.45a1.23,1.23,0,0,0,.43-.67.24.24,0,0,0-.19-.24,18.76,18.76,0,0,1-2.19-1.1,9.81,9.81,0,0,1-2.34-2,10.62,10.62,0,0,1-1.91-2.91,9.93,9.93,0,0,1-.76-4.15,9.73,9.73,0,0,1,1.1-4.63,11.42,11.42,0,0,1,2.91-3.67,14.43,14.43,0,0,1,4.29-2.39,15.34,15.34,0,0,1,5.15-.86,33.52,33.52,0,0,1,3.72.19,36.79,36.79,0,0,0,4.15.19c1.53,0,3,0,4.24-.1s2.1-.14,2.43-.14a1.3,1.3,0,0,1,.81.19.73.73,0,0,1,.19.48c0,.14-.14.24-.33.33s-.52.1-.86.19l-1.19.33a3.31,3.31,0,0,0-1.19.67,2.12,2.12,0,0,0-.62,1.14,5.91,5.91,0,0,0-.29,1.77v30.25a12.75,12.75,0,0,0,.29,2.91,2.34,2.34,0,0,0,1.29,1.67,3.72,3.72,0,0,0,.86.24,7.38,7.38,0,0,0,1,.19,2.74,2.74,0,0,1,.81.24.44.44,0,0,1,.33.43c0,.24-.19.38-.62.48a9.14,9.14,0,0,1-1.15,0h-1c-.52,0-1.19,0-1.86-.1s-1.43,0-2.15-.1-1.24,0-1.62,0-1,0-1.57,0-1.29,0-1.91.1-1.24,0-1.76.1h-1c-.86,0-1.24-.19-1.24-.62,0-.14.09-.19.24-.29s.38-.1.67-.14a3.6,3.6,0,0,1,.76-.19c.24,0,.48-.14.67-.19a4.29,4.29,0,0,1,.76-.43,1.13,1.13,0,0,0,.57-.72,7.43,7.43,0,0,0,.62-2.15,24.35,24.35,0,0,0,.33-4.87v-7.82c0-.33-.19-.48-.53-.48H559a3.13,3.13,0,0,0-2.53,1.43q-1.07,1.36-2.43,3.29l-6.3,8.83a10.43,10.43,0,0,1-2.15,2.2,12.86,12.86,0,0,1-2.38,1.29,9.43,9.43,0,0,1-2.48.62,21.75,21.75,0,0,1-2.38.14h-3.77a7.9,7.9,0,0,1-1.33-.14c-.57,0-.86-.29-.86-.62m18.79-29.58a13.21,13.21,0,0,0,.71,4.68,8.58,8.58,0,0,0,1.91,3.15,6.67,6.67,0,0,0,2.67,1.81,8.45,8.45,0,0,0,3.05.57,14.3,14.3,0,0,0,1.57,0,1.89,1.89,0,0,0,.81-.14.54.54,0,0,0,.38-.33,1.47,1.47,0,0,0,0-.52V156.31a4.33,4.33,0,0,0-.33-2,1.32,1.32,0,0,0-1.29-.62h-1.43a9.27,9.27,0,0,0-3.62.67,5.86,5.86,0,0,0-2.53,1.81,7.71,7.71,0,0,0-1.48,2.67,11.22,11.22,0,0,0-.48,3.39M207.73,192.1c0,.29-.14.43-.48.48a5.48,5.48,0,0,1-.81,0,22,22,0,0,1-2.48-.1c-.86,0-1.67-.1-2.48-.1-1.29,0-2.77,0-4.43.1s-3.1.1-4.39.1a3.4,3.4,0,0,1-.62,0,.42.42,0,0,1-.38-.43c0-.24.19-.43.52-.52s.67-.19,1.1-.29a3.3,3.3,0,0,0,1.1-.43,1.36,1.36,0,0,0,.52-1.19,10.32,10.32,0,0,0-.24-2.2,19.49,19.49,0,0,0-1-2.82L192.28,181c-.24-.67-.48-1.14-.62-1.53a8.79,8.79,0,0,0-.48-1,1,1,0,0,0-.43-.38,1.71,1.71,0,0,0-.53-.1H178.64c-.53,0-.81,0-1,.19a2.66,2.66,0,0,0-.38.76l-2,5c-.48,1.24-.81,2.29-1.1,3.2a10.48,10.48,0,0,0-.38,2.43,1.08,1.08,0,0,0,.67,1.1,4.13,4.13,0,0,0,1.24.38,3.94,3.94,0,0,0,.62.14,2.36,2.36,0,0,1,.76.14,2.57,2.57,0,0,1,.71.19c.19.1.29.19.29.33,0,.38-.09.57-.33.62a1.63,1.63,0,0,1-.72.1,24.2,24.2,0,0,1-2.57-.1c-.91,0-1.76-.1-2.58-.1s-2,0-3.1.1-2.15.1-3.1.1a2.38,2.38,0,0,1-.76-.1.48.48,0,0,1-.38-.53c0-.29.19-.43.62-.48a8.75,8.75,0,0,0,1-.14,3.75,3.75,0,0,0,2.48-1.24,9.64,9.64,0,0,0,1.43-2.43l15.26-37.07.43-.86c.14-.29.33-.43.52-.43s.38.14.53.48a9.92,9.92,0,0,1,.48,1l14.92,36.4a12.76,12.76,0,0,0,.76,1.72,7.38,7.38,0,0,0,1,1.62,1.54,1.54,0,0,0,.91.52,9.61,9.61,0,0,0,1.24.19c.43.1.81.14,1.15.24a.56.56,0,0,1,.43.57M189.8,174.92a4.05,4.05,0,0,0-.19-.86,7.52,7.52,0,0,1-.33-.81l-4.39-11c-.24-.48-.38-.71-.57-.71s-.19.1-.29.29-.19.48-.33.91l-4,10.21c-.19.48-.38.91-.53,1.38a4.17,4.17,0,0,0-.29.76c0,.19.29.24.81.24h9.06a3.63,3.63,0,0,0,.86,0,.34.34,0,0,0,.19-.33m29,12a8.66,8.66,0,0,1-.43,1.1,2.33,2.33,0,0,0-.24.91.72.72,0,0,0,.43.67,3.16,3.16,0,0,0,1.57.24H238c.91,0,1.34-.24,1.34-.76a5,5,0,0,0-.43-1.67l-9.39-24.67c-.29-.76-.53-1.1-.76-1.1s-.43.29-.67.86Zm-2,5.49a6.44,6.44,0,0,0-2.38.48,4.52,4.52,0,0,0-1.77,1.53,8.09,8.09,0,0,0-1,2.2c-.14.71-.29,1.33-.38,1.91s-.14,1-.19,1.38-.19.52-.43.52-.43-.38-.48-1.14,0-1.62,0-2.48v-1.24a9.54,9.54,0,0,0,0-1.24c0-.48,0-1,0-1.62v-2.19c0-.57.24-.81.67-.81a3.66,3.66,0,0,1,.71,0,2.62,2.62,0,0,0,.86.1,1.44,1.44,0,0,0,.76-.24,2.94,2.94,0,0,0,.67-.67c.19-.24.33-.52.53-.76s.24-.52.33-.72l14.93-36.88a1,1,0,0,1,.38-.52.7.7,0,0,1,1.05,0,1.14,1.14,0,0,1,.29.52L246.54,188a3.06,3.06,0,0,0,.62,1.05,1.7,1.7,0,0,0,.76.52,4.15,4.15,0,0,0,1.14.14,13.84,13.84,0,0,0,1.57.1.65.65,0,0,1,.57.24,1.32,1.32,0,0,1,0,.43c0,.14,0,.57-.14,1.24s-.24,1.62-.48,2.86c-.14.62-.19,1.29-.29,2s-.1,1.34-.14,1.91a8.85,8.85,0,0,1-.29,1.38c-.1.38-.29.57-.52.57s-.29-.29-.33-.81,0-1.24-.09-2a13.6,13.6,0,0,0-.29-2.34,3.87,3.87,0,0,0-1-1.91,3,3,0,0,0-1.81-.76,20.38,20.38,0,0,0-2.24-.19Zm78.59-21.33a29.41,29.41,0,0,1-1.24,8.44,19.46,19.46,0,0,1-3.86,7.11,18,18,0,0,1-6.68,4.91,24.4,24.4,0,0,1-9.82,1.81,22,22,0,0,1-8.06-1.53,23.09,23.09,0,0,1-6.82-4.34,20.83,20.83,0,0,1-4.67-6.68,20.2,20.2,0,0,1-1.76-8.59,24.09,24.09,0,0,1,1.57-8.87,21.55,21.55,0,0,1,4.43-6.92,19.44,19.44,0,0,1,6.77-4.44,23.66,23.66,0,0,1,8.73-1.57,21.45,21.45,0,0,1,15.4,6.3,22,22,0,0,1,4.39,6.63,18.91,18.91,0,0,1,1.62,7.73m-7.34,2.81a32.76,32.76,0,0,0-1-7.78,22.43,22.43,0,0,0-2.86-6.82,14.56,14.56,0,0,0-4.72-4.77,11.35,11.35,0,0,0-6.49-1.81,11,11,0,0,0-6.34,1.72,13.07,13.07,0,0,0-4.05,4.34,19.11,19.11,0,0,0-2.15,5.63,26.9,26.9,0,0,0-.67,5.58,30.92,30.92,0,0,0,1.1,8.3,22.5,22.5,0,0,0,3.15,6.73,15.28,15.28,0,0,0,4.86,4.44,12.43,12.43,0,0,0,6.34,1.62,10.41,10.41,0,0,0,5.58-1.53,14.57,14.57,0,0,0,4-4,19.55,19.55,0,0,0,2.39-5.58,24.37,24.37,0,0,0,.81-6.06M339,184a13.5,13.5,0,0,1-.24,1.91c-.19.86-.33,1.67-.53,2.43a7.39,7.39,0,0,0-.24,1.1c-.1.43-.14.72-.19.91a1.71,1.71,0,0,1-.52,1,1.87,1.87,0,0,1-.91.48,47.64,47.64,0,0,1-4.72,1,46.19,46.19,0,0,1-7.49.52,27,27,0,0,1-7.68-1.15,20.51,20.51,0,0,1-7.15-3.72,19.55,19.55,0,0,1-5.2-6.73,23.78,23.78,0,0,1-2-10.3,21.79,21.79,0,0,1,1.57-8.3,21.51,21.51,0,0,1,4.43-6.68,20.43,20.43,0,0,1,6.58-4.49,20.82,20.82,0,0,1,8.11-1.57,60.27,60.27,0,0,1,6.48.29c1.67.24,3.05.48,4.1.72a15.67,15.67,0,0,1,2.43.72,5,5,0,0,0,1.43.33c.29,0,.52,0,.62-.19a1,1,0,0,1,.53-.14c.19,0,.29.1.29.24s0,.29,0,.43c0,.43-.14,1-.24,1.57a10.69,10.69,0,0,0-.14,1.53c0,.43,0,1,.1,1.72s.1,1.43.1,2.1a7.25,7.25,0,0,1-.14,1.53c0,.43-.24.67-.57.67a.68.68,0,0,1-.62-.33,3.37,3.37,0,0,1-.19-.81c0-.29-.09-.62-.14-1a2.26,2.26,0,0,0-.33-1.1c-.19-.33-.52-.86-1-1.53a8.92,8.92,0,0,0-2.29-2,14.15,14.15,0,0,0-4.05-1.72,23.84,23.84,0,0,0-6.39-.72,11.72,11.72,0,0,0-5.67,1.34,13.58,13.58,0,0,0-4.2,3.72,17.36,17.36,0,0,0-2.57,5.34,21.8,21.8,0,0,0-.91,6.39,31.33,31.33,0,0,0,1.29,9.49,20.42,20.42,0,0,0,3.53,6.73,15,15,0,0,0,5.34,4,16,16,0,0,0,6.63,1.34,13.51,13.51,0,0,0,4.77-.76,17.64,17.64,0,0,0,4-2.05,3.27,3.27,0,0,0,.81-.81,6.84,6.84,0,0,0,.76-1.14c.24-.43.43-.81.62-1.19s.24-.67.33-.91a3.25,3.25,0,0,0,.19-1.29.46.46,0,0,1,.53-.53c.33,0,.52.24.62.67s.09.72.09.91m40.91-32.25s0,.38-.14.91a11.14,11.14,0,0,0-.29,1.57,8.6,8.6,0,0,0-.19,1.24,10,10,0,0,1-.09,1.24c0,.33-.14.67-.19,1s-.24.38-.43.38-.33-.1-.33-.29a2.86,2.86,0,0,1-.09-.67,4.08,4.08,0,0,1,0-.76,1,1,0,0,0-.24-.57l-.33-.33a2.35,2.35,0,0,0-.72-.43,7.86,7.86,0,0,0-1.24-.38,10.31,10.31,0,0,0-1.91-.14h-7.49a.76.76,0,0,0-.76.57,15.16,15.16,0,0,0-.14,2.72v25.57q.07,2.15.14,3.58a18.23,18.23,0,0,0,.24,2.2,2.62,2.62,0,0,0,.43,1.14,2.16,2.16,0,0,0,1.19.81,9.29,9.29,0,0,0,1.57.33c.57.1,1,.14,1.38.24s.62.19.62.43-.19.48-.52.52a8.79,8.79,0,0,1-1.19,0h-1.24c-.62,0-1.29,0-2-.1s-1.34,0-2,0-1.1,0-1.38,0-1,0-1.86.1-1.67,0-2.48.1-1.62,0-2.29,0l-1.14.1a7.19,7.19,0,0,1-1-.1c-.33,0-.48-.24-.48-.43,0-.38.14-.57.43-.62a3.61,3.61,0,0,1,1.1-.14,13.9,13.9,0,0,0,1.38-.24,2.12,2.12,0,0,0,1.24-.67,4.33,4.33,0,0,0,.91-2.53,39,39,0,0,0,.24-4.68v-26a11.22,11.22,0,0,0-.19-2.2.83.83,0,0,0-1-.71h-9.78a2,2,0,0,0-1.62.81,13.89,13.89,0,0,0-.91,1.43,1.94,1.94,0,0,0-.24.86c0,.29-.19.43-.53.43s-.48-.43-.48-1.29c0-.19,0-.48.1-.86s.14-.76.24-1.14.19-.86.29-1.24.24-.76.33-1.1a7.12,7.12,0,0,0,.29-1.38c0-.33.14-.48.48-.48a1.86,1.86,0,0,1,.86.19,4.57,4.57,0,0,0,1,.33c.33,0,.76,0,1.34.1l1.76.14c.57,0,1.19,0,1.81.1h20.65c.91,0,1.81,0,2.72-.1s1.62-.1,2.29-.1,1,0,1,0a1.74,1.74,0,0,1,.53.1c.19,0,.24.19.24.52m9.16,5.11a14,14,0,0,0-.24-2.43,2.29,2.29,0,0,0-1.05-1.62,4.38,4.38,0,0,0-1.1-.43,8.36,8.36,0,0,0-1-.19A3.66,3.66,0,0,1,385,152a.32.32,0,0,1-.29-.33c0-.14.19-.29.48-.38a2.92,2.92,0,0,1,.81-.14c.1,0,.38,0,.91,0s1.15,0,1.86.1,1.34,0,2,.1h1.57c.38,0,.91,0,1.53,0l1.91-.14,1.81-.14c.52,0,.91,0,1.14,0,.62,0,1,0,1.15.19a.58.58,0,0,1,.29.43c0,.14-.14.29-.38.33a2.76,2.76,0,0,1-.81.24c-.29,0-.62.1-1,.19a2.27,2.27,0,0,0-.91.38,1.8,1.8,0,0,0-.76.81,6.42,6.42,0,0,0-.38,1.14c0,.38-.1.81-.14,1.24v11.4a1,1,0,0,0,.57,1,3,3,0,0,0,1.33.29c.43,0,1,0,1.72,0s1.43.1,2.24.19a25,25,0,0,1,2.48.43,18.18,18.18,0,0,1,2.43.67,15.25,15.25,0,0,1,2.53,1.24,12.49,12.49,0,0,1,4.86,5.68,12.26,12.26,0,0,1,.86,4.82,9.61,9.61,0,0,1-1.29,5.15,10.28,10.28,0,0,1-3.39,3.48,14.14,14.14,0,0,1-4.77,2,23,23,0,0,1-5.39.62c-1.76,0-3.43,0-5-.19s-3.05-.24-4.48-.24c-.76,0-1.67,0-2.62.14a26.67,26.67,0,0,1-2.67.1c-.71,0-1.1-.19-1.1-.62a.49.49,0,0,1,.24-.38,4.76,4.76,0,0,1,.57-.14,4.34,4.34,0,0,0,.76,0,3.77,3.77,0,0,0,.72-.14,4.09,4.09,0,0,0,1.15-.43,2,2,0,0,0,.71-.86,5.29,5.29,0,0,0,.33-1.43c.1-.67.19-1.48.24-2.43s.1-1.91.14-3,0-2.2,0-3.29Zm19.36,25.76a13.18,13.18,0,0,0-.76-4.58,10.6,10.6,0,0,0-2.29-3.72,11.06,11.06,0,0,0-8.2-3.39,2.8,2.8,0,0,0-1.19.14c-.14.1-.19.33-.19.67v12.21c0,1.72,0,3.05,0,4a4.71,4.71,0,0,0,.48,2.1,1.6,1.6,0,0,0,1.29.86A15.64,15.64,0,0,0,400,191a11.6,11.6,0,0,0,2.62-.38,7.77,7.77,0,0,0,4.91-4,8.86,8.86,0,0,0,.86-4.1M491,192.1q0,.36-.57.43a7.29,7.29,0,0,1-1.57.1,21.79,21.79,0,0,1-2.29-.1c-1,0-2.48-.1-4.43-.1-.53,0-1,0-1.29,0s-.67,0-1,0-.62,0-1,.1h-1.48c-.81,0-1.48,0-2,0s-.67-.19-.67-.48.14-.33.48-.48a6.9,6.9,0,0,1,1.29-.24,2.73,2.73,0,0,0,1.57-.57,3.07,3.07,0,0,0,.86-1.29,6.12,6.12,0,0,0,.29-1.67c0-.62.1-1.19.1-1.72s0-1.19-.1-1.91a15,15,0,0,0-.24-2.43l-1.72-15.36c0-.29-.14-.43-.33-.43s-.29.19-.43.57L464.8,191.14c-.48,1-.91,1.53-1.19,1.53s-.72-.48-1.24-1.53l-12.59-24.81c-.1-.29-.19-.43-.33-.43s-.29.33-.33.91l-1.76,15.55c0,.43-.1.86-.14,1.34a14.31,14.31,0,0,1-.1,1.43,12.8,12.8,0,0,0-.09,1.29c0,.38,0,.72,0,.91,0,2,.38,3.15,1.1,3.53a3.16,3.16,0,0,0,1.14.52c.43.1.86.14,1.19.24a4.22,4.22,0,0,1,1,.19c.24.1.38.19.38.29,0,.38-.43.57-1.24.57h-1c-.48,0-1,0-1.67-.1s-1.24,0-1.81-.1-1,0-1.38,0-.71,0-1.24,0-1,0-1.57.1-1,0-1.43.1h-.91a4.9,4.9,0,0,1-1,0,.54.54,0,0,1-.33-.57c0-.14.1-.19.29-.29l.72-.14c.29-.1.57-.14.86-.24A3.62,3.62,0,0,0,441,191a4.3,4.3,0,0,0,1.81-2.53,26.09,26.09,0,0,0,.57-3.53l3.86-33.59c.09-.76.38-1.15.72-1.15s.86.38,1.24,1.15l14,27.57c.86,1.72,1.43,2.62,1.76,2.62s.48-.24.72-.67.62-1.1,1.1-2.05l13.49-28.1a1.35,1.35,0,0,1,.38-.52.69.69,0,0,1,.57-.24c.43,0,.71.48.86,1.38l4.29,33.25c0,.52.14,1.14.19,1.77a12.18,12.18,0,0,0,.33,1.91,10.12,10.12,0,0,0,.62,1.67,2.94,2.94,0,0,0,1.15,1.14,3.28,3.28,0,0,0,1.62.48c.52,0,.76.19.76.52m43.63-21a29.45,29.45,0,0,1-1.24,8.44,20.18,20.18,0,0,1-3.86,7.11,18.22,18.22,0,0,1-6.72,4.91,24.16,24.16,0,0,1-9.78,1.81,22,22,0,0,1-8.06-1.53,22.49,22.49,0,0,1-6.82-4.34,21.72,21.72,0,0,1-4.72-6.68,20.93,20.93,0,0,1-1.72-8.59,24.09,24.09,0,0,1,1.57-8.87,20,20,0,0,1,4.43-6.92,19.44,19.44,0,0,1,6.77-4.44,23.48,23.48,0,0,1,8.73-1.57,21.45,21.45,0,0,1,15.4,6.3,22,22,0,0,1,4.39,6.63,19.7,19.7,0,0,1,1.62,7.73m-7.34,2.81a32.76,32.76,0,0,0-1-7.78,22.42,22.42,0,0,0-2.86-6.82,15,15,0,0,0-4.72-4.77,11.46,11.46,0,0,0-6.49-1.81,10.93,10.93,0,0,0-6.34,1.72,13.08,13.08,0,0,0-4.05,4.34,19.23,19.23,0,0,0-2.19,5.63A26.66,26.66,0,0,0,499,170a30.88,30.88,0,0,0,1.1,8.3,22.5,22.5,0,0,0,3.15,6.73,14.34,14.34,0,0,0,4.86,4.44,12.37,12.37,0,0,0,6.29,1.62,10.18,10.18,0,0,0,5.58-1.53,14.12,14.12,0,0,0,4.05-4,19.52,19.52,0,0,0,2.38-5.58,24.32,24.32,0,0,0,.81-6.06" style="fill:#ce514a"/></svg>
