<svg xmlns="http://www.w3.org/2000/svg" viewBox="0 0 190.59 190.57"><title>Монтажная область 2</title><rect width="190.67" height="190.67" style="fill:#d09b4b"/><polygon points="10.67 16.21 8.65 8.65 1.83 6.82 0 0 0 26.7 0.14 26.74 10.67 16.21" style="fill:#f3dc92"/><polygon points="6.32 10.98 0 9.28 0 22.85 7.49 15.36 6.32 10.98" style="fill:#d45645"/><polygon points="3.99 13.3 0 12.23 0 18.82 4.31 14.51 3.99 13.3" style="fill:#d09b4b"/><polygon points="8.65 8.65 6.82 1.83 0 0 1.83 6.82 8.65 8.65" style="fill:#996943"/><polygon points="8.65 8.65 16.21 10.67 26.74 0.15 26.7 0 0 0 6.82 1.83 8.65 8.65" style="fill:#f3dc92"/><polygon points="15.36 7.49 22.85 0 9.28 0 10.97 6.32 15.36 7.49" style="fill:#d45645"/><polygon points="14.51 4.31 18.82 0 12.23 0 13.3 3.99 14.51 4.31" style="fill:#d09b4b"/><polygon points="188.84 6.82 182.02 8.65 180 16.21 190.52 26.74 190.67 26.7 190.67 0 188.84 6.82" style="fill:#f3dc92"/><polygon points="184.35 10.98 183.18 15.36 190.67 22.85 190.67 9.28 184.35 10.98" style="fill:#d45645"/><polygon points="186.68 13.3 186.35 14.51 190.67 18.82 190.67 12.23 186.68 13.3" style="fill:#d09b4b"/><polygon points="182.02 8.65 188.84 6.82 190.67 0 183.85 1.83 182.02 8.65" style="fill:#996943"/><polygon points="174.46 10.67 182.02 8.65 183.85 1.83 190.67 0 163.97 0 163.93 0.15 174.46 10.67" style="fill:#f3dc92"/><polygon points="179.69 6.32 181.39 0 167.82 0 175.31 7.49 179.69 6.32" style="fill:#d45645"/><polygon points="177.37 3.99 178.44 0 171.85 0 176.16 4.32 177.37 3.99" style="fill:#d09b4b"/><polygon points="54.91 8.65 52.88 16.21 63.41 26.74 63.56 26.7 63.7 26.74 74.23 16.21 72.2 8.65 65.38 6.82 63.56 0 61.73 6.82 54.91 8.65" style="fill:#f3dc92"/><polygon points="63.56 9.28 57.24 10.98 56.06 15.36 63.56 22.85 71.05 15.36 69.88 10.98 63.56 9.28" style="fill:#d45645"/><polygon points="63.56 12.23 59.56 13.3 59.24 14.51 63.56 18.82 67.87 14.51 67.55 13.3 63.56 12.23" style="fill:#d09b4b"/><polygon points="54.91 8.65 61.73 6.82 63.56 0 56.74 1.83 54.91 8.65" style="fill:#996943"/><polygon points="72.2 8.65 70.38 1.83 63.56 0 65.38 6.82 72.2 8.65" style="fill:#996943"/><polygon points="72.2 8.65 79.76 10.67 90.29 0.15 90.25 0 63.56 0 70.38 1.83 72.2 8.65" style="fill:#f3dc92"/><polygon points="47.35 10.67 54.91 8.65 56.74 1.83 63.56 0 36.86 0 36.82 0.15 47.35 10.67" style="fill:#f3dc92"/><polygon points="78.91 7.49 86.41 0 72.84 0 74.53 6.32 78.91 7.49" style="fill:#d45645"/><polygon points="52.58 6.32 54.27 0 40.71 0 48.2 7.49 52.58 6.32" style="fill:#d45645"/><polygon points="78.06 4.31 82.37 0 75.79 0 76.86 3.99 78.06 4.31" style="fill:#d09b4b"/><polygon points="50.26 3.99 51.32 0 44.74 0 49.05 4.32 50.26 3.99" style="fill:#d09b4b"/><polygon points="118.47 8.65 116.44 16.21 126.97 26.74 127.11 26.7 127.26 26.74 137.78 16.21 135.76 8.65 128.94 6.82 127.11 0 125.28 6.82 118.47 8.65" style="fill:#f3dc92"/><polygon points="127.11 9.28 120.79 10.98 119.62 15.36 127.11 22.85 134.6 15.36 133.43 10.98 127.11 9.28" style="fill:#d45645"/><polygon points="127.11 12.23 123.12 13.3 122.8 14.51 127.11 18.82 131.43 14.51 131.1 13.3 127.11 12.23" style="fill:#d09b4b"/><polygon points="118.47 8.65 125.28 6.82 127.11 0 120.29 1.83 118.47 8.65" style="fill:#996943"/><polygon points="135.76 8.65 133.93 1.83 127.11 0 128.94 6.82 135.76 8.65" style="fill:#996943"/><polygon points="135.76 8.65 143.32 10.67 153.85 0.15 153.81 0 127.11 0 133.93 1.83 135.76 8.65" style="fill:#f3dc92"/><polygon points="110.9 10.67 118.47 8.65 120.29 1.83 127.11 0 100.42 0 100.38 0.15 110.9 10.67" style="fill:#f3dc92"/><polygon points="142.47 7.49 149.96 0 136.39 0 138.09 6.32 142.47 7.49" style="fill:#d45645"/><polygon points="116.14 6.32 117.83 0 104.26 0 111.76 7.49 116.14 6.32" style="fill:#d45645"/><polygon points="141.62 4.31 145.93 0 139.34 0 140.41 3.99 141.62 4.31" style="fill:#d09b4b"/><polygon points="113.81 3.99 114.88 0 108.3 0 112.61 4.32 113.81 3.99" style="fill:#d09b4b"/><polygon points="8.65 182.02 10.67 174.46 0.14 163.93 0 163.97 0 190.67 1.83 183.85 8.65 182.02" style="fill:#f3dc92"/><polygon points="7.49 175.31 0 167.82 0 181.39 6.32 179.69 7.49 175.31" style="fill:#d45645"/><polygon points="4.31 176.16 0 171.85 0 178.44 3.99 177.37 4.31 176.16" style="fill:#d09b4b"/><polygon points="8.65 182.02 1.83 183.85 0 190.67 6.82 188.84 8.65 182.02" style="fill:#996943"/><polygon points="16.21 180 8.65 182.02 6.82 188.84 0 190.67 26.7 190.67 26.74 190.53 16.21 180" style="fill:#f3dc92"/><polygon points="10.97 184.35 9.28 190.67 22.85 190.67 15.36 183.18 10.97 184.35" style="fill:#d45645"/><polygon points="13.3 186.68 12.23 190.67 18.82 190.67 14.5 186.36 13.3 186.68" style="fill:#d09b4b"/><polygon points="190.52 163.93 180 174.46 182.02 182.02 188.84 183.85 190.67 190.67 190.67 163.97 190.52 163.93" style="fill:#f3dc92"/><polygon points="183.18 175.31 184.35 179.69 190.67 181.39 190.67 167.82 183.18 175.31" style="fill:#d45645"/><polygon points="186.35 176.16 186.68 177.37 190.67 178.44 190.67 171.85 186.35 176.16" style="fill:#d09b4b"/><polygon points="182.02 182.02 183.85 188.84 190.67 190.67 188.84 183.85 182.02 182.02" style="fill:#996943"/><polygon points="182.02 182.02 174.46 180 163.93 190.53 163.97 190.67 190.67 190.67 183.85 188.84 182.02 182.02" style="fill:#f3dc92"/><polygon points="175.31 183.18 167.82 190.67 181.39 190.67 179.69 184.35 175.31 183.18" style="fill:#d45645"/><polygon points="176.16 186.36 171.85 190.67 178.44 190.67 177.37 186.68 176.16 186.36" style="fill:#d09b4b"/><polygon points="72.2 182.02 74.23 174.46 63.7 163.93 63.56 163.97 63.41 163.93 52.88 174.46 54.91 182.02 61.73 183.85 63.56 190.67 65.38 183.85 72.2 182.02" style="fill:#f3dc92"/><polygon points="56.06 175.31 57.24 179.69 63.56 181.39 69.88 179.69 71.05 175.31 63.56 167.82 56.06 175.31" style="fill:#d45645"/><polygon points="59.24 176.16 59.56 177.37 63.56 178.44 67.55 177.37 67.87 176.16 63.56 171.85 59.24 176.16" style="fill:#d09b4b"/><polygon points="72.2 182.02 65.38 183.85 63.56 190.67 70.38 188.84 72.2 182.02" style="fill:#996943"/><polygon points="54.91 182.02 56.74 188.84 63.56 190.67 61.73 183.85 54.91 182.02" style="fill:#996943"/><polygon points="79.77 180 72.2 182.02 70.38 188.84 63.56 190.67 90.25 190.67 90.29 190.53 79.77 180" style="fill:#f3dc92"/><polygon points="54.91 182.02 47.35 180 36.82 190.53 36.86 190.67 63.56 190.67 56.74 188.84 54.91 182.02" style="fill:#f3dc92"/><polygon points="74.53 184.35 72.84 190.67 86.41 190.67 78.91 183.18 74.53 184.35" style="fill:#d45645"/><polygon points="48.2 183.18 40.71 190.67 54.27 190.67 52.58 184.35 48.2 183.18" style="fill:#d45645"/><polygon points="76.86 186.68 75.79 190.67 82.37 190.67 78.06 186.36 76.86 186.68" style="fill:#d09b4b"/><polygon points="49.05 186.36 44.74 190.67 51.32 190.67 50.26 186.68 49.05 186.36" style="fill:#d09b4b"/><polygon points="135.76 182.02 137.78 174.46 127.26 163.93 127.11 163.97 126.97 163.93 116.44 174.46 118.47 182.02 125.28 183.85 127.11 190.67 128.94 183.85 135.76 182.02" style="fill:#f3dc92"/><polygon points="119.62 175.31 120.79 179.69 127.11 181.39 133.43 179.69 134.6 175.31 127.11 167.82 119.62 175.31" style="fill:#d45645"/><polygon points="122.8 176.16 123.12 177.37 127.11 178.44 131.1 177.37 131.43 176.16 127.11 171.85 122.8 176.16" style="fill:#d09b4b"/><polygon points="135.76 182.02 128.94 183.85 127.11 190.67 133.93 188.84 135.76 182.02" style="fill:#996943"/><polygon points="118.47 182.02 120.29 188.84 127.11 190.67 125.28 183.85 118.47 182.02" style="fill:#996943"/><polygon points="143.32 180 135.76 182.02 133.93 188.84 127.11 190.67 153.81 190.67 153.85 190.53 143.32 180" style="fill:#f3dc92"/><polygon points="118.47 182.02 110.9 180 100.38 190.53 100.42 190.67 127.11 190.67 120.29 188.84 118.47 182.02" style="fill:#f3dc92"/><polygon points="138.09 184.35 136.39 190.67 149.96 190.67 142.47 183.18 138.09 184.35" style="fill:#d45645"/><polygon points="111.76 183.18 104.26 190.67 117.83 190.67 116.14 184.35 111.76 183.18" style="fill:#d45645"/><polygon points="140.41 186.68 139.34 190.67 145.93 190.67 141.62 186.36 140.41 186.68" style="fill:#d09b4b"/><polygon points="112.61 186.36 108.3 190.67 114.88 190.67 113.81 186.68 112.61 186.36" style="fill:#d09b4b"/><polygon points="150.25 40.42 148.22 47.98 158.75 58.51 158.89 58.47 159.04 58.51 169.56 47.98 167.54 40.42 160.72 38.59 158.89 31.77 157.06 38.59 150.25 40.42" style="fill:#201600"/><polygon points="150.25 40.42 148.22 47.98 158.75 58.51 158.89 58.47 159.04 58.51 169.56 47.98 167.54 40.42 160.72 38.59 158.89 31.77 157.06 38.59 150.25 40.42" style="fill:none;stroke:#d09b4b;stroke-miterlimit:22.9260005950928;stroke-width:1.84800004959106px"/><polygon points="167.54 23.13 169.56 15.57 159.04 5.04 158.89 5.08 158.75 5.04 148.22 15.57 150.25 23.13 157.07 24.95 158.89 31.77 160.72 24.95 167.54 23.13" style="fill:#201600"/><polygon points="167.54 23.13 169.56 15.57 159.04 5.04 158.89 5.08 158.75 5.04 148.22 15.57 150.25 23.13 157.07 24.95 158.89 31.77 160.72 24.95 167.54 23.13" style="fill:none;stroke:#d09b4b;stroke-miterlimit:22.9260005950928;stroke-width:1.84800004959106px"/><polygon points="151.4 16.42 152.57 20.8 158.89 22.5 165.21 20.8 166.38 16.42 158.89 8.93 151.4 16.42" style="fill:#d45645"/><polygon points="158.89 41.06 152.57 42.75 151.4 47.14 158.89 54.63 166.38 47.14 165.21 42.75 158.89 41.06" style="fill:#d45645"/><polygon points="154.58 17.27 154.9 18.48 158.89 19.55 162.88 18.48 163.2 17.27 158.89 12.96 154.58 17.27" style="fill:#f4de5e"/><polygon points="158.89 44.01 154.9 45.08 154.58 46.28 158.89 50.6 163.2 46.28 162.88 45.08 158.89 44.01" style="fill:#f4de5e"/><polygon points="158.89 31.78 165.71 29.95 167.54 23.13 160.72 24.96 158.89 31.78" style="fill:#d09b4b"/><polygon points="150.24 40.43 157.06 38.6 158.89 31.78 152.07 33.61 150.24 40.43" style="fill:#d09b4b"/><polygon points="158.89 31.78 160.72 38.6 167.54 40.43 165.71 33.61 158.89 31.78" style="fill:#d09b4b"/><polygon points="150.24 23.13 152.07 29.95 158.89 31.78 157.06 24.96 150.24 23.13" style="fill:#d09b4b"/><polygon points="175.1 21.1 167.54 23.13 165.71 29.95 158.89 31.77 165.71 33.6 167.54 40.42 175.1 42.45 185.63 31.92 185.59 31.77 185.63 31.63 175.1 21.1" style="fill:#201600"/><polygon points="175.1 21.1 167.54 23.13 165.71 29.95 158.89 31.77 165.71 33.6 167.54 40.42 175.1 42.45 185.63 31.92 185.59 31.77 185.63 31.63 175.1 21.1" style="fill:none;stroke:#d09b4b;stroke-miterlimit:22.9260005950928;stroke-width:1.84800004959106px"/><polygon points="150.25 23.13 142.68 21.1 132.16 31.63 132.19 31.77 132.16 31.92 142.68 42.45 150.25 40.42 152.07 33.6 158.89 31.77 152.07 29.95 150.25 23.13" style="fill:#201600"/><polygon points="150.25 23.13 142.68 21.1 132.16 31.63 132.19 31.77 132.16 31.92 142.68 42.45 150.25 40.42 152.07 33.6 158.89 31.77 152.07 29.95 150.25 23.13" style="fill:none;stroke:#d09b4b;stroke-miterlimit:22.9260005950928;stroke-width:1.84800004959106px"/><polygon points="169.87 25.46 168.17 31.78 169.87 38.1 174.25 39.27 181.74 31.78 174.25 24.29 169.87 25.46" style="fill:#d45645"/><polygon points="143.53 24.29 136.04 31.78 143.53 39.27 147.91 38.1 149.61 31.78 147.91 25.46 143.53 24.29" style="fill:#d45645"/><polygon points="172.19 27.79 171.12 31.78 172.19 35.77 173.4 36.09 177.71 31.78 173.4 27.47 172.19 27.79" style="fill:#f4de5e"/><polygon points="144.39 27.46 140.07 31.78 144.39 36.09 145.59 35.77 146.66 31.78 145.59 27.79 144.39 27.46" style="fill:#f4de5e"/><polygon points="40.42 23.13 42.45 15.57 31.92 5.04 31.78 5.08 31.63 5.04 21.11 15.57 23.13 23.13 29.95 24.95 31.78 31.77 33.6 24.95 40.42 23.13" style="fill:#201600"/><polygon points="40.42 23.13 42.45 15.57 31.92 5.04 31.78 5.08 31.63 5.04 21.11 15.57 23.13 23.13 29.95 24.95 31.78 31.77 33.6 24.95 40.42 23.13" style="fill:none;stroke:#d09b4b;stroke-miterlimit:22.9260005950928;stroke-width:1.84800004959106px"/><polygon points="23.13 40.42 21.11 47.98 31.63 58.51 31.78 58.47 31.92 58.51 42.45 47.98 40.42 40.42 33.61 38.59 31.78 31.77 29.95 38.59 23.13 40.42" style="fill:#201600"/><polygon points="23.13 40.42 21.11 47.98 31.63 58.51 31.78 58.47 31.92 58.51 42.45 47.98 40.42 40.42 33.61 38.59 31.78 31.77 29.95 38.59 23.13 40.42" style="fill:none;stroke:#d09b4b;stroke-miterlimit:22.9260005950928;stroke-width:1.84800004959106px"/><polygon points="24.29 16.42 25.46 20.8 31.78 22.5 38.1 20.8 39.27 16.42 31.78 8.93 24.29 16.42" style="fill:#d45645"/><polygon points="31.78 41.06 25.46 42.75 24.29 47.14 31.78 54.63 39.27 47.14 38.1 42.75 31.78 41.06" style="fill:#d45645"/><polygon points="27.46 17.27 27.79 18.48 31.78 19.55 35.77 18.48 36.09 17.27 31.78 12.96 27.46 17.27" style="fill:#f4de5e"/><polygon points="31.78 44.01 27.79 45.08 27.46 46.28 31.78 50.6 36.09 46.28 35.77 45.08 31.78 44.01" style="fill:#f4de5e"/><polygon points="31.78 31.78 38.6 29.95 40.42 23.13 33.6 24.96 31.78 31.78" style="fill:#d09b4b"/><polygon points="23.13 40.43 29.95 38.6 31.78 31.78 24.96 33.61 23.13 40.43" style="fill:#d09b4b"/><polygon points="31.78 31.78 33.6 38.6 40.42 40.43 38.6 33.61 31.78 31.78" style="fill:#d09b4b"/><polygon points="23.13 23.13 24.96 29.95 31.78 31.78 29.95 24.96 23.13 23.13" style="fill:#d09b4b"/><polygon points="47.99 21.1 40.43 23.13 38.6 29.95 31.78 31.77 38.6 33.6 40.43 40.42 47.99 42.45 58.52 31.92 58.48 31.77 58.52 31.63 47.99 21.1" style="fill:#201600"/><polygon points="47.99 21.1 40.43 23.13 38.6 29.95 31.78 31.77 38.6 33.6 40.43 40.42 47.99 42.45 58.52 31.92 58.48 31.77 58.52 31.63 47.99 21.1" style="fill:none;stroke:#d09b4b;stroke-miterlimit:22.9260005950928;stroke-width:1.84800004959106px"/><polygon points="23.13 23.13 15.57 21.1 5.04 31.63 5.08 31.77 5.04 31.92 15.57 42.45 23.13 40.42 24.96 33.6 31.78 31.77 24.96 29.95 23.13 23.13" style="fill:#201600"/><polygon points="23.13 23.13 15.57 21.1 5.04 31.63 5.08 31.77 5.04 31.92 15.57 42.45 23.13 40.42 24.96 33.6 31.78 31.77 24.96 29.95 23.13 23.13" style="fill:none;stroke:#d09b4b;stroke-miterlimit:22.9260005950928;stroke-width:1.84800004959106px"/><polygon points="42.75 25.46 41.06 31.78 42.75 38.1 47.13 39.27 54.63 31.78 47.13 24.29 42.75 25.46" style="fill:#d45645"/><polygon points="16.42 24.29 8.93 31.78 16.42 39.27 20.8 38.1 22.5 31.78 20.8 25.46 16.42 24.29" style="fill:#d45645"/><polygon points="45.08 27.79 44.01 31.78 45.08 35.77 46.28 36.09 50.59 31.78 46.28 27.47 45.08 27.79" style="fill:#f4de5e"/><polygon points="17.27 27.46 12.96 31.78 17.27 36.09 18.48 35.77 19.55 31.78 18.48 27.79 17.27 27.46" style="fill:#f4de5e"/><polygon points="86.69 40.42 84.66 47.98 95.19 58.51 95.33 58.47 95.48 58.51 106.01 47.98 103.98 40.42 97.16 38.59 95.33 31.77 93.51 38.59 86.69 40.42" style="fill:#201600"/><polygon points="86.69 40.42 84.66 47.98 95.19 58.51 95.33 58.47 95.48 58.51 106.01 47.98 103.98 40.42 97.16 38.59 95.33 31.77 93.51 38.59 86.69 40.42" style="fill:none;stroke:#d09b4b;stroke-miterlimit:22.9260005950928;stroke-width:1.84800004959106px"/><polygon points="95.33 41.06 89.02 42.75 87.84 47.14 95.33 54.63 102.83 47.14 101.65 42.75 95.33 41.06" style="fill:#d45645"/><polygon points="95.33 44.01 91.34 45.08 91.02 46.28 95.33 50.6 99.65 46.28 99.33 45.08 95.33 44.01" style="fill:#f4de5e"/><polygon points="86.69 40.43 93.51 38.6 95.33 31.78 88.52 33.61 86.69 40.43" style="fill:#d09b4b"/><polygon points="95.33 31.78 97.16 38.6 103.98 40.43 102.15 33.61 95.33 31.78" style="fill:#d09b4b"/><polygon points="111.54 21.1 103.98 23.13 102.16 29.95 95.34 31.77 102.16 33.6 103.98 40.42 111.54 42.45 122.07 31.92 122.03 31.77 122.07 31.63 111.54 21.1" style="fill:#201600"/><polygon points="111.54 21.1 103.98 23.13 102.16 29.95 95.34 31.77 102.16 33.6 103.98 40.42 111.54 42.45 122.07 31.92 122.03 31.77 122.07 31.63 111.54 21.1" style="fill:none;stroke:#d09b4b;stroke-miterlimit:22.9260005950928;stroke-width:1.84800004959106px"/><polygon points="86.69 23.13 79.13 21.1 68.6 31.63 68.64 31.77 68.6 31.92 79.13 42.45 86.69 40.42 88.52 33.6 95.33 31.77 88.52 29.95 86.69 23.13" style="fill:#201600"/><polygon points="86.69 23.13 79.13 21.1 68.6 31.63 68.64 31.77 68.6 31.92 79.13 42.45 86.69 40.42 88.52 33.6 95.33 31.77 88.52 29.95 86.69 23.13" style="fill:none;stroke:#d09b4b;stroke-miterlimit:22.9260005950928;stroke-width:1.84800004959106px"/><polygon points="106.31 25.46 104.61 31.78 106.31 38.1 110.69 39.27 118.18 31.78 110.69 24.29 106.31 25.46" style="fill:#d45645"/><polygon points="79.98 24.29 72.48 31.78 79.98 39.27 84.36 38.1 86.05 31.78 84.36 25.46 79.98 24.29" style="fill:#d45645"/><polygon points="108.64 27.79 107.57 31.78 108.64 35.77 109.84 36.09 114.15 31.78 109.84 27.47 108.64 27.79" style="fill:#f4de5e"/><polygon points="80.83 27.46 76.52 31.78 80.83 36.09 82.03 35.77 83.1 31.78 82.03 27.79 80.83 27.46" style="fill:#f4de5e"/><polygon points="10.67 79.77 8.65 72.2 1.83 70.38 0 63.56 0 90.25 0.14 90.29 10.67 79.77" style="fill:#f3dc92"/><polygon points="8.65 54.91 10.67 47.35 0.14 36.82 0 36.86 0 63.56 1.83 56.74 8.65 54.91" style="fill:#f3dc92"/><polygon points="7.49 48.2 0 40.71 0 54.27 6.32 52.58 7.49 48.2" style="fill:#d45645"/><polygon points="6.32 74.53 0 72.84 0 86.41 7.49 78.91 6.32 74.53" style="fill:#d45645"/><polygon points="4.31 49.05 0 44.74 0 51.32 3.99 50.26 4.31 49.05" style="fill:#d09b4b"/><polygon points="3.99 76.86 0 75.79 0 82.37 4.31 78.06 3.99 76.86" style="fill:#d09b4b"/><polygon points="8.65 54.91 1.83 56.74 0 63.56 6.82 61.73 8.65 54.91" style="fill:#996943"/><polygon points="8.65 72.2 6.82 65.39 0 63.56 1.83 70.38 8.65 72.2" style="fill:#996943"/><polygon points="8.65 72.2 16.21 74.23 26.74 63.7 26.7 63.56 26.74 63.41 16.21 52.88 8.65 54.91 6.82 61.73 0 63.56 6.82 65.39 8.65 72.2" style="fill:#f3dc92"/><polygon points="10.97 57.24 9.28 63.56 10.97 69.88 15.36 71.05 22.85 63.56 15.36 56.06 10.97 57.24" style="fill:#d45645"/><polygon points="13.3 59.56 12.23 63.56 13.3 67.55 14.5 67.87 18.82 63.56 14.5 59.24 13.3 59.56" style="fill:#d09b4b"/><polygon points="188.84 70.38 182.02 72.2 180 79.77 190.52 90.29 190.67 90.25 190.67 63.56 188.84 70.38" style="fill:#f3dc92"/><polygon points="180 47.35 182.02 54.91 188.84 56.74 190.67 63.56 190.67 36.86 190.52 36.82 180 47.35" style="fill:#f3dc92"/><polygon points="183.18 48.2 184.35 52.58 190.67 54.27 190.67 40.71 183.18 48.2" style="fill:#d45645"/><polygon points="184.35 74.53 183.18 78.91 190.67 86.41 190.67 72.84 184.35 74.53" style="fill:#d45645"/><polygon points="186.35 49.05 186.68 50.26 190.67 51.32 190.67 44.74 186.35 49.05" style="fill:#d09b4b"/><polygon points="186.68 76.86 186.35 78.06 190.67 82.37 190.67 75.79 186.68 76.86" style="fill:#d09b4b"/><polygon points="182.02 72.2 188.84 70.38 190.67 63.56 183.85 65.39 182.02 72.2" style="fill:#996943"/><polygon points="182.02 54.91 183.85 61.73 190.67 63.56 188.84 56.74 182.02 54.91" style="fill:#996943"/><polygon points="182.02 54.91 174.46 52.88 163.93 63.41 163.97 63.56 163.93 63.7 174.46 74.23 182.02 72.2 183.85 65.38 190.67 63.56 183.85 61.73 182.02 54.91" style="fill:#f3dc92"/><polygon points="175.31 56.06 167.82 63.56 175.31 71.05 179.69 69.88 181.39 63.56 179.69 57.24 175.31 56.06" style="fill:#d45645"/><polygon points="176.16 59.24 171.85 63.56 176.16 67.87 177.37 67.55 178.44 63.56 177.37 59.56 176.16 59.24" style="fill:#d09b4b"/><polygon points="54.91 72.2 52.88 79.77 63.41 90.29 63.56 90.25 63.7 90.29 74.23 79.77 72.2 72.2 65.38 70.38 63.56 63.56 61.73 70.38 54.91 72.2" style="fill:#f3dc92"/><polygon points="72.2 54.91 74.23 47.35 63.7 36.82 63.56 36.86 63.41 36.82 52.88 47.35 54.91 54.91 61.73 56.74 63.56 63.56 65.38 56.74 72.2 54.91" style="fill:#f3dc92"/><polygon points="56.06 48.2 57.24 52.58 63.56 54.27 69.88 52.58 71.05 48.2 63.56 40.71 56.06 48.2" style="fill:#d45645"/><polygon points="63.56 72.84 57.24 74.53 56.06 78.91 63.56 86.41 71.05 78.91 69.88 74.53 63.56 72.84" style="fill:#d45645"/><polygon points="59.24 49.05 59.56 50.26 63.56 51.32 67.55 50.26 67.87 49.05 63.56 44.74 59.24 49.05" style="fill:#d09b4b"/><polygon points="63.56 75.79 59.56 76.86 59.24 78.06 63.56 82.38 67.87 78.06 67.55 76.86 63.56 75.79" style="fill:#d09b4b"/><polygon points="63.56 63.56 70.38 61.73 72.2 54.91 65.38 56.74 63.56 63.56" style="fill:#996943"/><polygon points="54.91 72.2 61.73 70.38 63.56 63.56 56.74 65.39 54.91 72.2" style="fill:#996943"/><polygon points="63.56 63.56 65.38 70.38 72.2 72.2 70.38 65.38 63.56 63.56" style="fill:#996943"/><polygon points="54.91 54.91 56.74 61.73 63.56 63.56 61.73 56.74 54.91 54.91" style="fill:#996943"/><polygon points="79.77 52.88 72.2 54.91 70.38 61.73 63.56 63.56 70.38 65.38 72.2 72.2 79.77 74.23 90.29 63.7 90.25 63.56 90.29 63.41 79.77 52.88" style="fill:#f3dc92"/><polygon points="54.91 54.91 47.35 52.88 36.82 63.41 36.86 63.56 36.82 63.7 47.35 74.23 54.91 72.2 56.74 65.38 63.56 63.56 56.74 61.73 54.91 54.91" style="fill:#f3dc92"/><polygon points="74.53 57.24 72.84 63.56 74.53 69.88 78.91 71.05 86.41 63.56 78.91 56.06 74.53 57.24" style="fill:#d45645"/><polygon points="48.2 56.06 40.71 63.56 48.2 71.05 52.58 69.88 54.27 63.56 52.58 57.24 48.2 56.06" style="fill:#d45645"/><polygon points="76.86 59.56 75.79 63.56 76.86 67.55 78.06 67.87 82.37 63.56 78.06 59.24 76.86 59.56" style="fill:#d09b4b"/><polygon points="49.05 59.24 44.74 63.56 49.05 67.87 50.26 67.55 51.32 63.56 50.26 59.56 49.05 59.24" style="fill:#d09b4b"/><polygon points="118.47 72.2 116.44 79.77 126.97 90.29 127.11 90.25 127.26 90.29 137.78 79.77 135.76 72.2 128.94 70.38 127.11 63.56 125.28 70.38 118.47 72.2" style="fill:#f3dc92"/><polygon points="135.76 54.91 137.78 47.35 127.26 36.82 127.11 36.86 126.97 36.82 116.44 47.35 118.47 54.91 125.28 56.74 127.11 63.56 128.94 56.74 135.76 54.91" style="fill:#f3dc92"/><polygon points="119.62 48.2 120.79 52.58 127.11 54.27 133.43 52.58 134.6 48.2 127.11 40.71 119.62 48.2" style="fill:#d45645"/><polygon points="127.11 72.84 120.79 74.53 119.62 78.91 127.11 86.41 134.6 78.91 133.43 74.53 127.11 72.84" style="fill:#d45645"/><polygon points="122.8 49.05 123.12 50.26 127.11 51.32 131.1 50.26 131.43 49.05 127.11 44.74 122.8 49.05" style="fill:#d09b4b"/><polygon points="127.11 75.79 123.12 76.86 122.8 78.06 127.11 82.38 131.43 78.06 131.1 76.86 127.11 75.79" style="fill:#d09b4b"/><polygon points="127.11 63.56 133.93 61.73 135.76 54.91 128.94 56.74 127.11 63.56" style="fill:#996943"/><polygon points="118.47 72.2 125.28 70.38 127.11 63.56 120.29 65.39 118.47 72.2" style="fill:#996943"/><polygon points="127.11 63.56 128.94 70.38 135.76 72.2 133.93 65.38 127.11 63.56" style="fill:#996943"/><polygon points="118.47 54.91 120.29 61.73 127.11 63.56 125.28 56.74 118.47 54.91" style="fill:#996943"/><polygon points="143.32 52.88 135.76 54.91 133.93 61.73 127.11 63.56 133.93 65.38 135.76 72.2 143.32 74.23 153.85 63.7 153.81 63.56 153.85 63.41 143.32 52.88" style="fill:#f3dc92"/><polygon points="118.47 54.91 110.9 52.88 100.38 63.41 100.42 63.56 100.38 63.7 110.9 74.23 118.47 72.2 120.29 65.38 127.11 63.56 120.29 61.73 118.47 54.91" style="fill:#f3dc92"/><polygon points="138.09 57.24 136.39 63.56 138.09 69.88 142.47 71.05 149.96 63.56 142.47 56.06 138.09 57.24" style="fill:#d45645"/><polygon points="111.76 56.06 104.26 63.56 111.76 71.05 116.14 69.88 117.83 63.56 116.14 57.24 111.76 56.06" style="fill:#d45645"/><polygon points="140.41 59.56 139.34 63.56 140.41 67.55 141.62 67.87 145.93 63.56 141.62 59.24 140.41 59.56" style="fill:#d09b4b"/><polygon points="112.61 59.24 108.3 63.56 112.61 67.87 113.81 67.55 114.88 63.56 113.81 59.56 112.61 59.24" style="fill:#d09b4b"/><polygon points="167.54 86.69 169.56 79.12 159.04 68.59 158.89 68.63 158.75 68.59 148.22 79.12 150.25 86.69 157.07 88.51 158.89 95.33 160.72 88.51 167.54 86.69" style="fill:#201600"/><polygon points="167.54 86.69 169.56 79.12 159.04 68.59 158.89 68.63 158.75 68.59 148.22 79.12 150.25 86.69 157.07 88.51 158.89 95.33 160.72 88.51 167.54 86.69" style="fill:none;stroke:#d09b4b;stroke-miterlimit:22.9260005950928;stroke-width:1.84800004959106px"/><polygon points="150.25 103.98 148.22 111.54 158.75 122.07 158.89 122.03 159.04 122.07 169.56 111.54 167.54 103.98 160.72 102.15 158.89 95.33 157.06 102.15 150.25 103.98" style="fill:#201600"/><polygon points="150.25 103.98 148.22 111.54 158.75 122.07 158.89 122.03 159.04 122.07 169.56 111.54 167.54 103.98 160.72 102.15 158.89 95.33 157.06 102.15 150.25 103.98" style="fill:none;stroke:#d09b4b;stroke-miterlimit:22.9260005950928;stroke-width:1.84800004959106px"/><polygon points="151.4 79.98 152.57 84.36 158.89 86.05 165.21 84.36 166.38 79.98 158.89 72.49 151.4 79.98" style="fill:#d45645"/><polygon points="158.89 104.62 152.57 106.31 151.4 110.69 158.89 118.18 166.38 110.69 165.21 106.31 158.89 104.62" style="fill:#d45645"/><polygon points="154.58 80.83 154.9 82.03 158.89 83.1 162.88 82.03 163.2 80.83 158.89 76.52 154.58 80.83" style="fill:#f4de5e"/><polygon points="158.89 107.57 154.9 108.64 154.58 109.84 158.89 114.15 163.2 109.84 162.88 108.64 158.89 107.57" style="fill:#f4de5e"/><polygon points="158.89 95.33 165.71 93.51 167.54 86.69 160.72 88.52 158.89 95.33" style="fill:#d09b4b"/><polygon points="150.24 103.98 157.06 102.16 158.89 95.34 152.07 97.16 150.24 103.98" style="fill:#d09b4b"/><polygon points="158.89 95.33 160.72 102.16 167.54 103.98 165.71 97.16 158.89 95.33" style="fill:#d09b4b"/><polygon points="150.24 86.69 152.07 93.51 158.89 95.33 157.06 88.52 150.24 86.69" style="fill:#d09b4b"/><polygon points="175.1 84.66 167.54 86.69 165.71 93.5 158.89 95.33 165.71 97.16 167.54 103.98 175.1 106 185.63 95.48 185.59 95.33 185.63 95.19 175.1 84.66" style="fill:#201600"/><polygon points="175.1 84.66 167.54 86.69 165.71 93.5 158.89 95.33 165.71 97.16 167.54 103.98 175.1 106 185.63 95.48 185.59 95.33 185.63 95.19 175.1 84.66" style="fill:none;stroke:#d09b4b;stroke-miterlimit:22.9260005950928;stroke-width:1.84800004959106px"/><polygon points="150.25 86.69 142.68 84.66 132.16 95.19 132.19 95.33 132.16 95.48 142.68 106 150.25 103.98 152.07 97.16 158.89 95.33 152.07 93.5 150.25 86.69" style="fill:#201600"/><polygon points="150.25 86.69 142.68 84.66 132.16 95.19 132.19 95.33 132.16 95.48 142.68 106 150.25 103.98 152.07 97.16 158.89 95.33 152.07 93.5 150.25 86.69" style="fill:none;stroke:#d09b4b;stroke-miterlimit:22.9260005950928;stroke-width:1.84800004959106px"/><polygon points="169.87 89.02 168.17 95.33 169.87 101.65 174.25 102.83 181.74 95.33 174.25 87.84 169.87 89.02" style="fill:#d45645"/><polygon points="143.53 87.84 136.04 95.33 143.53 102.83 147.91 101.65 149.61 95.33 147.91 89.02 143.53 87.84" style="fill:#d45645"/><polygon points="172.19 91.34 171.12 95.33 172.19 99.33 173.4 99.65 177.71 95.33 173.4 91.02 172.19 91.34" style="fill:#f4de5e"/><polygon points="144.39 91.02 140.07 95.33 144.39 99.65 145.59 99.33 146.66 95.33 145.59 91.34 144.39 91.02" style="fill:#f4de5e"/><polygon points="23.13 103.98 21.11 111.54 31.63 122.07 31.78 122.03 31.92 122.07 42.45 111.54 40.42 103.98 33.61 102.15 31.78 95.33 29.95 102.15 23.13 103.98" style="fill:#201600"/><polygon points="23.13 103.98 21.11 111.54 31.63 122.07 31.78 122.03 31.92 122.07 42.45 111.54 40.42 103.98 33.61 102.15 31.78 95.33 29.95 102.15 23.13 103.98" style="fill:none;stroke:#d09b4b;stroke-miterlimit:22.9260005950928;stroke-width:1.84800004959106px"/><polygon points="40.42 86.69 42.45 79.12 31.92 68.59 31.78 68.63 31.63 68.59 21.11 79.12 23.13 86.69 29.95 88.51 31.78 95.33 33.6 88.51 40.42 86.69" style="fill:#201600"/><polygon points="40.42 86.69 42.45 79.12 31.92 68.59 31.78 68.63 31.63 68.59 21.11 79.12 23.13 86.69 29.95 88.51 31.78 95.33 33.6 88.51 40.42 86.69" style="fill:none;stroke:#d09b4b;stroke-miterlimit:22.9260005950928;stroke-width:1.84800004959106px"/><polygon points="24.29 79.98 25.46 84.36 31.78 86.05 38.1 84.36 39.27 79.98 31.78 72.49 24.29 79.98" style="fill:#d45645"/><polygon points="31.78 104.62 25.46 106.31 24.29 110.69 31.78 118.18 39.27 110.69 38.1 106.31 31.78 104.62" style="fill:#d45645"/><polygon points="27.46 80.83 27.79 82.03 31.78 83.1 35.77 82.03 36.09 80.83 31.78 76.52 27.46 80.83" style="fill:#f4de5e"/><polygon points="31.78 107.57 27.79 108.64 27.46 109.84 31.78 114.15 36.09 109.84 35.77 108.64 31.78 107.57" style="fill:#f4de5e"/><polygon points="31.78 95.33 38.6 93.51 40.42 86.69 33.6 88.52 31.78 95.33" style="fill:#d09b4b"/><polygon points="23.13 103.98 29.95 102.16 31.78 95.34 24.96 97.16 23.13 103.98" style="fill:#d09b4b"/><polygon points="31.78 95.33 33.6 102.16 40.42 103.98 38.6 97.16 31.78 95.33" style="fill:#d09b4b"/><polygon points="23.13 86.69 24.96 93.51 31.78 95.33 29.95 88.52 23.13 86.69" style="fill:#d09b4b"/><polygon points="47.99 84.66 40.43 86.69 38.6 93.5 31.78 95.33 38.6 97.16 40.43 103.98 47.99 106 58.52 95.48 58.48 95.33 58.52 95.19 47.99 84.66" style="fill:#201600"/><polygon points="47.99 84.66 40.43 86.69 38.6 93.5 31.78 95.33 38.6 97.16 40.43 103.98 47.99 106 58.52 95.48 58.48 95.33 58.52 95.19 47.99 84.66" style="fill:none;stroke:#d09b4b;stroke-miterlimit:22.9260005950928;stroke-width:1.84800004959106px"/><polygon points="23.13 86.69 15.57 84.66 5.04 95.19 5.08 95.33 5.04 95.48 15.57 106 23.13 103.98 24.96 97.16 31.78 95.33 24.96 93.5 23.13 86.69" style="fill:#201600"/><polygon points="23.13 86.69 15.57 84.66 5.04 95.19 5.08 95.33 5.04 95.48 15.57 106 23.13 103.98 24.96 97.16 31.78 95.33 24.96 93.5 23.13 86.69" style="fill:none;stroke:#d09b4b;stroke-miterlimit:22.9260005950928;stroke-width:1.84800004959106px"/><polygon points="42.75 89.02 41.06 95.33 42.75 101.65 47.13 102.83 54.63 95.33 47.13 87.84 42.75 89.02" style="fill:#d45645"/><polygon points="16.42 87.84 8.93 95.33 16.42 102.83 20.8 101.65 22.5 95.33 20.8 89.02 16.42 87.84" style="fill:#d45645"/><polygon points="45.08 91.34 44.01 95.33 45.08 99.33 46.28 99.65 50.59 95.33 46.28 91.02 45.08 91.34" style="fill:#f4de5e"/><polygon points="17.27 91.02 12.96 95.33 17.27 99.65 18.48 99.33 19.55 95.33 18.48 91.34 17.27 91.02" style="fill:#f4de5e"/><polygon points="86.69 103.98 84.66 111.54 95.19 122.07 95.33 122.03 95.48 122.07 106.01 111.54 103.98 103.98 97.16 102.15 95.33 95.33 93.51 102.15 86.69 103.98" style="fill:#201600"/><polygon points="86.69 103.98 84.66 111.54 95.19 122.07 95.33 122.03 95.48 122.07 106.01 111.54 103.98 103.98 97.16 102.15 95.33 95.33 93.51 102.15 86.69 103.98" style="fill:none;stroke:#d09b4b;stroke-miterlimit:22.9260005950928;stroke-width:1.84800004959106px"/><polygon points="103.98 86.69 106.01 79.12 95.48 68.59 95.33 68.63 95.19 68.59 84.66 79.12 86.69 86.69 93.51 88.51 95.33 95.33 97.16 88.51 103.98 86.69" style="fill:#201600"/><polygon points="103.98 86.69 106.01 79.12 95.48 68.59 95.33 68.63 95.19 68.59 84.66 79.12 86.69 86.69 93.51 88.51 95.33 95.33 97.16 88.51 103.98 86.69" style="fill:none;stroke:#d09b4b;stroke-miterlimit:22.9260005950928;stroke-width:1.84800004959106px"/><polygon points="87.84 79.98 89.02 84.36 95.33 86.05 101.65 84.36 102.83 79.98 95.33 72.49 87.84 79.98" style="fill:#d45645"/><polygon points="95.33 104.62 89.02 106.31 87.84 110.69 95.33 118.18 102.83 110.69 101.65 106.31 95.33 104.62" style="fill:#d45645"/><polygon points="91.02 80.83 91.34 82.03 95.33 83.1 99.33 82.03 99.65 80.83 95.33 76.52 91.02 80.83" style="fill:#f4de5e"/><polygon points="95.33 107.57 91.34 108.64 91.02 109.84 95.33 114.15 99.65 109.84 99.33 108.64 95.33 107.57" style="fill:#f4de5e"/><polygon points="95.33 95.33 102.15 93.51 103.98 86.69 97.16 88.52 95.33 95.33" style="fill:#d09b4b"/><polygon points="86.69 103.98 93.51 102.16 95.33 95.34 88.52 97.16 86.69 103.98" style="fill:#d09b4b"/><polygon points="95.33 95.33 97.16 102.16 103.98 103.98 102.15 97.16 95.33 95.33" style="fill:#d09b4b"/><polygon points="86.69 86.69 88.52 93.51 95.33 95.33 93.51 88.52 86.69 86.69" style="fill:#d09b4b"/><polygon points="111.54 84.66 103.98 86.69 102.16 93.5 95.34 95.33 102.16 97.16 103.98 103.98 111.54 106 122.07 95.48 122.03 95.33 122.07 95.19 111.54 84.66" style="fill:#201600"/><polygon points="111.54 84.66 103.98 86.69 102.16 93.5 95.34 95.33 102.16 97.16 103.98 103.98 111.54 106 122.07 95.48 122.03 95.33 122.07 95.19 111.54 84.66" style="fill:none;stroke:#d09b4b;stroke-miterlimit:22.9260005950928;stroke-width:1.84800004959106px"/><polygon points="86.69 86.69 79.13 84.66 68.6 95.19 68.64 95.33 68.6 95.48 79.13 106 86.69 103.98 88.52 97.16 95.33 95.33 88.52 93.5 86.69 86.69" style="fill:#201600"/><polygon points="86.69 86.69 79.13 84.66 68.6 95.19 68.64 95.33 68.6 95.48 79.13 106 86.69 103.98 88.52 97.16 95.33 95.33 88.52 93.5 86.69 86.69" style="fill:none;stroke:#d09b4b;stroke-miterlimit:22.9260005950928;stroke-width:1.84800004959106px"/><polygon points="106.31 89.02 104.61 95.33 106.31 101.65 110.69 102.83 118.18 95.33 110.69 87.84 106.31 89.02" style="fill:#d45645"/><polygon points="79.98 87.84 72.48 95.33 79.98 102.83 84.36 101.65 86.05 95.33 84.36 89.02 79.98 87.84" style="fill:#d45645"/><polygon points="108.64 91.34 107.57 95.33 108.64 99.33 109.84 99.65 114.15 95.33 109.84 91.02 108.64 91.34" style="fill:#f4de5e"/><polygon points="80.83 91.02 76.52 95.33 80.83 99.65 82.03 99.33 83.1 95.33 82.03 91.34 80.83 91.02" style="fill:#f4de5e"/><polygon points="10.67 143.32 8.65 135.76 1.83 133.93 0 127.11 0 153.81 0.14 153.85 10.67 143.32" style="fill:#f3dc92"/><polygon points="8.65 118.47 10.67 110.9 0.14 100.38 0 100.42 0 127.11 1.83 120.29 8.65 118.47" style="fill:#f3dc92"/><polygon points="7.49 111.76 0 104.26 0 117.83 6.32 116.14 7.49 111.76" style="fill:#d45645"/><polygon points="6.32 138.09 0 136.4 0 149.96 7.49 142.47 6.32 138.09" style="fill:#d45645"/><polygon points="4.31 112.61 0 108.3 0 114.88 3.99 113.81 4.31 112.61" style="fill:#d09b4b"/><polygon points="3.99 140.42 0 139.35 0 145.93 4.31 141.62 3.99 140.42" style="fill:#d09b4b"/><polygon points="8.65 118.47 1.83 120.29 0 127.11 6.82 125.29 8.65 118.47" style="fill:#996943"/><polygon points="8.65 135.76 6.82 128.94 0 127.11 1.83 133.93 8.65 135.76" style="fill:#996943"/><polygon points="8.65 135.76 16.21 137.79 26.74 127.26 26.7 127.11 26.74 126.97 16.21 116.44 8.65 118.47 6.82 125.29 0 127.11 6.82 128.94 8.65 135.76" style="fill:#f3dc92"/><polygon points="10.97 120.79 9.28 127.11 10.97 133.43 15.36 134.61 22.85 127.11 15.36 119.62 10.97 120.79" style="fill:#d45645"/><polygon points="13.3 123.12 12.23 127.11 13.3 131.1 14.5 131.43 18.82 127.11 14.5 122.8 13.3 123.12" style="fill:#d09b4b"/><polygon points="180 110.9 182.02 118.47 188.84 120.29 190.67 127.11 190.67 100.42 190.52 100.38 180 110.9" style="fill:#f3dc92"/><polygon points="188.84 133.93 182.02 135.76 180 143.32 190.52 153.85 190.67 153.81 190.67 127.11 188.84 133.93" style="fill:#f3dc92"/><polygon points="183.18 111.76 184.35 116.14 190.67 117.83 190.67 104.26 183.18 111.76" style="fill:#d45645"/><polygon points="184.35 138.09 183.18 142.47 190.67 149.96 190.67 136.4 184.35 138.09" style="fill:#d45645"/><polygon points="186.35 112.61 186.68 113.81 190.67 114.88 190.67 108.3 186.35 112.61" style="fill:#d09b4b"/><polygon points="186.68 140.42 186.35 141.62 190.67 145.93 190.67 139.35 186.68 140.42" style="fill:#d09b4b"/><polygon points="182.02 135.76 188.84 133.93 190.67 127.11 183.85 128.94 182.02 135.76" style="fill:#996943"/><polygon points="182.02 118.47 183.85 125.29 190.67 127.11 188.84 120.29 182.02 118.47" style="fill:#996943"/><polygon points="182.02 118.47 174.46 116.44 163.93 126.97 163.97 127.11 163.93 127.26 174.46 137.79 182.02 135.76 183.85 128.94 190.67 127.11 183.85 125.29 182.02 118.47" style="fill:#f3dc92"/><polygon points="175.31 119.62 167.82 127.11 175.31 134.61 179.69 133.43 181.39 127.11 179.69 120.79 175.31 119.62" style="fill:#d45645"/><polygon points="176.16 122.8 171.85 127.11 176.16 131.43 177.37 131.1 178.44 127.11 177.37 123.12 176.16 122.8" style="fill:#d09b4b"/><polygon points="72.2 118.47 74.23 110.9 63.7 100.38 63.56 100.42 63.41 100.38 52.88 110.9 54.91 118.47 61.73 120.29 63.56 127.11 65.38 120.29 72.2 118.47" style="fill:#f3dc92"/><polygon points="54.91 135.76 52.88 143.32 63.41 153.85 63.56 153.81 63.7 153.85 74.23 143.32 72.2 135.76 65.38 133.93 63.56 127.11 61.73 133.93 54.91 135.76" style="fill:#f3dc92"/><polygon points="56.06 111.76 57.24 116.14 63.56 117.83 69.88 116.14 71.05 111.76 63.56 104.26 56.06 111.76" style="fill:#d45645"/><polygon points="63.56 136.4 57.24 138.09 56.06 142.47 63.56 149.96 71.05 142.47 69.88 138.09 63.56 136.4" style="fill:#d45645"/><polygon points="59.24 112.61 59.56 113.81 63.56 114.88 67.55 113.81 67.87 112.61 63.56 108.3 59.24 112.61" style="fill:#d09b4b"/><polygon points="63.56 139.35 59.56 140.41 59.24 141.62 63.56 145.93 67.87 141.62 67.55 140.41 63.56 139.35" style="fill:#d09b4b"/><polygon points="63.56 127.11 70.38 125.29 72.2 118.47 65.38 120.29 63.56 127.11" style="fill:#996943"/><polygon points="54.91 135.76 61.73 133.93 63.56 127.11 56.74 128.94 54.91 135.76" style="fill:#996943"/><polygon points="63.56 127.11 65.38 133.93 72.2 135.76 70.38 128.94 63.56 127.11" style="fill:#996943"/><polygon points="54.91 118.47 56.74 125.29 63.56 127.11 61.73 120.29 54.91 118.47" style="fill:#996943"/><polygon points="79.77 116.44 72.2 118.47 70.38 125.29 63.56 127.11 70.38 128.94 72.2 135.76 79.77 137.79 90.29 127.26 90.25 127.11 90.29 126.97 79.77 116.44" style="fill:#f3dc92"/><polygon points="54.91 118.47 47.35 116.44 36.82 126.97 36.86 127.11 36.82 127.26 47.35 137.79 54.91 135.76 56.74 128.94 63.56 127.11 56.74 125.29 54.91 118.47" style="fill:#f3dc92"/><polygon points="74.53 120.79 72.84 127.11 74.53 133.43 78.91 134.61 86.41 127.11 78.91 119.62 74.53 120.79" style="fill:#d45645"/><polygon points="48.2 119.62 40.71 127.11 48.2 134.61 52.58 133.43 54.27 127.11 52.58 120.79 48.2 119.62" style="fill:#d45645"/><polygon points="76.86 123.12 75.79 127.11 76.86 131.1 78.06 131.43 82.37 127.11 78.06 122.8 76.86 123.12" style="fill:#d09b4b"/><polygon points="49.05 122.8 44.74 127.11 49.05 131.43 50.26 131.1 51.32 127.11 50.26 123.12 49.05 122.8" style="fill:#d09b4b"/><polygon points="118.47 135.76 116.44 143.32 126.97 153.85 127.11 153.81 127.26 153.85 137.78 143.32 135.76 135.76 128.94 133.93 127.11 127.11 125.28 133.93 118.47 135.76" style="fill:#f3dc92"/><polygon points="135.76 118.47 137.78 110.9 127.26 100.38 127.11 100.42 126.97 100.38 116.44 110.9 118.47 118.47 125.28 120.29 127.11 127.11 128.94 120.29 135.76 118.47" style="fill:#f3dc92"/><polygon points="119.62 111.76 120.79 116.14 127.11 117.83 133.43 116.14 134.6 111.76 127.11 104.26 119.62 111.76" style="fill:#d45645"/><polygon points="127.11 136.4 120.79 138.09 119.62 142.47 127.11 149.96 134.6 142.47 133.43 138.09 127.11 136.4" style="fill:#d45645"/><polygon points="122.8 112.61 123.12 113.81 127.11 114.88 131.1 113.81 131.43 112.61 127.11 108.3 122.8 112.61" style="fill:#d09b4b"/><polygon points="127.11 139.35 123.12 140.41 122.8 141.62 127.11 145.93 131.43 141.62 131.1 140.41 127.11 139.35" style="fill:#d09b4b"/><polygon points="127.11 127.11 133.93 125.29 135.76 118.47 128.94 120.29 127.11 127.11" style="fill:#996943"/><polygon points="118.47 135.76 125.28 133.93 127.11 127.11 120.29 128.94 118.47 135.76" style="fill:#996943"/><polygon points="127.11 127.11 128.94 133.93 135.76 135.76 133.93 128.94 127.11 127.11" style="fill:#996943"/><polygon points="118.47 118.47 120.29 125.29 127.11 127.11 125.28 120.29 118.47 118.47" style="fill:#996943"/><polygon points="143.32 116.44 135.76 118.47 133.93 125.29 127.11 127.11 133.93 128.94 135.76 135.76 143.32 137.79 153.85 127.26 153.81 127.11 153.85 126.97 143.32 116.44" style="fill:#f3dc92"/><polygon points="118.47 118.47 110.9 116.44 100.38 126.97 100.42 127.11 100.38 127.26 110.9 137.79 118.47 135.76 120.29 128.94 127.11 127.11 120.29 125.29 118.47 118.47" style="fill:#f3dc92"/><polygon points="138.09 120.79 136.39 127.11 138.09 133.43 142.47 134.61 149.96 127.11 142.47 119.62 138.09 120.79" style="fill:#d45645"/><polygon points="111.76 119.62 104.26 127.11 111.76 134.61 116.14 133.43 117.83 127.11 116.14 120.79 111.76 119.62" style="fill:#d45645"/><polygon points="140.41 123.12 139.34 127.11 140.41 131.1 141.62 131.43 145.93 127.11 141.62 122.8 140.41 123.12" style="fill:#d09b4b"/><polygon points="112.61 122.8 108.3 127.11 112.61 131.43 113.81 131.1 114.88 127.11 113.81 123.12 112.61 122.8" style="fill:#d09b4b"/><polygon points="150.25 167.54 148.22 175.1 158.75 185.63 158.89 185.59 159.04 185.63 169.56 175.1 167.54 167.54 160.72 165.71 158.89 158.89 157.06 165.71 150.25 167.54" style="fill:#201600"/><polygon points="150.25 167.54 148.22 175.1 158.75 185.63 158.89 185.59 159.04 185.63 169.56 175.1 167.54 167.54 160.72 165.71 158.89 158.89 157.06 165.71 150.25 167.54" style="fill:none;stroke:#d09b4b;stroke-miterlimit:22.9260005950928;stroke-width:1.84800004959106px"/><polygon points="167.54 150.24 169.56 142.68 159.04 132.15 158.89 132.19 158.75 132.15 148.22 142.68 150.25 150.24 157.07 152.07 158.89 158.89 160.72 152.07 167.54 150.24" style="fill:#201600"/><polygon points="167.54 150.24 169.56 142.68 159.04 132.15 158.89 132.19 158.75 132.15 148.22 142.68 150.25 150.24 157.07 152.07 158.89 158.89 160.72 152.07 167.54 150.24" style="fill:none;stroke:#d09b4b;stroke-miterlimit:22.9260005950928;stroke-width:1.84800004959106px"/><polygon points="151.4 143.53 152.57 147.92 158.89 149.61 165.21 147.92 166.38 143.53 158.89 136.04 151.4 143.53" style="fill:#d45645"/><polygon points="158.89 168.17 152.57 169.87 151.4 174.25 158.89 181.74 166.38 174.25 165.21 169.87 158.89 168.17" style="fill:#d45645"/><polygon points="154.58 144.39 154.9 145.59 158.89 146.66 162.88 145.59 163.2 144.39 158.89 140.07 154.58 144.39" style="fill:#f4de5e"/><polygon points="158.89 171.12 154.9 172.19 154.58 173.4 158.89 177.71 163.2 173.4 162.88 172.19 158.89 171.12" style="fill:#f4de5e"/><polygon points="158.89 158.89 165.71 157.06 167.54 150.25 160.72 152.07 158.89 158.89" style="fill:#d09b4b"/><polygon points="150.24 167.54 157.06 165.71 158.89 158.89 152.07 160.72 150.24 167.54" style="fill:#d09b4b"/><polygon points="158.89 158.89 160.72 165.71 167.54 167.54 165.71 160.72 158.89 158.89" style="fill:#d09b4b"/><polygon points="150.24 150.25 152.07 157.06 158.89 158.89 157.06 152.07 150.24 150.25" style="fill:#d09b4b"/><polygon points="175.1 148.22 167.54 150.24 165.71 157.06 158.89 158.89 165.71 160.72 167.54 167.53 175.1 169.56 185.63 159.03 185.59 158.89 185.63 158.74 175.1 148.22" style="fill:#201600"/><polygon points="175.1 148.22 167.54 150.24 165.71 157.06 158.89 158.89 165.71 160.72 167.54 167.53 175.1 169.56 185.63 159.03 185.59 158.89 185.63 158.74 175.1 148.22" style="fill:none;stroke:#d09b4b;stroke-miterlimit:22.9260005950928;stroke-width:1.84800004959106px"/><polygon points="150.25 150.24 142.68 148.22 132.16 158.74 132.19 158.89 132.16 159.03 142.68 169.56 150.25 167.54 152.07 160.72 158.89 158.89 152.07 157.06 150.25 150.24" style="fill:#201600"/><polygon points="150.25 150.24 142.68 148.22 132.16 158.74 132.19 158.89 132.16 159.03 142.68 169.56 150.25 167.54 152.07 160.72 158.89 158.89 152.07 157.06 150.25 150.24" style="fill:none;stroke:#d09b4b;stroke-miterlimit:22.9260005950928;stroke-width:1.84800004959106px"/><polygon points="169.87 152.57 168.17 158.89 169.87 165.21 174.25 166.38 181.74 158.89 174.25 151.4 169.87 152.57" style="fill:#d45645"/><polygon points="143.53 151.4 136.04 158.89 143.53 166.38 147.91 165.21 149.61 158.89 147.91 152.57 143.53 151.4" style="fill:#d45645"/><polygon points="172.19 154.9 171.12 158.89 172.19 162.88 173.4 163.21 177.71 158.89 173.4 154.58 172.19 154.9" style="fill:#f4de5e"/><polygon points="144.39 154.58 140.07 158.89 144.39 163.21 145.59 162.88 146.66 158.89 145.59 154.9 144.39 154.58" style="fill:#f4de5e"/><polygon points="23.13 167.54 21.11 175.1 31.63 185.63 31.78 185.59 31.92 185.63 42.45 175.1 40.42 167.54 33.61 165.71 31.78 158.89 29.95 165.71 23.13 167.54" style="fill:#201600"/><polygon points="23.13 167.54 21.11 175.1 31.63 185.63 31.78 185.59 31.92 185.63 42.45 175.1 40.42 167.54 33.61 165.71 31.78 158.89 29.95 165.71 23.13 167.54" style="fill:none;stroke:#d09b4b;stroke-miterlimit:22.9260005950928;stroke-width:1.84800004959106px"/><polygon points="40.42 150.24 42.45 142.68 31.92 132.15 31.78 132.19 31.63 132.15 21.11 142.68 23.13 150.24 29.95 152.07 31.78 158.89 33.6 152.07 40.42 150.24" style="fill:#201600"/><polygon points="40.42 150.24 42.45 142.68 31.92 132.15 31.78 132.19 31.63 132.15 21.11 142.68 23.13 150.24 29.95 152.07 31.78 158.89 33.6 152.07 40.42 150.24" style="fill:none;stroke:#d09b4b;stroke-miterlimit:22.9260005950928;stroke-width:1.84800004959106px"/><polygon points="24.29 143.53 25.46 147.92 31.78 149.61 38.1 147.92 39.27 143.53 31.78 136.04 24.29 143.53" style="fill:#d45645"/><polygon points="31.78 168.17 25.46 169.87 24.29 174.25 31.78 181.74 39.27 174.25 38.1 169.87 31.78 168.17" style="fill:#d45645"/><polygon points="27.46 144.39 27.79 145.59 31.78 146.66 35.77 145.59 36.09 144.39 31.78 140.07 27.46 144.39" style="fill:#f4de5e"/><polygon points="31.78 171.12 27.79 172.19 27.46 173.4 31.78 177.71 36.09 173.4 35.77 172.19 31.78 171.12" style="fill:#f4de5e"/><polygon points="31.78 158.89 38.6 157.06 40.42 150.25 33.6 152.07 31.78 158.89" style="fill:#d09b4b"/><polygon points="23.13 167.54 29.95 165.71 31.78 158.89 24.96 160.72 23.13 167.54" style="fill:#d09b4b"/><polygon points="31.78 158.89 33.6 165.71 40.42 167.54 38.6 160.72 31.78 158.89" style="fill:#d09b4b"/><polygon points="23.13 150.25 24.96 157.06 31.78 158.89 29.95 152.07 23.13 150.25" style="fill:#d09b4b"/><polygon points="47.99 148.22 40.43 150.24 38.6 157.06 31.78 158.89 38.6 160.72 40.43 167.53 47.99 169.56 58.52 159.03 58.48 158.89 58.52 158.74 47.99 148.22" style="fill:#201600"/><polygon points="47.99 148.22 40.43 150.24 38.6 157.06 31.78 158.89 38.6 160.72 40.43 167.53 47.99 169.56 58.52 159.03 58.48 158.89 58.52 158.74 47.99 148.22" style="fill:none;stroke:#d09b4b;stroke-miterlimit:22.9260005950928;stroke-width:1.84800004959106px"/><polygon points="23.13 150.24 15.57 148.22 5.04 158.74 5.08 158.89 5.04 159.03 15.57 169.56 23.13 167.54 24.96 160.72 31.78 158.89 24.96 157.06 23.13 150.24" style="fill:#201600"/><polygon points="23.13 150.24 15.57 148.22 5.04 158.74 5.08 158.89 5.04 159.03 15.57 169.56 23.13 167.54 24.96 160.72 31.78 158.89 24.96 157.06 23.13 150.24" style="fill:none;stroke:#d09b4b;stroke-miterlimit:22.9260005950928;stroke-width:1.84800004959106px"/><polygon points="42.75 152.57 41.06 158.89 42.75 165.21 47.13 166.38 54.63 158.89 47.13 151.4 42.75 152.57" style="fill:#d45645"/><polygon points="16.42 151.4 8.93 158.89 16.42 166.38 20.8 165.21 22.5 158.89 20.8 152.57 16.42 151.4" style="fill:#d45645"/><polygon points="45.08 154.9 44.01 158.89 45.08 162.88 46.28 163.21 50.59 158.89 46.28 154.58 45.08 154.9" style="fill:#f4de5e"/><polygon points="17.27 154.58 12.96 158.89 17.27 163.21 18.48 162.88 19.55 158.89 18.48 154.9 17.27 154.58" style="fill:#f4de5e"/><polygon points="86.69 167.54 84.66 175.1 95.19 185.63 95.33 185.59 95.48 185.63 106.01 175.1 103.98 167.54 97.16 165.71 95.33 158.89 93.51 165.71 86.69 167.54" style="fill:#201600"/><polygon points="86.69 167.54 84.66 175.1 95.19 185.63 95.33 185.59 95.48 185.63 106.01 175.1 103.98 167.54 97.16 165.71 95.33 158.89 93.51 165.71 86.69 167.54" style="fill:none;stroke:#d09b4b;stroke-miterlimit:22.9260005950928;stroke-width:1.84800004959106px"/><polygon points="103.98 150.24 106.01 142.68 95.48 132.15 95.33 132.19 95.19 132.15 84.66 142.68 86.69 150.24 93.51 152.07 95.33 158.89 97.16 152.07 103.98 150.24" style="fill:#201600"/><polygon points="103.98 150.24 106.01 142.68 95.48 132.15 95.33 132.19 95.19 132.15 84.66 142.68 86.69 150.24 93.51 152.07 95.33 158.89 97.16 152.07 103.98 150.24" style="fill:none;stroke:#d09b4b;stroke-miterlimit:22.9260005950928;stroke-width:1.84800004959106px"/><polygon points="87.84 143.53 89.02 147.92 95.33 149.61 101.65 147.92 102.83 143.53 95.33 136.04 87.84 143.53" style="fill:#d45645"/><polygon points="95.33 168.17 89.02 169.87 87.84 174.25 95.33 181.74 102.83 174.25 101.65 169.87 95.33 168.17" style="fill:#d45645"/><polygon points="91.02 144.39 91.34 145.59 95.33 146.66 99.33 145.59 99.65 144.39 95.33 140.07 91.02 144.39" style="fill:#f4de5e"/><polygon points="95.33 171.12 91.34 172.19 91.02 173.4 95.33 177.71 99.65 173.4 99.33 172.19 95.33 171.12" style="fill:#f4de5e"/><polygon points="95.33 158.89 102.15 157.06 103.98 150.25 97.16 152.07 95.33 158.89" style="fill:#d09b4b"/><polygon points="86.69 167.54 93.51 165.71 95.33 158.89 88.52 160.72 86.69 167.54" style="fill:#d09b4b"/><polygon points="95.33 158.89 97.16 165.71 103.98 167.54 102.15 160.72 95.33 158.89" style="fill:#d09b4b"/><polygon points="86.69 150.25 88.52 157.06 95.33 158.89 93.51 152.07 86.69 150.25" style="fill:#d09b4b"/><polygon points="111.54 148.22 103.98 150.24 102.16 157.06 95.34 158.89 102.16 160.72 103.98 167.53 111.54 169.56 122.07 159.03 122.03 158.89 122.07 158.74 111.54 148.22" style="fill:#201600"/><polygon points="111.54 148.22 103.98 150.24 102.16 157.06 95.34 158.89 102.16 160.72 103.98 167.53 111.54 169.56 122.07 159.03 122.03 158.89 122.07 158.74 111.54 148.22" style="fill:none;stroke:#d09b4b;stroke-miterlimit:22.9260005950928;stroke-width:1.84800004959106px"/><polygon points="86.69 150.24 79.13 148.22 68.6 158.74 68.64 158.89 68.6 159.03 79.13 169.56 86.69 167.54 88.52 160.72 95.33 158.89 88.52 157.06 86.69 150.24" style="fill:#201600"/><polygon points="86.69 150.24 79.13 148.22 68.6 158.74 68.64 158.89 68.6 159.03 79.13 169.56 86.69 167.54 88.52 160.72 95.33 158.89 88.52 157.06 86.69 150.24" style="fill:none;stroke:#d09b4b;stroke-miterlimit:22.9260005950928;stroke-width:1.84800004959106px"/><polygon points="106.31 152.57 104.61 158.89 106.31 165.21 110.69 166.38 118.18 158.89 110.69 151.4 106.31 152.57" style="fill:#d45645"/><polygon points="79.98 151.4 72.48 158.89 79.98 166.38 84.36 165.21 86.05 158.89 84.36 152.57 79.98 151.4" style="fill:#d45645"/><polygon points="108.64 154.9 107.57 158.89 108.64 162.88 109.84 163.21 114.15 158.89 109.84 154.58 108.64 154.9" style="fill:#f4de5e"/><polygon points="80.83 154.58 76.52 158.89 80.83 163.21 82.03 162.88 83.1 158.89 82.03 154.9 80.83 154.58" style="fill:#f4de5e"/><polygon points="104.2 23.13 106.22 15.57 95.7 5.04 95.55 5.08 95.41 5.04 84.88 15.57 86.91 23.13 93.73 24.95 95.55 31.77 97.38 24.95 104.2 23.13" style="fill:#201600"/><polygon points="104.2 23.13 106.22 15.57 95.7 5.04 95.55 5.08 95.41 5.04 84.88 15.57 86.91 23.13 93.73 24.95 95.55 31.77 97.38 24.95 104.2 23.13" style="fill:none;stroke:#d09b4b;stroke-miterlimit:22.9260005950928;stroke-width:1.84800004959106px"/><polygon points="88.06 16.42 89.23 20.8 95.55 22.5 101.87 20.8 103.05 16.42 95.55 8.93 88.06 16.42" style="fill:#d45645"/><polygon points="91.24 17.27 91.56 18.48 95.55 19.55 99.54 18.48 99.86 17.27 95.55 12.96 91.24 17.27" style="fill:#f4de5e"/><polygon points="95.55 31.78 102.37 29.95 104.2 23.13 97.38 24.96 95.55 31.78" style="fill:#d09b4b"/><polygon points="86.91 23.13 88.73 29.95 95.55 31.78 93.72 24.96 86.91 23.13" style="fill:#d09b4b"/><rect x="190.57" width="190.67" height="190.67" style="fill:#d09b4b"/><polygon points="201.24 16.21 199.21 8.65 192.39 6.82 190.56 0 190.56 26.7 190.71 26.74 201.24 16.21" style="fill:#f3dc92"/><polygon points="196.88 10.98 190.56 9.28 190.56 22.85 198.06 15.36 196.88 10.98" style="fill:#d45645"/><polygon points="194.56 13.3 190.56 12.23 190.56 18.82 194.88 14.51 194.56 13.3" style="fill:#d09b4b"/><polygon points="199.21 8.65 197.38 1.83 190.56 0 192.39 6.82 199.21 8.65" style="fill:#996943"/><polygon points="199.21 8.65 206.77 10.67 217.3 0.15 217.26 0 190.56 0 197.38 1.83 199.21 8.65" style="fill:#f3dc92"/><polygon points="199.21 182.02 201.24 174.46 190.71 163.93 190.56 163.97 190.56 190.67 192.39 183.85 199.21 182.02" style="fill:#f3dc92"/><polygon points="198.06 175.31 190.57 167.82 190.57 181.39 196.88 179.69 198.06 175.31" style="fill:#d45645"/><polygon points="194.88 176.16 190.56 171.85 190.56 178.44 194.56 177.37 194.88 176.16" style="fill:#d09b4b"/><polygon points="199.21 182.02 192.39 183.85 190.56 190.67 197.38 188.84 199.21 182.02" style="fill:#996943"/><polygon points="206.77 180 199.21 182.02 197.38 188.84 190.56 190.67 217.26 190.67 217.3 190.53 206.77 180" style="fill:#f3dc92"/><polygon points="201.24 79.77 199.21 72.2 192.39 70.38 190.56 63.56 190.56 90.25 190.71 90.29 201.24 79.77" style="fill:#f3dc92"/><polygon points="199.21 54.91 201.24 47.35 190.71 36.82 190.56 36.86 190.56 63.56 192.39 56.74 199.21 54.91" style="fill:#f3dc92"/><polygon points="198.06 48.2 190.57 40.71 190.57 54.27 196.88 52.58 198.06 48.2" style="fill:#d45645"/><polygon points="196.88 74.53 190.56 72.84 190.56 86.41 198.06 78.91 196.88 74.53" style="fill:#d45645"/><polygon points="194.88 49.05 190.56 44.74 190.56 51.32 194.56 50.26 194.88 49.05" style="fill:#d09b4b"/><polygon points="194.56 76.86 190.56 75.79 190.56 82.37 194.88 78.06 194.56 76.86" style="fill:#d09b4b"/><polygon points="199.21 54.91 192.39 56.74 190.56 63.56 197.38 61.73 199.21 54.91" style="fill:#996943"/><polygon points="199.21 72.2 197.38 65.39 190.56 63.56 192.39 70.38 199.21 72.2" style="fill:#996943"/><polygon points="199.21 72.2 206.77 74.23 217.3 63.7 217.26 63.56 217.3 63.41 206.77 52.88 199.21 54.91 197.38 61.73 190.56 63.56 197.38 65.39 199.21 72.2" style="fill:#f3dc92"/><polygon points="201.24 143.32 199.21 135.76 192.39 133.93 190.56 127.11 190.56 153.81 190.71 153.85 201.24 143.32" style="fill:#f3dc92"/><polygon points="199.21 118.47 201.24 110.9 190.71 100.38 190.56 100.42 190.56 127.11 192.39 120.29 199.21 118.47" style="fill:#f3dc92"/><polygon points="198.06 111.76 190.57 104.26 190.57 117.83 196.88 116.14 198.06 111.76" style="fill:#d45645"/><polygon points="196.88 138.09 190.56 136.4 190.56 149.96 198.06 142.47 196.88 138.09" style="fill:#d45645"/><polygon points="194.88 112.61 190.56 108.3 190.56 114.88 194.56 113.81 194.88 112.61" style="fill:#d09b4b"/><polygon points="194.56 140.42 190.56 139.35 190.56 145.93 194.88 141.62 194.56 140.42" style="fill:#d09b4b"/><polygon points="199.21 118.47 192.39 120.29 190.56 127.11 197.38 125.29 199.21 118.47" style="fill:#996943"/><polygon points="199.21 135.76 197.38 128.94 190.56 127.11 192.39 133.93 199.21 135.76" style="fill:#996943"/><polygon points="199.21 135.76 206.77 137.79 217.3 127.26 217.26 127.11 217.3 126.97 206.77 116.44 199.21 118.47 197.38 125.29 190.56 127.11 197.38 128.94 199.21 135.76" style="fill:#f3dc92"/><rect y="190.53" width="190.67" height="190.67" style="fill:#d09b4b"/><polygon points="10.67 206.74 8.65 199.17 1.83 197.35 0 190.53 0 217.22 0.14 217.26 10.67 206.74" style="fill:#f3dc92"/><polygon points="8.65 199.18 6.82 192.35 0 190.53 1.83 197.35 8.65 199.18" style="fill:#996943"/><polygon points="8.65 199.18 16.21 201.2 26.74 190.67 26.7 190.53 0 190.53 6.82 192.35 8.65 199.18" style="fill:#f3dc92"/><polygon points="15.36 198.02 22.85 190.53 9.28 190.53 10.97 196.85 15.36 198.02" style="fill:#d45645"/><polygon points="14.51 194.84 18.82 190.53 12.23 190.53 13.3 194.52 14.51 194.84" style="fill:#d09b4b"/><polygon points="188.84 197.35 182.02 199.18 180 206.74 190.52 217.26 190.67 217.22 190.67 190.53 188.84 197.35" style="fill:#f3dc92"/><polygon points="182.02 199.18 188.84 197.35 190.67 190.53 183.85 192.35 182.02 199.18" style="fill:#996943"/><polygon points="174.46 201.2 182.02 199.17 183.85 192.35 190.67 190.53 163.97 190.53 163.93 190.67 174.46 201.2" style="fill:#f3dc92"/><polygon points="179.69 196.85 181.39 190.53 167.82 190.53 175.31 198.02 179.69 196.85" style="fill:#d45645"/><polygon points="177.37 194.52 178.44 190.53 171.85 190.53 176.16 194.84 177.37 194.52" style="fill:#d09b4b"/><polygon points="54.91 199.18 52.88 206.74 63.41 217.26 63.56 217.23 63.7 217.26 74.23 206.74 72.2 199.18 65.38 197.35 63.56 190.53 61.73 197.35 54.91 199.18" style="fill:#f3dc92"/><polygon points="54.91 199.18 61.73 197.35 63.56 190.53 56.74 192.35 54.91 199.18" style="fill:#996943"/><polygon points="72.2 199.18 70.38 192.35 63.56 190.53 65.38 197.35 72.2 199.18" style="fill:#996943"/><polygon points="72.2 199.18 79.76 201.2 90.29 190.67 90.25 190.53 63.56 190.53 70.38 192.35 72.2 199.18" style="fill:#f3dc92"/><polygon points="47.35 201.2 54.91 199.17 56.74 192.35 63.56 190.53 36.86 190.53 36.82 190.67 47.35 201.2" style="fill:#f3dc92"/><polygon points="78.91 198.02 86.41 190.53 72.84 190.53 74.53 196.85 78.91 198.02" style="fill:#d45645"/><polygon points="52.58 196.85 54.27 190.53 40.71 190.53 48.2 198.02 52.58 196.85" style="fill:#d45645"/><polygon points="78.06 194.84 82.37 190.53 75.79 190.53 76.86 194.52 78.06 194.84" style="fill:#d09b4b"/><polygon points="50.26 194.52 51.32 190.53 44.74 190.53 49.05 194.84 50.26 194.52" style="fill:#d09b4b"/><polygon points="118.47 199.18 116.44 206.74 126.97 217.26 127.11 217.23 127.26 217.26 137.78 206.74 135.76 199.18 128.94 197.35 127.11 190.53 125.28 197.35 118.47 199.18" style="fill:#f3dc92"/><polygon points="118.47 199.18 125.28 197.35 127.11 190.53 120.29 192.35 118.47 199.18" style="fill:#996943"/><polygon points="135.76 199.18 133.93 192.35 127.11 190.53 128.94 197.35 135.76 199.18" style="fill:#996943"/><polygon points="135.76 199.18 143.32 201.2 153.85 190.67 153.81 190.53 127.11 190.53 133.93 192.35 135.76 199.18" style="fill:#f3dc92"/><polygon points="110.9 201.2 118.47 199.17 120.29 192.35 127.11 190.53 100.42 190.53 100.38 190.67 110.9 201.2" style="fill:#f3dc92"/><polygon points="142.47 198.02 149.96 190.53 136.39 190.53 138.09 196.85 142.47 198.02" style="fill:#d45645"/><polygon points="116.14 196.85 117.83 190.53 104.26 190.53 111.76 198.02 116.14 196.85" style="fill:#d45645"/><polygon points="141.62 194.84 145.93 190.53 139.34 190.53 140.41 194.52 141.62 194.84" style="fill:#d09b4b"/><polygon points="113.81 194.52 114.88 190.53 108.3 190.53 112.61 194.84 113.81 194.52" style="fill:#d09b4b"/><rect x="190.57" y="190.53" width="190.67" height="190.67" style="fill:#d09b4b"/><polygon points="201.24 206.74 199.21 199.17 192.39 197.35 190.56 190.53 190.56 217.22 190.71 217.26 201.24 206.74" style="fill:#f3dc92"/><polygon points="199.21 199.18 197.38 192.35 190.56 190.53 192.39 197.35 199.21 199.18" style="fill:#996943"/><polygon points="199.21 199.18 206.77 201.2 217.3 190.67 217.26 190.53 190.56 190.53 197.38 192.35 199.21 199.18" style="fill:#f3dc92"/></svg>
